<?xml version="1.0" standalone="no"?>
<!DOCTYPE svg PUBLIC "-//W3C//DTD SVG 20010904//EN"
 "http://www.w3.org/TR/2001/REC-SVG-20010904/DTD/svg10.dtd">
<svg version="1.0" xmlns="http://www.w3.org/2000/svg"
 width="3360.000000pt" height="3360.000000pt" viewBox="0 0 3360.000000 3360.000000"
 preserveAspectRatio="xMidYMid meet">
<metadata>
Created by potrace 1.14, written by Peter Selinger 2001-2017
</metadata>
<g transform="translate(0.000000,3360.000000) scale(0.100000,-0.100000)"
fill="#000000" stroke="none">
<path d="M27257 29954 c-1 -1 -38 -5 -83 -8 -45 -4 -90 -8 -101 -10 -11 -3
-38 -7 -59 -10 -550 -87 -1300 -508 -2019 -1134 -271 -237 -326 -290 -1050
-1027 -506 -514 -698 -708 -1445 -1464 -316 -320 -705 -714 -865 -876 -159
-161 -547 -554 -862 -872 -314 -318 -666 -675 -783 -793 -117 -118 -484 -490
-816 -826 -332 -335 -737 -746 -901 -912 -164 -165 -526 -532 -805 -814 -278
-282 -542 -550 -585 -594 -43 -45 -140 -146 -217 -225 -76 -79 -419 -427 -761
-774 -343 -346 -737 -746 -877 -887 -139 -141 -507 -514 -818 -828 -311 -314
-675 -683 -810 -820 -135 -136 -504 -510 -820 -830 -316 -320 -692 -700 -835
-845 -143 -145 -503 -509 -800 -810 -297 -300 -643 -651 -769 -778 -126 -128
-529 -536 -896 -907 -367 -371 -752 -760 -855 -865 -103 -104 -465 -471 -805
-815 -340 -344 -719 -727 -842 -852 -122 -125 -484 -491 -803 -813 -319 -322
-663 -671 -765 -774 -102 -103 -225 -223 -275 -267 -203 -179 -304 -304 -384
-477 -41 -87 -93 -253 -106 -337 -4 -25 -9 -53 -10 -62 -22 -117 -21 -439 2
-553 3 -16 7 -43 9 -60 7 -66 47 -237 85 -365 168 -561 500 -1087 935 -1480
702 -635 1327 -996 1886 -1089 134 -23 360 -31 445 -17 15 3 48 8 73 11 74 10
225 53 311 90 119 50 228 116 353 215 28 22 1007 1008 1839 1853 121 122 499
506 842 852 343 347 726 734 852 862 125 127 494 500 818 828 325 328 684 692
798 808 115 117 484 490 820 830 337 340 716 724 842 852 127 128 487 493 800
810 314 317 593 601 620 630 74 80 693 709 1880 1910 326 330 684 692 795 805
111 113 484 490 828 838 345 349 724 732 842 852 118 120 481 487 805 815 325
328 688 697 808 818 121 122 493 499 827 837 334 338 713 722 842 852 128 130
496 503 818 828 322 325 674 682 784 793 813 826 1565 1585 2106 2128 653 655
810 814 965 983 50 53 104 112 120 130 17 18 57 63 90 101 33 37 65 73 70 79
92 96 470 578 527 672 10 16 36 56 58 89 22 33 43 67 47 75 4 8 20 38 37 65
77 129 171 343 211 480 20 72 22 80 36 170 6 39 14 77 19 86 5 10 4 21 -3 29
-9 10 -9 11 0 6 10 -5 12 16 12 89 0 52 -5 95 -10 95 -5 0 -9 17 -9 38 -1 59
-41 219 -75 297 -9 22 -18 45 -19 50 -5 22 -62 125 -113 204 -265 408 -765
709 -1228 738 -49 3 -93 8 -96 12 -3 3 -14 42 -24 86 -73 324 -234 619 -448
821 -188 178 -405 285 -686 339 -62 12 -316 26 -324 19z"/>
</g>
</svg>
