<svg id="visual" viewBox="0 0 1000 208" width="1000" height="208" xmlns="http://www.w3.org/2000/svg" xmlns:xlink="http://www.w3.org/1999/xlink" version="1.1"><rect x="0" y="0" width="1000" height="208" fill="#3d1b03"></rect><path d="M0 87L8.3 78.2C16.7 69.3 33.3 51.7 50 50.7C66.7 49.7 83.3 65.3 100 66C116.7 66.7 133.3 52.3 150 44.5C166.7 36.7 183.3 35.3 200 40.8C216.7 46.3 233.3 58.7 250 60.5C266.7 62.3 283.3 53.7 300 49C316.7 44.3 333.3 43.7 350 40.5C366.7 37.3 383.3 31.7 400 37.2C416.7 42.7 433.3 59.3 450 63.5C466.7 67.7 483.3 59.3 500 48.7C516.7 38 533.3 25 550 21.7C566.7 18.3 583.3 24.7 600 36.3C616.7 48 633.3 65 650 75.8C666.7 86.7 683.3 91.3 700 90.8C716.7 90.3 733.3 84.7 750 84.5C766.7 84.3 783.3 89.7 800 80.2C816.7 70.7 833.3 46.3 850 32.7C866.7 19 883.3 16 900 27.2C916.7 38.3 933.3 63.7 950 67.3C966.7 71 983.3 53 991.7 44L1000 35L1000 209L991.7 209C983.3 209 966.7 209 950 209C933.3 209 916.7 209 900 209C883.3 209 866.7 209 850 209C833.3 209 816.7 209 800 209C783.3 209 766.7 209 750 209C733.3 209 716.7 209 700 209C683.3 209 666.7 209 650 209C633.3 209 616.7 209 600 209C583.3 209 566.7 209 550 209C533.3 209 516.7 209 500 209C483.3 209 466.7 209 450 209C433.3 209 416.7 209 400 209C383.3 209 366.7 209 350 209C333.3 209 316.7 209 300 209C283.3 209 266.7 209 250 209C233.3 209 216.7 209 200 209C183.3 209 166.7 209 150 209C133.3 209 116.7 209 100 209C83.3 209 66.7 209 50 209C33.3 209 16.7 209 8.3 209L0 209Z" fill="#3d1b03"></path><path d="M0 81L8.3 85.7C16.7 90.3 33.3 99.7 50 93.2C66.7 86.7 83.3 64.3 100 58.8C116.7 53.3 133.3 64.7 150 76.8C166.7 89 183.3 102 200 103.8C216.7 105.7 233.3 96.3 250 93.8C266.7 91.3 283.3 95.7 300 97C316.7 98.3 333.3 96.7 350 99.3C366.7 102 383.3 109 400 99.7C416.7 90.3 433.3 64.7 450 64.7C466.7 64.7 483.3 90.3 500 97.5C516.7 104.7 533.3 93.3 550 93.7C566.7 94 583.3 106 600 101.2C616.7 96.3 633.3 74.7 650 65C666.7 55.3 683.3 57.7 700 62.3C716.7 67 733.3 74 750 80.5C766.7 87 783.3 93 800 88.7C816.7 84.3 833.3 69.7 850 68.7C866.7 67.7 883.3 80.3 900 77.5C916.7 74.7 933.3 56.3 950 48.3C966.7 40.3 983.3 42.7 991.7 43.8L1000 45L1000 209L991.7 209C983.3 209 966.7 209 950 209C933.3 209 916.7 209 900 209C883.3 209 866.7 209 850 209C833.3 209 816.7 209 800 209C783.3 209 766.7 209 750 209C733.3 209 716.7 209 700 209C683.3 209 666.7 209 650 209C633.3 209 616.7 209 600 209C583.3 209 566.7 209 550 209C533.3 209 516.7 209 500 209C483.3 209 466.7 209 450 209C433.3 209 416.7 209 400 209C383.3 209 366.7 209 350 209C333.3 209 316.7 209 300 209C283.3 209 266.7 209 250 209C233.3 209 216.7 209 200 209C183.3 209 166.7 209 150 209C133.3 209 116.7 209 100 209C83.3 209 66.7 209 50 209C33.3 209 16.7 209 8.3 209L0 209Z" fill="#4a2208"></path><path d="M0 62L8.3 68.8C16.7 75.7 33.3 89.3 50 94.2C66.7 99 83.3 95 100 99.3C116.7 103.7 133.3 116.3 150 121.2C166.7 126 183.3 123 200 121.7C216.7 120.3 233.3 120.7 250 117.7C266.7 114.7 283.3 108.3 300 103.2C316.7 98 333.3 94 350 97.8C366.7 101.7 383.3 113.3 400 120C416.7 126.7 433.3 128.3 450 124.5C466.7 120.7 483.3 111.3 500 110.8C516.7 110.3 533.3 118.7 550 119.8C566.7 121 583.3 115 600 111.7C616.7 108.3 633.3 107.7 650 105.2C666.7 102.7 683.3 98.3 700 98.7C716.7 99 733.3 104 750 110.3C766.7 116.7 783.3 124.3 800 125.2C816.7 126 833.3 120 850 109.3C866.7 98.7 883.3 83.3 900 79C916.7 74.7 933.3 81.3 950 86.8C966.7 92.3 983.3 96.7 991.7 98.8L1000 101L1000 209L991.7 209C983.3 209 966.7 209 950 209C933.3 209 916.7 209 900 209C883.3 209 866.7 209 850 209C833.3 209 816.7 209 800 209C783.3 209 766.7 209 750 209C733.3 209 716.7 209 700 209C683.3 209 666.7 209 650 209C633.3 209 616.7 209 600 209C583.3 209 566.7 209 550 209C533.3 209 516.7 209 500 209C483.3 209 466.7 209 450 209C433.3 209 416.7 209 400 209C383.3 209 366.7 209 350 209C333.3 209 316.7 209 300 209C283.3 209 266.7 209 250 209C233.3 209 216.7 209 200 209C183.3 209 166.7 209 150 209C133.3 209 116.7 209 100 209C83.3 209 66.7 209 50 209C33.3 209 16.7 209 8.3 209L0 209Z" fill="#58290c"></path><path d="M0 150L8.3 149.2C16.7 148.3 33.3 146.7 50 137C66.7 127.3 83.3 109.7 100 105.7C116.7 101.7 133.3 111.3 150 112.7C166.7 114 183.3 107 200 105.8C216.7 104.7 233.3 109.3 250 111.8C266.7 114.3 283.3 114.7 300 118.2C316.7 121.7 333.3 128.3 350 125.5C366.7 122.7 383.3 110.3 400 103.3C416.7 96.3 433.3 94.7 450 97.5C466.7 100.3 483.3 107.7 500 116.8C516.7 126 533.3 137 550 136.8C566.7 136.7 583.3 125.3 600 115.5C616.7 105.7 633.3 97.3 650 94.3C666.7 91.3 683.3 93.7 700 95C716.7 96.3 733.3 96.7 750 95.2C766.7 93.7 783.3 90.3 800 98.8C816.7 107.3 833.3 127.7 850 129C866.7 130.3 883.3 112.7 900 104.8C916.7 97 933.3 99 950 106.7C966.7 114.3 983.3 127.7 991.7 134.3L1000 141L1000 209L991.7 209C983.3 209 966.7 209 950 209C933.3 209 916.7 209 900 209C883.3 209 866.7 209 850 209C833.3 209 816.7 209 800 209C783.3 209 766.7 209 750 209C733.3 209 716.7 209 700 209C683.3 209 666.7 209 650 209C633.3 209 616.7 209 600 209C583.3 209 566.7 209 550 209C533.3 209 516.7 209 500 209C483.3 209 466.7 209 450 209C433.3 209 416.7 209 400 209C383.3 209 366.7 209 350 209C333.3 209 316.7 209 300 209C283.3 209 266.7 209 250 209C233.3 209 216.7 209 200 209C183.3 209 166.7 209 150 209C133.3 209 116.7 209 100 209C83.3 209 66.7 209 50 209C33.3 209 16.7 209 8.3 209L0 209Z" fill="#66310e"></path><path d="M0 139L8.3 135.2C16.7 131.3 33.3 123.7 50 124.8C66.7 126 83.3 136 100 141.7C116.7 147.3 133.3 148.7 150 143.5C166.7 138.3 183.3 126.7 200 120.3C216.7 114 233.3 113 250 114C266.7 115 283.3 118 300 124.3C316.7 130.7 333.3 140.3 350 146.7C366.7 153 383.3 156 400 151.3C416.7 146.7 433.3 134.3 450 135.7C466.7 137 483.3 152 500 153C516.7 154 533.3 141 550 139.7C566.7 138.3 583.3 148.7 600 146.8C616.7 145 633.3 131 650 128C666.7 125 683.3 133 700 137.8C716.7 142.7 733.3 144.3 750 147.3C766.7 150.3 783.3 154.7 800 154.5C816.7 154.3 833.3 149.7 850 145.3C866.7 141 883.3 137 900 134.2C916.7 131.3 933.3 129.7 950 127.5C966.7 125.3 983.3 122.7 991.7 121.3L1000 120L1000 209L991.7 209C983.3 209 966.7 209 950 209C933.3 209 916.7 209 900 209C883.3 209 866.7 209 850 209C833.3 209 816.7 209 800 209C783.3 209 766.7 209 750 209C733.3 209 716.7 209 700 209C683.3 209 666.7 209 650 209C633.3 209 616.7 209 600 209C583.3 209 566.7 209 550 209C533.3 209 516.7 209 500 209C483.3 209 466.7 209 450 209C433.3 209 416.7 209 400 209C383.3 209 366.7 209 350 209C333.3 209 316.7 209 300 209C283.3 209 266.7 209 250 209C233.3 209 216.7 209 200 209C183.3 209 166.7 209 150 209C133.3 209 116.7 209 100 209C83.3 209 66.7 209 50 209C33.3 209 16.7 209 8.3 209L0 209Z" fill="#743810"></path><path d="M0 142L8.3 145.2C16.7 148.3 33.3 154.7 50 159C66.7 163.3 83.3 165.7 100 165.8C116.7 166 133.3 164 150 163.8C166.7 163.7 183.3 165.3 200 165.3C216.7 165.3 233.3 163.7 250 165.5C266.7 167.3 283.3 172.7 300 172.2C316.7 171.7 333.3 165.3 350 165C366.7 164.7 383.3 170.3 400 172.7C416.7 175 433.3 174 450 171.2C466.7 168.3 483.3 163.7 500 157.7C516.7 151.7 533.3 144.3 550 144.7C566.7 145 583.3 153 600 156.5C616.7 160 633.3 159 650 158.3C666.7 157.7 683.3 157.3 700 161.2C716.7 165 733.3 173 750 177.7C766.7 182.3 783.3 183.7 800 183.8C816.7 184 833.3 183 850 176.3C866.7 169.7 883.3 157.3 900 157.7C916.7 158 933.3 171 950 172.8C966.7 174.7 983.3 165.3 991.7 160.7L1000 156L1000 209L991.7 209C983.3 209 966.7 209 950 209C933.3 209 916.7 209 900 209C883.3 209 866.7 209 850 209C833.3 209 816.7 209 800 209C783.3 209 766.7 209 750 209C733.3 209 716.7 209 700 209C683.3 209 666.7 209 650 209C633.3 209 616.7 209 600 209C583.3 209 566.7 209 550 209C533.3 209 516.7 209 500 209C483.3 209 466.7 209 450 209C433.3 209 416.7 209 400 209C383.3 209 366.7 209 350 209C333.3 209 316.7 209 300 209C283.3 209 266.7 209 250 209C233.3 209 216.7 209 200 209C183.3 209 166.7 209 150 209C133.3 209 116.7 209 100 209C83.3 209 66.7 209 50 209C33.3 209 16.7 209 8.3 209L0 209Z" fill="#824012"></path><path d="M0 185L8.3 182.8C16.7 180.7 33.3 176.3 50 178.8C66.7 181.3 83.3 190.7 100 194.5C116.7 198.3 133.3 196.7 150 192.5C166.7 188.3 183.3 181.7 200 177.3C216.7 173 233.3 171 250 170.3C266.7 169.7 283.3 170.3 300 171.8C316.7 173.3 333.3 175.7 350 175.2C366.7 174.7 383.3 171.3 400 175.2C416.7 179 433.3 190 450 194C466.7 198 483.3 195 500 193.3C516.7 191.7 533.3 191.3 550 186.2C566.7 181 583.3 171 600 170.8C616.7 170.7 633.3 180.3 650 183C666.7 185.7 683.3 181.3 700 176.7C716.7 172 733.3 167 750 168.2C766.7 169.3 783.3 176.7 800 179.5C816.7 182.3 833.3 180.7 850 177.2C866.7 173.7 883.3 168.3 900 170.5C916.7 172.7 933.3 182.3 950 184.8C966.7 187.3 983.3 182.7 991.7 180.3L1000 178L1000 209L991.7 209C983.3 209 966.7 209 950 209C933.3 209 916.7 209 900 209C883.3 209 866.7 209 850 209C833.3 209 816.7 209 800 209C783.3 209 766.7 209 750 209C733.3 209 716.7 209 700 209C683.3 209 666.7 209 650 209C633.3 209 616.7 209 600 209C583.3 209 566.7 209 550 209C533.3 209 516.7 209 500 209C483.3 209 466.7 209 450 209C433.3 209 416.7 209 400 209C383.3 209 366.7 209 350 209C333.3 209 316.7 209 300 209C283.3 209 266.7 209 250 209C233.3 209 216.7 209 200 209C183.3 209 166.7 209 150 209C133.3 209 116.7 209 100 209C83.3 209 66.7 209 50 209C33.3 209 16.7 209 8.3 209L0 209Z" fill="#914814"></path></svg>