<svg id="visual" viewBox="0 0 1000 208" width="1000" height="208" xmlns="http://www.w3.org/2000/svg" xmlns:xlink="http://www.w3.org/1999/xlink" version="1.1"><rect x="0" y="0" width="1000" height="208" fill="#914814"></rect><path d="M0 82L8.3 70.5C16.7 59 33.3 36 50 38C66.7 40 83.3 67 100 72.7C116.7 78.3 133.3 62.7 150 52.5C166.7 42.3 183.3 37.7 200 37C216.7 36.3 233.3 39.7 250 46.7C266.7 53.7 283.3 64.3 300 69.5C316.7 74.7 333.3 74.3 350 68.8C366.7 63.3 383.3 52.7 400 47.7C416.7 42.7 433.3 43.3 450 38.7C466.7 34 483.3 24 500 26.3C516.7 28.7 533.3 43.3 550 47.5C566.7 51.7 583.3 45.3 600 49.5C616.7 53.7 633.3 68.3 650 73.5C666.7 78.7 683.3 74.3 700 75.5C716.7 76.7 733.3 83.3 750 82.8C766.7 82.3 783.3 74.7 800 69.5C816.7 64.3 833.3 61.7 850 59.3C866.7 57 883.3 55 900 60.3C916.7 65.7 933.3 78.3 950 80.7C966.7 83 983.3 75 991.7 71L1000 67L1000 209L991.7 209C983.3 209 966.7 209 950 209C933.3 209 916.7 209 900 209C883.3 209 866.7 209 850 209C833.3 209 816.7 209 800 209C783.3 209 766.7 209 750 209C733.3 209 716.7 209 700 209C683.3 209 666.7 209 650 209C633.3 209 616.7 209 600 209C583.3 209 566.7 209 550 209C533.3 209 516.7 209 500 209C483.3 209 466.7 209 450 209C433.3 209 416.7 209 400 209C383.3 209 366.7 209 350 209C333.3 209 316.7 209 300 209C283.3 209 266.7 209 250 209C233.3 209 216.7 209 200 209C183.3 209 166.7 209 150 209C133.3 209 116.7 209 100 209C83.3 209 66.7 209 50 209C33.3 209 16.7 209 8.3 209L0 209Z" fill="#914814"></path><path d="M0 79L8.3 71.8C16.7 64.7 33.3 50.3 50 49.3C66.7 48.3 83.3 60.7 100 62.5C116.7 64.3 133.3 55.7 150 49.5C166.7 43.3 183.3 39.7 200 49.2C216.7 58.7 233.3 81.3 250 84.5C266.7 87.7 283.3 71.3 300 63C316.7 54.7 333.3 54.3 350 59.8C366.7 65.3 383.3 76.7 400 82.8C416.7 89 433.3 90 450 85.3C466.7 80.7 483.3 70.3 500 63.8C516.7 57.3 533.3 54.7 550 60.2C566.7 65.7 583.3 79.3 600 86.5C616.7 93.7 633.3 94.3 650 86.2C666.7 78 683.3 61 700 58.3C716.7 55.7 733.3 67.3 750 79.5C766.7 91.7 783.3 104.3 800 98.7C816.7 93 833.3 69 850 60.8C866.7 52.7 883.3 60.3 900 69C916.7 77.7 933.3 87.3 950 88.5C966.7 89.7 983.3 82.3 991.7 78.7L1000 75L1000 209L991.7 209C983.3 209 966.7 209 950 209C933.3 209 916.7 209 900 209C883.3 209 866.7 209 850 209C833.3 209 816.7 209 800 209C783.3 209 766.7 209 750 209C733.3 209 716.7 209 700 209C683.3 209 666.7 209 650 209C633.3 209 616.7 209 600 209C583.3 209 566.7 209 550 209C533.3 209 516.7 209 500 209C483.3 209 466.7 209 450 209C433.3 209 416.7 209 400 209C383.3 209 366.7 209 350 209C333.3 209 316.7 209 300 209C283.3 209 266.7 209 250 209C233.3 209 216.7 209 200 209C183.3 209 166.7 209 150 209C133.3 209 116.7 209 100 209C83.3 209 66.7 209 50 209C33.3 209 16.7 209 8.3 209L0 209Z" fill="#824012"></path><path d="M0 129L8.3 119.8C16.7 110.7 33.3 92.3 50 81.3C66.7 70.3 83.3 66.7 100 64.5C116.7 62.3 133.3 61.7 150 67.3C166.7 73 183.3 85 200 89.3C216.7 93.7 233.3 90.3 250 90.5C266.7 90.7 283.3 94.3 300 96.5C316.7 98.7 333.3 99.3 350 102.8C366.7 106.3 383.3 112.7 400 112C416.7 111.3 433.3 103.7 450 98C466.7 92.3 483.3 88.7 500 86.2C516.7 83.7 533.3 82.3 550 81.5C566.7 80.7 583.3 80.3 600 79.8C616.7 79.3 633.3 78.7 650 81.2C666.7 83.7 683.3 89.3 700 91.5C716.7 93.7 733.3 92.3 750 96.3C766.7 100.3 783.3 109.7 800 107.8C816.7 106 833.3 93 850 84.2C866.7 75.3 883.3 70.7 900 77.7C916.7 84.7 933.3 103.3 950 105C966.7 106.7 983.3 91.3 991.7 83.7L1000 76L1000 209L991.7 209C983.3 209 966.7 209 950 209C933.3 209 916.7 209 900 209C883.3 209 866.7 209 850 209C833.3 209 816.7 209 800 209C783.3 209 766.7 209 750 209C733.3 209 716.7 209 700 209C683.3 209 666.7 209 650 209C633.3 209 616.7 209 600 209C583.3 209 566.7 209 550 209C533.3 209 516.7 209 500 209C483.3 209 466.7 209 450 209C433.3 209 416.7 209 400 209C383.3 209 366.7 209 350 209C333.3 209 316.7 209 300 209C283.3 209 266.7 209 250 209C233.3 209 216.7 209 200 209C183.3 209 166.7 209 150 209C133.3 209 116.7 209 100 209C83.3 209 66.7 209 50 209C33.3 209 16.7 209 8.3 209L0 209Z" fill="#743810"></path><path d="M0 97L8.3 98.8C16.7 100.7 33.3 104.3 50 107C66.7 109.7 83.3 111.3 100 117.2C116.7 123 133.3 133 150 133.7C166.7 134.3 183.3 125.7 200 119C216.7 112.3 233.3 107.7 250 103.8C266.7 100 283.3 97 300 101C316.7 105 333.3 116 350 124.3C366.7 132.7 383.3 138.3 400 131.5C416.7 124.7 433.3 105.3 450 101C466.7 96.7 483.3 107.3 500 113C516.7 118.7 533.3 119.3 550 115C566.7 110.7 583.3 101.3 600 100C616.7 98.7 633.3 105.3 650 106.8C666.7 108.3 683.3 104.7 700 101C716.7 97.3 733.3 93.7 750 94.3C766.7 95 783.3 100 800 101.8C816.7 103.7 833.3 102.3 850 101.5C866.7 100.7 883.3 100.3 900 108.5C916.7 116.7 933.3 133.3 950 137.3C966.7 141.3 983.3 132.7 991.7 128.3L1000 124L1000 209L991.7 209C983.3 209 966.7 209 950 209C933.3 209 916.7 209 900 209C883.3 209 866.7 209 850 209C833.3 209 816.7 209 800 209C783.3 209 766.7 209 750 209C733.3 209 716.7 209 700 209C683.3 209 666.7 209 650 209C633.3 209 616.7 209 600 209C583.3 209 566.7 209 550 209C533.3 209 516.7 209 500 209C483.3 209 466.7 209 450 209C433.3 209 416.7 209 400 209C383.3 209 366.7 209 350 209C333.3 209 316.7 209 300 209C283.3 209 266.7 209 250 209C233.3 209 216.7 209 200 209C183.3 209 166.7 209 150 209C133.3 209 116.7 209 100 209C83.3 209 66.7 209 50 209C33.3 209 16.7 209 8.3 209L0 209Z" fill="#66310e"></path><path d="M0 168L8.3 161.3C16.7 154.7 33.3 141.3 50 138.5C66.7 135.7 83.3 143.3 100 143.5C116.7 143.7 133.3 136.3 150 138C166.7 139.7 183.3 150.3 200 149.3C216.7 148.3 233.3 135.7 250 133.5C266.7 131.3 283.3 139.7 300 138.7C316.7 137.7 333.3 127.3 350 130.5C366.7 133.7 383.3 150.3 400 149.3C416.7 148.3 433.3 129.7 450 126.5C466.7 123.3 483.3 135.7 500 142C516.7 148.3 533.3 148.7 550 148.2C566.7 147.7 583.3 146.3 600 146.7C616.7 147 633.3 149 650 151.7C666.7 154.3 683.3 157.7 700 153.7C716.7 149.7 733.3 138.3 750 131.7C766.7 125 783.3 123 800 125.3C816.7 127.7 833.3 134.3 850 142C866.7 149.7 883.3 158.3 900 159C916.7 159.7 933.3 152.3 950 144.2C966.7 136 983.3 127 991.7 122.5L1000 118L1000 209L991.7 209C983.3 209 966.7 209 950 209C933.3 209 916.7 209 900 209C883.3 209 866.7 209 850 209C833.3 209 816.7 209 800 209C783.3 209 766.7 209 750 209C733.3 209 716.7 209 700 209C683.3 209 666.7 209 650 209C633.3 209 616.7 209 600 209C583.3 209 566.7 209 550 209C533.3 209 516.7 209 500 209C483.3 209 466.7 209 450 209C433.3 209 416.7 209 400 209C383.3 209 366.7 209 350 209C333.3 209 316.7 209 300 209C283.3 209 266.7 209 250 209C233.3 209 216.7 209 200 209C183.3 209 166.7 209 150 209C133.3 209 116.7 209 100 209C83.3 209 66.7 209 50 209C33.3 209 16.7 209 8.3 209L0 209Z" fill="#58290c"></path><path d="M0 175L8.3 170.7C16.7 166.3 33.3 157.7 50 156.2C66.7 154.7 83.3 160.3 100 161.2C116.7 162 133.3 158 150 153.3C166.7 148.7 183.3 143.3 200 145C216.7 146.7 233.3 155.3 250 160.3C266.7 165.3 283.3 166.7 300 169.8C316.7 173 333.3 178 350 175C366.7 172 383.3 161 400 153.2C416.7 145.3 433.3 140.7 450 140.8C466.7 141 483.3 146 500 147.2C516.7 148.3 533.3 145.7 550 148.7C566.7 151.7 583.3 160.3 600 164.7C616.7 169 633.3 169 650 167.8C666.7 166.7 683.3 164.3 700 164C716.7 163.7 733.3 165.3 750 163.3C766.7 161.3 783.3 155.7 800 150.8C816.7 146 833.3 142 850 145.3C866.7 148.7 883.3 159.3 900 159.5C916.7 159.7 933.3 149.3 950 146C966.7 142.7 983.3 146.3 991.7 148.2L1000 150L1000 209L991.7 209C983.3 209 966.7 209 950 209C933.3 209 916.7 209 900 209C883.3 209 866.7 209 850 209C833.3 209 816.7 209 800 209C783.3 209 766.7 209 750 209C733.3 209 716.7 209 700 209C683.3 209 666.7 209 650 209C633.3 209 616.7 209 600 209C583.3 209 566.7 209 550 209C533.3 209 516.7 209 500 209C483.3 209 466.7 209 450 209C433.3 209 416.7 209 400 209C383.3 209 366.7 209 350 209C333.3 209 316.7 209 300 209C283.3 209 266.7 209 250 209C233.3 209 216.7 209 200 209C183.3 209 166.7 209 150 209C133.3 209 116.7 209 100 209C83.3 209 66.7 209 50 209C33.3 209 16.7 209 8.3 209L0 209Z" fill="#4a2208"></path><path d="M0 192L8.3 188.2C16.7 184.3 33.3 176.7 50 175.2C66.7 173.7 83.3 178.3 100 177.8C116.7 177.3 133.3 171.7 150 167.8C166.7 164 183.3 162 200 163.3C216.7 164.7 233.3 169.3 250 171.2C266.7 173 283.3 172 300 170.2C316.7 168.3 333.3 165.7 350 169C366.7 172.3 383.3 181.7 400 184.7C416.7 187.7 433.3 184.3 450 185.5C466.7 186.7 483.3 192.3 500 194.3C516.7 196.3 533.3 194.7 550 191C566.7 187.3 583.3 181.7 600 180.5C616.7 179.3 633.3 182.7 650 183C666.7 183.3 683.3 180.7 700 183C716.7 185.3 733.3 192.7 750 194C766.7 195.3 783.3 190.7 800 189.3C816.7 188 833.3 190 850 186.3C866.7 182.7 883.3 173.3 900 172C916.7 170.7 933.3 177.3 950 180.8C966.7 184.3 983.3 184.7 991.7 184.8L1000 185L1000 209L991.7 209C983.3 209 966.7 209 950 209C933.3 209 916.7 209 900 209C883.3 209 866.7 209 850 209C833.3 209 816.7 209 800 209C783.3 209 766.7 209 750 209C733.3 209 716.7 209 700 209C683.3 209 666.7 209 650 209C633.3 209 616.7 209 600 209C583.3 209 566.7 209 550 209C533.3 209 516.7 209 500 209C483.3 209 466.7 209 450 209C433.3 209 416.7 209 400 209C383.3 209 366.7 209 350 209C333.3 209 316.7 209 300 209C283.3 209 266.7 209 250 209C233.3 209 216.7 209 200 209C183.3 209 166.7 209 150 209C133.3 209 116.7 209 100 209C83.3 209 66.7 209 50 209C33.3 209 16.7 209 8.3 209L0 209Z" fill="#3d1b03"></path></svg>