<svg id="visual" viewBox="0 0 1000 208" width="1000" height="208" xmlns="http://www.w3.org/2000/svg" xmlns:xlink="http://www.w3.org/1999/xlink" version="1.1"><rect x="0" y="0" width="1000" height="208" fill="#3d1b03"></rect><path d="M0 35L11.8 35.2C23.7 35.3 47.3 35.7 71.2 42.3C95 49 119 62 142.8 67C166.7 72 190.3 69 214.2 62.3C238 55.7 262 45.3 285.8 40.3C309.7 35.3 333.3 35.7 357.2 33.5C381 31.3 405 26.7 428.8 26.8C452.7 27 476.3 32 500 34.2C523.7 36.3 547.3 35.7 571.2 34.7C595 33.7 619 32.3 642.8 33.3C666.7 34.3 690.3 37.7 714.2 42.3C738 47 762 53 785.8 60C809.7 67 833.3 75 857.2 79.2C881 83.3 905 83.7 928.8 77.3C952.7 71 976.3 58 988.2 51.5L1000 45L1000 209L988.2 209C976.3 209 952.7 209 928.8 209C905 209 881 209 857.2 209C833.3 209 809.7 209 785.8 209C762 209 738 209 714.2 209C690.3 209 666.7 209 642.8 209C619 209 595 209 571.2 209C547.3 209 523.7 209 500 209C476.3 209 452.7 209 428.8 209C405 209 381 209 357.2 209C333.3 209 309.7 209 285.8 209C262 209 238 209 214.2 209C190.3 209 166.7 209 142.8 209C119 209 95 209 71.2 209C47.3 209 23.7 209 11.8 209L0 209Z" fill="#3d1b03"></path><path d="M0 48L11.8 47.8C23.7 47.7 47.3 47.3 71.2 50.5C95 53.7 119 60.3 142.8 68.8C166.7 77.3 190.3 87.7 214.2 91.3C238 95 262 92 285.8 85.7C309.7 79.3 333.3 69.7 357.2 72.5C381 75.3 405 90.7 428.8 92C452.7 93.3 476.3 80.7 500 75.8C523.7 71 547.3 74 571.2 71.7C595 69.3 619 61.7 642.8 58.5C666.7 55.3 690.3 56.7 714.2 62.7C738 68.7 762 79.3 785.8 86C809.7 92.7 833.3 95.3 857.2 95.7C881 96 905 94 928.8 86.5C952.7 79 976.3 66 988.2 59.5L1000 53L1000 209L988.2 209C976.3 209 952.7 209 928.8 209C905 209 881 209 857.2 209C833.3 209 809.7 209 785.8 209C762 209 738 209 714.2 209C690.3 209 666.7 209 642.8 209C619 209 595 209 571.2 209C547.3 209 523.7 209 500 209C476.3 209 452.7 209 428.8 209C405 209 381 209 357.2 209C333.3 209 309.7 209 285.8 209C262 209 238 209 214.2 209C190.3 209 166.7 209 142.8 209C119 209 95 209 71.2 209C47.3 209 23.7 209 11.8 209L0 209Z" fill="#4a2208"></path><path d="M0 105L11.8 99.3C23.7 93.7 47.3 82.3 71.2 83.5C95 84.7 119 98.3 142.8 102.2C166.7 106 190.3 100 214.2 93.8C238 87.7 262 81.3 285.8 80.8C309.7 80.3 333.3 85.7 357.2 90.5C381 95.3 405 99.7 428.8 97.7C452.7 95.7 476.3 87.3 500 82.8C523.7 78.3 547.3 77.7 571.2 82.5C595 87.3 619 97.7 642.8 98C666.7 98.3 690.3 88.7 714.2 90.7C738 92.7 762 106.3 785.8 111.5C809.7 116.7 833.3 113.3 857.2 111.7C881 110 905 110 928.8 111.2C952.7 112.3 976.3 114.7 988.2 115.8L1000 117L1000 209L988.2 209C976.3 209 952.7 209 928.8 209C905 209 881 209 857.2 209C833.3 209 809.7 209 785.8 209C762 209 738 209 714.2 209C690.3 209 666.7 209 642.8 209C619 209 595 209 571.2 209C547.3 209 523.7 209 500 209C476.3 209 452.7 209 428.8 209C405 209 381 209 357.2 209C333.3 209 309.7 209 285.8 209C262 209 238 209 214.2 209C190.3 209 166.7 209 142.8 209C119 209 95 209 71.2 209C47.3 209 23.7 209 11.8 209L0 209Z" fill="#58290c"></path><path d="M0 133L11.8 132.8C23.7 132.7 47.3 132.3 71.2 131.5C95 130.7 119 129.3 142.8 125.7C166.7 122 190.3 116 214.2 117.3C238 118.7 262 127.3 285.8 126.2C309.7 125 333.3 114 357.2 107.3C381 100.7 405 98.3 428.8 103C452.7 107.7 476.3 119.3 500 124C523.7 128.7 547.3 126.3 571.2 120.8C595 115.3 619 106.7 642.8 104.5C666.7 102.3 690.3 106.7 714.2 110.3C738 114 762 117 785.8 115.2C809.7 113.3 833.3 106.7 857.2 103.5C881 100.3 905 100.7 928.8 100C952.7 99.3 976.3 97.7 988.2 96.8L1000 96L1000 209L988.2 209C976.3 209 952.7 209 928.8 209C905 209 881 209 857.2 209C833.3 209 809.7 209 785.8 209C762 209 738 209 714.2 209C690.3 209 666.7 209 642.8 209C619 209 595 209 571.2 209C547.3 209 523.7 209 500 209C476.3 209 452.7 209 428.8 209C405 209 381 209 357.2 209C333.3 209 309.7 209 285.8 209C262 209 238 209 214.2 209C190.3 209 166.7 209 142.8 209C119 209 95 209 71.2 209C47.3 209 23.7 209 11.8 209L0 209Z" fill="#66310e"></path><path d="M0 121L11.8 120.8C23.7 120.7 47.3 120.3 71.2 121C95 121.7 119 123.3 142.8 123.8C166.7 124.3 190.3 123.7 214.2 127.7C238 131.7 262 140.3 285.8 141C309.7 141.7 333.3 134.3 357.2 129.7C381 125 405 123 428.8 123.5C452.7 124 476.3 127 500 130.8C523.7 134.7 547.3 139.3 571.2 142C595 144.7 619 145.3 642.8 145.2C666.7 145 690.3 144 714.2 139.8C738 135.7 762 128.3 785.8 131.2C809.7 134 833.3 147 857.2 148.5C881 150 905 140 928.8 134.8C952.7 129.7 976.3 129.3 988.2 129.2L1000 129L1000 209L988.2 209C976.3 209 952.7 209 928.8 209C905 209 881 209 857.2 209C833.3 209 809.7 209 785.8 209C762 209 738 209 714.2 209C690.3 209 666.7 209 642.8 209C619 209 595 209 571.2 209C547.3 209 523.7 209 500 209C476.3 209 452.7 209 428.8 209C405 209 381 209 357.2 209C333.3 209 309.7 209 285.8 209C262 209 238 209 214.2 209C190.3 209 166.7 209 142.8 209C119 209 95 209 71.2 209C47.3 209 23.7 209 11.8 209L0 209Z" fill="#743810"></path><path d="M0 148L11.8 148.2C23.7 148.3 47.3 148.7 71.2 152.5C95 156.3 119 163.7 142.8 167.8C166.7 172 190.3 173 214.2 168.3C238 163.7 262 153.3 285.8 148.5C309.7 143.7 333.3 144.3 357.2 145.3C381 146.3 405 147.7 428.8 148.8C452.7 150 476.3 151 500 151C523.7 151 547.3 150 571.2 152.3C595 154.7 619 160.3 642.8 161.7C666.7 163 690.3 160 714.2 158.2C738 156.3 762 155.7 785.8 156.3C809.7 157 833.3 159 857.2 158.3C881 157.7 905 154.3 928.8 153.7C952.7 153 976.3 155 988.2 156L1000 157L1000 209L988.2 209C976.3 209 952.7 209 928.8 209C905 209 881 209 857.2 209C833.3 209 809.7 209 785.8 209C762 209 738 209 714.2 209C690.3 209 666.7 209 642.8 209C619 209 595 209 571.2 209C547.3 209 523.7 209 500 209C476.3 209 452.7 209 428.8 209C405 209 381 209 357.2 209C333.3 209 309.7 209 285.8 209C262 209 238 209 214.2 209C190.3 209 166.7 209 142.8 209C119 209 95 209 71.2 209C47.3 209 23.7 209 11.8 209L0 209Z" fill="#824012"></path><path d="M0 169L11.8 170.2C23.7 171.3 47.3 173.7 71.2 175.7C95 177.7 119 179.3 142.8 179.3C166.7 179.3 190.3 177.7 214.2 179.5C238 181.3 262 186.7 285.8 188.7C309.7 190.7 333.3 189.3 357.2 186.8C381 184.3 405 180.7 428.8 179.5C452.7 178.3 476.3 179.7 500 182.3C523.7 185 547.3 189 571.2 186.7C595 184.3 619 175.7 642.8 172.5C666.7 169.3 690.3 171.7 714.2 176.5C738 181.3 762 188.7 785.8 190.5C809.7 192.3 833.3 188.7 857.2 185.7C881 182.7 905 180.3 928.8 181.7C952.7 183 976.3 188 988.2 190.5L1000 193L1000 209L988.2 209C976.3 209 952.7 209 928.8 209C905 209 881 209 857.2 209C833.3 209 809.7 209 785.8 209C762 209 738 209 714.2 209C690.3 209 666.7 209 642.8 209C619 209 595 209 571.2 209C547.3 209 523.7 209 500 209C476.3 209 452.7 209 428.8 209C405 209 381 209 357.2 209C333.3 209 309.7 209 285.8 209C262 209 238 209 214.2 209C190.3 209 166.7 209 142.8 209C119 209 95 209 71.2 209C47.3 209 23.7 209 11.8 209L0 209Z" fill="#914814"></path></svg>