<?xml version="1.0" encoding="UTF-8"?>
<svg id="uuid-2d308825-5ea1-4c4a-86ef-56432885db0c" data-name="Cinnamon" xmlns="http://www.w3.org/2000/svg" viewBox="0 0 620.953 621.091">
  <defs>
    <style>
      .uuid-bb813d8f-b078-4940-a76f-decdc8068d3f {
        fill: #52290b;
      }

      .uuid-bb813d8f-b078-4940-a76f-decdc8068d3f, .uuid-00dffa1f-c3f9-40c8-8221-b94541e61261 {
        stroke: #000;
        stroke-miterlimit: 10;
        stroke-width: 11px;
      }

      .uuid-00dffa1f-c3f9-40c8-8221-b94541e61261 {
        fill: #914814;
      }
    </style>
  </defs>
  <polygon id="uuid-8487d951-16f5-4db7-a783-24d4d41df16d" data-name="The Baguette of Cinnamon" class="uuid-00dffa1f-c3f9-40c8-8221-b94541e61261" points="21.358 513.426 486.577 42.551 570.888 127.888 105.669 598.762 21.358 513.426"/>
  <path id="uuid-fb7f038d-79b6-48a0-9487-10c2c17368c6" data-name="Far End" class="uuid-00dffa1f-c3f9-40c8-8221-b94541e61261" d="m564.469,134.372c38.556-37.4,52.991-56.826,50.762-72.632-2.06-14.604-18.205-25.681-30.935-25.681-2.807,0-5.732-.384-5.732-2.975,0-3.027-2.896-17.465-14.354-24.012-31.853-18.201-83.167,39.098-83.167,39.098"/>
  <rect id="uuid-49beaa01-f1fa-42c4-afd7-e343eedc045c" data-name="Political Correctness Enforcer" x="479.346" y="49.233" width="5.95" height="2.45" transform="translate(176.948 -326.274) rotate(45)"/>
  <path id="uuid-9ae291e2-05ba-4571-9fa0-d23817e1e922" data-name="Top End Curve" class="uuid-bb813d8f-b078-4940-a76f-decdc8068d3f" d="m12.502,521.821c14.941-15.123,32.548-19.398,38.092-19.398,36.665,0,38.61,25.287,24.223,39.849-2.167,2.193-1.014,1.175,1.311-.734,9.836-8.076,40.608-10.119,40.608,27.126,0,7.911.617,18.323-19.152,38.333"/>
  <path id="uuid-528d2409-7be4-4a91-a24e-e76a3ff5b72c" data-name="Bottom End Curve" class="uuid-bb813d8f-b078-4940-a76f-decdc8068d3f" d="m12.502,521.821c-14.362,14.362-5.339,48.322,15.326,67.496,22.942,21.287,50.788,36.648,69.756,17.68"/>
  <path id="uuid-924ce8fc-9275-4c2a-8144-ee96a59d142b" data-name="Curl Right" class="uuid-bb813d8f-b078-4940-a76f-decdc8068d3f" d="m74.438,542.877c-7.413,7.111-14.858,14.256-21.112,22.409-2.535,3.305-4.933,6.929-5.529,11.055-1.062,7.341,4.215,14.624,11.079,17.411,6.863,2.786,14.797,1.727,21.61-1.181,3.017-1.288,5.935-2.962,8.147-5.388s3.656-5.686,3.377-8.959c-.453-5.326-5.113-9.254-9.743-11.912-1.92-1.102-4.025-2.127-6.234-1.988-2.905.183-5.29,2.318-7.206,4.512-1.345,1.541-2.613,3.215-3.234,5.165s-.504,4.234.741,5.857c1.245,1.623,5.908,1.139,7.591-.022,0,0,4.08-2.204.181-.118"/>
  <path id="uuid-4cebf471-c786-41e8-87ce-3a4d6dabf69f" data-name="Curl Left" class="uuid-bb813d8f-b078-4940-a76f-decdc8068d3f" d="m74.828,542.496c-7.111,6.932-14.256,13.893-22.409,19.74-3.305,2.371-6.929,4.612-11.055,5.17-7.341.993-14.624-3.941-17.411-10.359-2.786-6.417-1.727-13.836,1.181-20.206,1.288-2.821,2.962-5.55,5.388-7.618,2.425-2.068,5.686-3.419,8.959-3.158,5.326.424,9.254,4.781,11.912,9.11,1.102,1.796,2.127,3.764,1.988,5.829-.183,2.716-2.318,4.946-4.512,6.738-1.541,1.258-3.215,2.443-5.165,3.024-1.95.581-4.234.471-5.857-.693-1.623-1.164-1.139-5.524.022-7.098,0,0,2.204-3.815.118-.169"/>
  <rect id="uuid-ebcfb8d1-28cc-4a88-9ab9-274c66f92a2e" data-name="Center Line" class="uuid-bb813d8f-b078-4940-a76f-decdc8068d3f" x="328.816" y="-66.257" width=".008" height="709" transform="translate(300.128 -148.087) rotate(45)"/>
</svg>