<?xml version="1.0" standalone="no"?>
<!DOCTYPE svg PUBLIC "-//W3C//DTD SVG 20010904//EN"
 "http://www.w3.org/TR/2001/REC-SVG-20010904/DTD/svg10.dtd">
<svg version="1.0" xmlns="http://www.w3.org/2000/svg"
 width="4096.000000pt" height="4096.000000pt" viewBox="0 0 4096.000000 4096.000000"
 preserveAspectRatio="xMidYMid meet">
<metadata>
Created by potrace 1.14, written by Peter Selinger 2001-2017
</metadata>
<g transform="translate(0.000000,4096.000000) scale(0.100000,-0.100000)"
fill="#000000" stroke="none">
<path d="M20037 38904 c-2 -2 -90 -6 -197 -9 -270 -9 -357 -13 -610 -30 -30
-2 -55 -4 -55 -4 0 -1 -38 -4 -85 -6 -47 -2 -110 -7 -140 -10 -30 -3 -84 -7
-120 -10 -36 -3 -85 -7 -110 -10 -25 -3 -70 -8 -100 -11 -30 -3 -73 -7 -95 -9
-22 -3 -67 -7 -100 -10 -33 -3 -76 -8 -95 -11 -19 -3 -53 -7 -75 -9 -44 -5
-116 -14 -155 -19 -14 -2 -52 -7 -85 -11 -33 -4 -69 -9 -80 -11 -11 -3 -42 -7
-70 -9 -27 -2 -50 -5 -50 -5 0 -3 -41 -10 -75 -14 -19 -2 -35 -5 -35 -6 0 -1
-9 -3 -20 -4 -11 -2 -45 -7 -75 -11 -30 -5 -64 -9 -75 -11 -11 -1 -35 -4 -52
-8 -18 -3 -48 -8 -65 -11 -18 -3 -45 -8 -60 -11 -15 -3 -42 -8 -60 -10 -49 -8
-59 -10 -98 -17 -63 -13 -95 -18 -125 -22 -16 -2 -41 -7 -55 -10 -14 -3 -59
-12 -100 -20 -41 -8 -86 -17 -100 -21 -14 -3 -36 -7 -50 -10 -14 -3 -34 -8
-45 -11 -11 -4 -33 -8 -50 -9 -16 -1 -37 -4 -45 -7 -8 -4 -28 -9 -45 -12 -47
-9 -72 -15 -144 -31 -36 -9 -75 -17 -86 -19 -11 -1 -27 -5 -35 -8 -15 -5 -93
-23 -138 -32 -13 -2 -32 -7 -42 -10 -10 -3 -27 -8 -37 -10 -10 -2 -81 -20
-157 -39 -76 -20 -153 -39 -169 -42 -17 -2 -34 -7 -39 -10 -4 -3 -33 -12 -63
-20 -30 -7 -81 -21 -112 -30 -32 -8 -65 -17 -73 -19 -8 -2 -15 -4 -15 -5 0 -1
-7 -3 -15 -5 -29 -7 -56 -15 -125 -35 -38 -12 -74 -23 -80 -24 -62 -16 -103
-28 -115 -33 -8 -3 -19 -7 -25 -9 -5 -1 -48 -14 -95 -29 -47 -15 -89 -28 -95
-29 -5 -2 -17 -6 -25 -9 -8 -3 -33 -11 -55 -17 -22 -6 -47 -14 -55 -17 -8 -4
-17 -7 -20 -8 -3 0 -23 -7 -45 -14 -58 -18 -64 -20 -73 -22 -4 -1 -34 -12 -67
-24 -33 -13 -107 -39 -165 -58 -58 -20 -129 -45 -157 -56 -29 -10 -53 -17 -53
-15 0 2 -12 -4 -27 -13 -15 -10 -29 -16 -30 -15 -2 2 -27 -5 -56 -16 -29 -11
-119 -46 -202 -77 -82 -31 -163 -62 -180 -69 -48 -21 -150 -61 -155 -61 -3 0
-10 -4 -17 -8 -6 -4 -40 -18 -75 -31 -35 -13 -88 -35 -118 -49 -30 -13 -72
-31 -92 -38 -21 -7 -38 -16 -38 -19 0 -4 -6 -7 -12 -7 -7 0 -40 -12 -73 -27
-76 -34 -89 -40 -150 -67 -67 -29 -189 -85 -385 -176 -47 -22 -87 -41 -90 -41
-14 -4 -587 -295 -597 -304 -7 -6 -13 -7 -13 -3 0 5 -8 1 -18 -8 -9 -8 -28
-21 -42 -27 -14 -6 -70 -35 -125 -65 -55 -31 -111 -61 -125 -67 -14 -7 -27
-15 -30 -18 -3 -3 -30 -18 -60 -34 -30 -16 -58 -34 -62 -40 -4 -6 -8 -8 -8 -4
0 4 -51 -22 -112 -59 -62 -36 -138 -79 -168 -96 -30 -17 -56 -34 -58 -39 -2
-4 -8 -8 -13 -8 -5 0 -28 -12 -52 -27 -23 -15 -53 -33 -67 -40 -29 -15 -53
-30 -97 -60 -17 -13 -34 -23 -37 -23 -9 0 -171 -104 -174 -112 -2 -5 -8 -8
-13 -8 -6 0 -37 -18 -70 -40 -33 -22 -65 -40 -70 -40 -5 0 -9 -3 -9 -8 0 -4
-20 -18 -45 -32 -25 -14 -45 -27 -45 -30 0 -3 -13 -11 -28 -18 -16 -6 -38 -21
-50 -32 -12 -11 -24 -20 -27 -20 -4 0 -21 -11 -39 -25 -18 -14 -38 -25 -44
-25 -7 0 -12 -3 -12 -8 0 -4 -16 -16 -35 -26 -19 -11 -35 -23 -35 -27 0 -4
-10 -11 -22 -15 -12 -3 -33 -17 -47 -30 -14 -13 -31 -24 -38 -24 -6 0 -13 -4
-15 -8 -1 -4 -32 -28 -68 -52 -36 -25 -66 -48 -68 -52 -2 -5 -8 -8 -13 -8 -11
0 -122 -81 -127 -92 -2 -5 -8 -8 -13 -8 -6 0 -15 -5 -22 -10 -7 -6 -30 -24
-52 -40 -22 -16 -44 -33 -50 -38 -5 -4 -38 -28 -72 -52 -35 -24 -63 -48 -63
-52 0 -4 -7 -8 -15 -8 -8 0 -15 -4 -15 -10 0 -5 -5 -10 -11 -10 -7 0 -20 -9
-30 -21 -9 -11 -19 -19 -21 -17 -2 2 -10 -3 -18 -10 -55 -46 -78 -65 -103 -80
-15 -9 -27 -20 -27 -24 0 -4 -6 -8 -14 -8 -8 0 -16 -3 -18 -8 -1 -4 -25 -25
-53 -47 -27 -22 -55 -44 -61 -50 -7 -5 -24 -19 -40 -30 -25 -18 -109 -86 -194
-156 -102 -83 -135 -113 -138 -120 -2 -5 -8 -9 -14 -9 -5 0 -15 -6 -22 -12 -8
-7 -37 -33 -66 -58 -29 -25 -58 -50 -64 -56 -6 -5 -37 -31 -68 -56 -31 -25
-54 -49 -51 -52 4 -3 1 -6 -4 -6 -12 0 -36 -19 -108 -85 -24 -22 -69 -62 -101
-90 -31 -27 -76 -68 -100 -90 -23 -22 -80 -74 -125 -115 -45 -41 -109 -101
-141 -133 -32 -31 -58 -55 -58 -53 0 2 -125 -120 -277 -273 -269 -268 -406
-408 -583 -601 -47 -51 -102 -111 -122 -132 -20 -22 -58 -65 -85 -96 -26 -31
-61 -71 -78 -89 -16 -18 -37 -41 -45 -50 -36 -42 -89 -104 -135 -158 -27 -32
-61 -71 -75 -87 -14 -15 -36 -42 -50 -60 -14 -18 -36 -45 -50 -60 -31 -35 -37
-42 -86 -103 -21 -27 -47 -59 -56 -70 -9 -11 -39 -47 -65 -81 -97 -122 -108
-137 -123 -154 -8 -10 -24 -31 -35 -46 -17 -22 -67 -86 -128 -164 -7 -8 -23
-31 -37 -50 -13 -19 -28 -39 -32 -45 -24 -31 -95 -126 -108 -145 -8 -12 -20
-28 -25 -34 -6 -6 -46 -60 -88 -121 -43 -60 -84 -118 -92 -128 -8 -9 -15 -21
-15 -25 0 -4 -11 -20 -25 -35 -14 -15 -22 -27 -18 -27 4 0 0 -5 -9 -11 -10 -5
-18 -17 -18 -24 0 -8 -4 -15 -9 -15 -5 0 -14 -13 -21 -30 -7 -16 -16 -30 -21
-30 -5 0 -9 -5 -9 -10 0 -6 -9 -20 -20 -32 -11 -12 -20 -28 -20 -35 0 -7 -4
-13 -9 -13 -7 0 -75 -101 -72 -108 1 -1 -10 -15 -24 -30 -14 -15 -25 -31 -25
-37 0 -5 -11 -23 -25 -39 -14 -16 -25 -35 -25 -43 0 -7 -4 -13 -8 -13 -5 0
-15 -12 -23 -27 -8 -16 -16 -30 -19 -33 -3 -3 -21 -30 -40 -60 -19 -30 -38
-58 -43 -61 -5 -3 -9 -10 -9 -15 -1 -5 -23 -43 -49 -84 -27 -41 -48 -79 -48
-84 0 -5 -3 -12 -8 -15 -5 -3 -27 -35 -49 -71 -21 -36 -42 -66 -46 -68 -5 -2
-8 -7 -8 -12 0 -5 -20 -41 -44 -82 -25 -40 -57 -95 -72 -123 -14 -27 -32 -53
-38 -57 -6 -4 -7 -8 -2 -8 5 0 2 -7 -5 -16 -15 -18 -29 -42 -55 -94 -10 -19
-20 -37 -23 -40 -9 -8 -51 -83 -64 -112 -6 -16 -15 -28 -19 -28 -4 0 -8 -5 -8
-10 0 -6 -40 -84 -89 -173 -50 -90 -96 -176 -103 -193 -7 -16 -15 -31 -18 -34
-12 -11 -260 -511 -260 -525 0 -8 -4 -15 -10 -15 -5 0 -10 -4 -10 -9 0 -5 -29
-70 -64 -143 -103 -214 -146 -310 -146 -324 0 -8 -5 -14 -12 -14 -6 0 -9 -3
-5 -6 3 -4 -5 -26 -18 -50 -14 -24 -23 -44 -20 -44 2 0 -6 -21 -19 -47 -13
-27 -40 -88 -61 -138 -20 -49 -41 -99 -46 -110 -38 -85 -129 -312 -129 -322 0
-7 -5 -13 -11 -13 -5 0 -8 -4 -5 -8 3 -5 -6 -32 -19 -60 -13 -29 -22 -52 -20
-52 2 0 -2 -12 -10 -27 -8 -15 -12 -30 -9 -35 3 -4 0 -8 -6 -8 -7 0 -10 -6 -7
-14 3 -8 1 -16 -5 -18 -6 -2 -13 -15 -15 -27 -2 -13 -10 -38 -17 -55 -18 -40
-31 -79 -28 -88 1 -5 -2 -8 -6 -8 -4 0 -14 -21 -21 -47 -8 -27 -18 -55 -22
-63 -8 -17 -21 -50 -24 -65 -2 -8 -71 -207 -136 -390 -28 -79 -61 -182 -65
-204 -3 -14 -8 -29 -12 -35 -3 -6 -7 -16 -8 -21 -1 -6 -19 -64 -40 -130 -20
-66 -38 -129 -39 -139 -1 -11 -7 -22 -14 -24 -6 -2 -9 -7 -6 -12 3 -4 -5 -39
-17 -77 -12 -37 -23 -77 -25 -88 -2 -11 -8 -31 -13 -45 -5 -14 -11 -34 -13
-45 -2 -11 -6 -27 -10 -35 -5 -15 -35 -125 -42 -158 -7 -32 -47 -177 -52 -192
-3 -8 -7 -22 -8 -30 -1 -8 -12 -53 -25 -100 -12 -47 -24 -93 -26 -102 -2 -10
-6 -28 -10 -40 -3 -13 -7 -34 -10 -48 -3 -14 -7 -32 -9 -40 -2 -8 -4 -15 -5
-15 -1 0 -3 -9 -5 -20 -3 -27 -9 -51 -40 -180 -30 -126 -33 -139 -40 -180 -2
-16 -25 -128 -49 -248 -25 -119 -47 -232 -50 -250 -3 -17 -8 -43 -11 -57 -2
-13 -7 -40 -10 -60 -3 -20 -8 -47 -11 -60 -2 -14 -6 -36 -9 -50 -2 -14 -6 -43
-10 -65 -3 -22 -9 -48 -11 -58 -3 -10 -7 -37 -10 -60 -2 -23 -6 -53 -9 -67 -4
-14 -8 -41 -10 -60 -11 -94 -16 -123 -21 -131 -3 -5 -7 -32 -9 -61 -2 -29 -6
-67 -9 -84 -10 -54 -17 -108 -21 -159 -2 -27 -6 -57 -9 -65 -3 -8 -8 -42 -11
-75 -3 -33 -8 -73 -10 -90 -4 -34 -15 -136 -19 -180 -5 -58 -17 -170 -21 -205
-5 -41 -12 -118 -20 -215 -3 -38 -8 -97 -11 -130 -5 -60 -13 -182 -18 -286 -2
-31 -6 -61 -10 -68 -4 -6 -2 -11 4 -11 6 0 8 -4 5 -10 -6 -9 -8 -49 -22 -335
-10 -218 -9 -1217 1 -1445 4 -102 10 -225 12 -275 2 -49 6 -117 8 -150 8 -96
16 -215 21 -290 2 -38 7 -97 9 -130 12 -133 15 -162 21 -215 3 -30 7 -75 10
-100 12 -115 16 -143 20 -151 3 -4 1 -11 -5 -14 -7 -4 -7 -11 -2 -18 5 -7 9
-19 10 -27 0 -25 11 -118 18 -152 3 -18 6 -52 6 -75 1 -24 4 -43 7 -43 3 0 7
-21 8 -48 1 -26 7 -76 13 -112 5 -36 13 -85 16 -110 4 -25 8 -54 9 -65 2 -11
6 -40 9 -65 3 -25 9 -58 12 -75 7 -31 10 -49 19 -125 3 -25 8 -56 12 -70 3
-14 7 -35 9 -46 5 -45 15 -100 19 -114 2 -8 6 -31 9 -50 5 -32 17 -97 31 -175
3 -16 8 -41 11 -55 4 -14 8 -36 10 -50 2 -20 13 -77 19 -100 2 -11 17 -87 21
-110 3 -14 7 -33 10 -42 3 -9 7 -27 9 -40 3 -13 9 -48 15 -78 6 -30 15 -71 20
-90 5 -19 23 -98 40 -175 18 -77 45 -192 61 -255 16 -63 31 -126 34 -139 2
-13 9 -38 14 -55 6 -17 12 -42 15 -56 2 -14 11 -50 21 -80 9 -30 18 -66 21
-80 2 -14 8 -36 13 -50 5 -14 14 -43 20 -65 31 -113 73 -262 78 -275 3 -8 8
-24 10 -35 6 -27 9 -37 16 -55 3 -8 13 -40 22 -70 43 -145 68 -227 76 -245 4
-11 24 -69 43 -130 19 -60 49 -150 67 -200 17 -49 32 -94 34 -100 1 -5 5 -17
8 -25 4 -8 27 -72 51 -141 24 -70 50 -137 57 -150 7 -13 11 -25 10 -27 -3 -3
7 -30 61 -169 13 -32 23 -60 23 -63 1 -3 9 -22 18 -44 9 -21 17 -44 17 -52 0
-7 4 -15 9 -18 5 -3 12 -18 16 -33 3 -16 13 -41 20 -58 7 -16 41 -97 74 -180
34 -82 72 -175 85 -205 14 -30 34 -77 46 -105 12 -27 29 -66 37 -85 8 -19 23
-53 34 -75 33 -72 72 -160 73 -165 1 -5 21 -49 113 -240 28 -58 53 -115 57
-128 4 -12 12 -22 18 -22 6 0 9 -3 5 -6 -3 -3 30 -77 74 -163 43 -87 79 -163
79 -168 0 -6 4 -13 8 -15 4 -2 30 -48 58 -103 28 -55 64 -125 81 -155 17 -30
48 -89 70 -130 22 -41 51 -95 65 -120 14 -25 40 -72 58 -105 18 -33 36 -64 40
-70 7 -10 25 -42 85 -150 15 -27 37 -66 49 -85 50 -78 86 -142 86 -151 0 -5 5
-9 10 -9 6 0 10 -7 10 -15 0 -8 4 -15 9 -15 5 0 12 -14 16 -30 4 -17 10 -30
14 -30 4 0 14 -12 22 -27 8 -16 18 -32 22 -38 21 -26 117 -187 117 -196 0 -5
5 -9 10 -9 6 0 10 -7 10 -15 0 -8 5 -15 10 -15 6 0 10 -4 10 -9 0 -6 13 -29
29 -53 88 -132 187 -284 190 -293 2 -5 7 -12 10 -15 4 -3 42 -58 85 -123 44
-66 85 -125 93 -132 7 -8 13 -17 13 -20 0 -10 73 -109 82 -113 5 -2 8 -10 8
-18 0 -8 7 -17 15 -20 8 -4 15 -10 15 -15 0 -13 55 -90 88 -125 7 -8 11 -14 7
-14 -4 0 0 -7 7 -15 7 -8 26 -31 41 -52 160 -217 192 -259 199 -268 4 -5 23
-29 40 -51 18 -23 40 -52 48 -64 8 -12 22 -30 30 -39 9 -9 29 -34 45 -56 16
-22 34 -47 42 -55 7 -8 24 -28 38 -44 14 -16 25 -32 25 -35 0 -3 15 -23 33
-43 17 -20 44 -52 59 -70 62 -77 252 -306 281 -339 18 -20 43 -49 56 -65 30
-36 149 -173 171 -195 8 -9 40 -45 70 -79 81 -92 159 -178 208 -229 24 -25 87
-93 140 -151 119 -128 658 -666 777 -775 48 -44 108 -100 134 -123 25 -24 82
-76 125 -115 44 -40 93 -85 110 -101 17 -15 51 -44 75 -65 24 -20 55 -47 70
-61 73 -67 111 -100 115 -100 3 0 15 -10 28 -23 13 -12 45 -40 72 -62 27 -22
62 -52 78 -68 16 -15 31 -27 35 -27 3 0 13 -8 22 -18 9 -9 32 -29 53 -44 20
-15 42 -33 50 -41 7 -7 49 -42 93 -77 44 -36 82 -68 83 -72 2 -5 8 -8 13 -8 8
0 33 -18 63 -46 6 -5 52 -41 101 -79 50 -38 95 -74 102 -80 36 -30 43 -35 52
-35 5 0 11 -4 13 -9 2 -8 116 -94 327 -248 13 -10 25 -17 27 -16 2 2 14 -7 27
-20 13 -12 32 -28 43 -35 32 -21 158 -110 171 -122 7 -5 16 -10 22 -10 5 0 11
-4 13 -8 2 -5 59 -46 128 -92 69 -47 130 -88 135 -93 6 -4 39 -26 75 -49 36
-23 67 -45 68 -50 2 -4 8 -8 13 -8 6 0 43 -22 84 -50 41 -27 79 -50 85 -50 5
0 10 -3 10 -8 0 -4 20 -18 45 -31 25 -13 45 -28 45 -32 0 -5 4 -9 10 -9 8 0
130 -73 345 -206 33 -21 63 -37 68 -36 4 1 7 -2 7 -8 0 -5 7 -10 15 -10 8 0
15 -5 15 -10 0 -6 3 -9 7 -8 5 1 53 -24 108 -56 55 -33 114 -66 130 -75 17 -9
32 -18 35 -21 3 -3 21 -13 40 -24 19 -10 73 -40 120 -66 145 -80 211 -115 335
-180 66 -34 126 -67 133 -72 6 -6 12 -7 12 -3 0 5 8 1 18 -7 22 -18 394 -203
404 -200 5 1 8 -2 8 -8 0 -5 4 -10 9 -10 9 0 80 -32 251 -113 36 -17 67 -31
70 -32 9 -2 124 -56 152 -71 15 -8 29 -14 30 -13 2 1 28 -10 58 -24 88 -41
189 -85 210 -92 3 -1 16 -6 30 -12 14 -6 54 -23 90 -37 36 -15 79 -33 95 -41
17 -7 107 -43 200 -80 94 -37 183 -73 200 -80 16 -8 33 -11 37 -9 4 3 8 0 8
-5 0 -6 5 -11 12 -11 11 0 200 -67 253 -90 25 -11 137 -51 150 -55 6 -1 17 -4
25 -8 28 -10 45 -14 51 -13 3 0 13 -5 22 -13 10 -7 17 -11 17 -8 0 3 24 -4 53
-15 28 -11 60 -21 70 -21 9 -1 17 -5 17 -9 0 -4 8 -8 18 -8 10 0 22 -3 26 -7
3 -4 13 -8 21 -9 19 -3 86 -24 110 -34 20 -9 236 -78 265 -85 8 -2 34 -10 58
-19 23 -8 42 -13 42 -11 0 2 29 -7 65 -20 36 -13 65 -21 65 -18 0 3 7 -1 17
-8 9 -8 18 -12 20 -10 3 3 216 -53 253 -67 8 -3 25 -7 37 -8 12 -2 31 -8 42
-13 11 -6 29 -11 40 -11 12 0 29 -4 39 -10 17 -9 183 -52 287 -74 6 -1 27 -8
48 -15 21 -7 41 -10 44 -7 4 3 11 2 17 -3 7 -6 23 -12 36 -14 14 -3 55 -12 91
-21 37 -8 78 -17 90 -20 84 -18 177 -39 269 -61 36 -9 79 -17 95 -19 17 -2 30
-5 30 -6 0 -1 7 -3 15 -5 44 -9 78 -16 105 -20 17 -3 40 -7 53 -10 12 -3 32
-7 45 -10 12 -3 63 -13 112 -21 96 -17 117 -21 125 -24 3 -1 8 -2 12 -1 4 0
29 -4 55 -9 27 -5 59 -12 73 -14 14 -3 36 -7 50 -10 14 -3 45 -8 70 -11 25 -3
54 -8 64 -11 11 -4 33 -8 50 -10 39 -4 103 -13 136 -20 14 -3 48 -7 75 -10 28
-2 59 -6 71 -9 12 -3 37 -7 58 -10 20 -3 53 -7 74 -10 20 -3 57 -8 82 -11 25
-3 56 -7 70 -10 14 -2 48 -6 75 -9 54 -6 119 -14 175 -22 19 -3 58 -6 85 -8
28 -1 66 -5 85 -8 45 -7 129 -16 205 -22 56 -5 109 -10 230 -20 28 -3 82 -7
120 -10 39 -2 115 -7 170 -11 55 -4 128 -7 162 -8 35 -1 63 -3 63 -6 0 -3 33
-5 73 -6 39 -1 171 -5 292 -9 473 -18 1637 -4 1675 20 6 3 10 1 10 -5 0 -6 5
-8 12 -3 7 4 29 8 48 9 156 8 368 22 438 29 28 3 78 7 110 10 109 10 167 15
207 20 22 3 67 8 100 11 118 11 131 12 175 18 25 3 65 8 90 11 25 3 61 7 80
10 19 4 53 8 75 9 34 3 112 14 230 31 17 3 80 12 140 21 143 20 121 17 345 55
150 25 170 28 200 34 14 3 39 8 55 10 17 3 55 10 85 16 30 7 62 13 70 14 8 2
17 4 20 5 3 1 8 2 12 1 10 -1 387 78 413 86 11 4 23 6 27 5 4 -1 43 7 87 18
44 11 84 19 88 19 4 -1 21 3 36 9 16 7 32 10 37 7 5 -3 11 -1 15 4 3 6 12 8
20 4 8 -3 15 -1 15 4 0 5 8 9 18 10 14 1 89 18 212 48 3 1 23 7 45 13 22 6 55
14 74 17 19 3 38 8 41 10 6 4 174 50 295 81 11 3 25 6 30 8 6 1 30 8 55 15 25
7 52 15 60 18 20 8 21 9 55 17 17 4 41 11 55 16 14 5 59 18 100 30 63 18 189
57 250 76 8 3 17 6 20 6 3 1 37 12 75 25 39 14 75 26 80 27 18 4 90 27 110 36
27 11 208 72 220 74 6 1 15 4 20 7 6 4 24 10 40 14 17 5 32 9 35 10 3 1 22 9
43 18 21 9 80 31 130 48 51 17 106 37 122 44 17 7 44 18 60 24 17 6 44 16 60
22 17 7 32 13 35 14 16 5 52 20 103 41 32 13 65 24 73 24 8 0 14 5 14 12 0 6
3 9 6 6 4 -5 99 31 224 85 14 5 27 11 30 12 5 2 31 13 113 47 29 12 56 25 62
30 5 4 14 8 21 8 6 0 42 14 80 32 38 17 71 32 74 33 9 3 53 22 110 48 30 14
78 35 105 47 28 12 87 40 132 61 46 22 87 39 93 39 5 0 10 5 10 10 0 6 3 9 8
8 4 0 33 11 65 25 31 15 58 26 60 24 1 -1 16 8 33 20 17 12 33 20 36 17 3 -2
11 2 18 11 7 8 17 15 22 15 14 0 262 124 266 132 2 5 11 8 21 8 9 0 21 4 26 9
6 5 54 32 108 60 84 44 157 83 317 167 19 11 36 22 38 27 2 4 8 7 13 7 9 0
210 110 219 119 3 4 19 13 35 21 17 8 42 22 56 32 14 10 29 15 33 11 3 -3 6
-1 6 5 0 7 5 12 10 12 6 0 16 5 23 10 11 10 111 70 392 236 44 26 82 50 85 54
3 4 16 13 30 20 14 7 61 36 105 65 44 28 116 75 160 103 44 28 85 56 92 62 7
5 16 10 22 10 5 0 11 3 13 8 2 4 44 34 93 66 50 32 92 63 93 68 2 4 8 8 13 8
10 0 110 69 120 83 3 5 9 8 13 8 6 -1 66 40 160 109 33 25 78 56 99 69 20 12
37 27 37 32 0 5 5 9 10 9 6 0 56 34 110 75 54 41 102 75 105 75 3 0 17 10 30
22 40 37 54 48 64 48 5 0 11 4 13 8 2 4 32 30 68 57 36 27 72 54 80 62 56 47
89 73 95 73 4 0 18 11 31 25 13 14 27 25 33 25 5 0 11 3 13 8 2 5 105 90 163
135 64 49 185 153 185 160 0 4 6 7 14 7 8 0 16 3 18 8 2 4 48 45 103 92 55 47
113 97 130 112 16 14 41 36 55 48 23 20 103 91 170 150 82 74 209 191 252 231
26 26 48 45 48 44 0 -12 608 592 785 780 66 70 139 147 163 171 23 24 42 46
42 48 0 2 22 27 48 54 26 27 70 76 98 107 27 32 65 75 84 95 20 21 51 56 69
79 18 22 47 56 65 74 17 19 49 55 71 82 22 26 45 53 50 59 6 6 35 40 64 75 29
35 58 70 64 77 7 6 21 24 32 40 11 15 27 35 36 43 8 9 31 36 50 61 18 25 43
55 54 66 11 12 27 31 35 44 14 20 25 34 68 85 10 11 46 58 82 105 36 47 67 87
70 90 3 3 32 41 65 85 33 44 65 86 72 93 7 7 13 17 13 20 0 4 10 19 23 32 12
14 38 48 57 75 19 28 38 55 43 60 8 9 167 231 195 272 7 10 28 41 48 68 20 28
52 75 72 105 20 30 40 60 45 65 27 32 386 588 423 655 10 19 25 39 32 43 6 4
12 12 12 17 0 6 20 42 45 82 25 40 45 78 45 85 0 7 4 13 9 13 5 0 21 25 37 55
16 30 32 55 37 55 4 0 7 5 7 10 0 6 19 41 41 78 23 37 42 73 42 80 0 6 3 12 6
12 3 0 17 21 31 48 13 26 27 49 30 52 3 3 14 21 23 40 19 37 39 72 47 80 3 3
21 38 40 77 19 40 39 73 43 73 5 0 6 4 3 9 -7 10 -3436 13 -3436 2 0 -5 -17
-27 -60 -78 -5 -7 -10 -17 -10 -23 0 -5 -4 -10 -10 -10 -5 0 -10 -6 -10 -14 0
-8 -3 -16 -7 -18 -5 -1 -24 -25 -43 -53 -19 -27 -38 -54 -42 -60 -5 -5 -51
-68 -103 -140 -52 -71 -104 -141 -115 -153 -11 -13 -20 -27 -20 -31 0 -3 -8
-14 -17 -22 -10 -9 -25 -26 -33 -38 -8 -13 -27 -37 -42 -55 -15 -17 -28 -37
-28 -43 0 -7 -4 -13 -8 -13 -4 0 -24 -21 -43 -47 -20 -27 -45 -59 -57 -73 -12
-14 -47 -56 -78 -95 -125 -155 -174 -214 -206 -247 -10 -10 -18 -20 -18 -23 0
-5 -20 -28 -100 -116 -46 -50 -60 -69 -60 -80 0 -5 -4 -7 -10 -4 -5 3 -10 2
-10 -2 0 -5 -15 -25 -32 -44 -18 -19 -53 -57 -76 -85 -70 -79 -213 -234 -264
-286 -27 -27 -48 -53 -48 -60 0 -6 -3 -9 -6 -6 -3 3 -26 -17 -52 -45 -70 -76
-427 -430 -534 -529 -51 -48 -120 -112 -153 -143 -33 -31 -82 -75 -109 -98
-27 -23 -60 -53 -75 -67 -14 -14 -60 -54 -101 -90 -41 -35 -82 -71 -91 -80 -9
-8 -27 -24 -40 -34 -13 -11 -40 -33 -60 -50 -19 -17 -57 -49 -84 -71 -27 -22
-57 -48 -67 -58 -10 -9 -20 -17 -23 -17 -3 0 -13 -8 -23 -18 -11 -9 -28 -24
-38 -32 -127 -102 -189 -151 -228 -180 -26 -19 -55 -42 -64 -51 -9 -8 -71 -55
-137 -105 -66 -49 -122 -91 -125 -94 -3 -3 -52 -39 -110 -80 -58 -41 -107 -77
-110 -80 -3 -3 -34 -25 -70 -50 -36 -24 -71 -50 -78 -57 -7 -7 -20 -13 -28
-13 -8 0 -14 -3 -14 -8 0 -4 -64 -50 -142 -102 -79 -52 -144 -98 -146 -102 -2
-5 -8 -8 -13 -8 -8 0 -159 -97 -186 -120 -7 -5 -15 -10 -18 -10 -7 0 -87 -52
-103 -68 -8 -7 -18 -10 -23 -7 -5 4 -9 2 -9 -4 0 -5 -20 -20 -45 -32 -25 -12
-54 -31 -65 -41 -11 -10 -20 -17 -20 -14 0 3 -39 -20 -86 -49 -47 -30 -99 -60
-115 -67 -16 -7 -29 -16 -29 -20 0 -5 -6 -8 -14 -8 -7 0 -19 -7 -26 -15 -7 -8
-16 -12 -21 -9 -5 3 -9 0 -9 -5 0 -6 -4 -11 -9 -11 -5 0 -47 -23 -94 -50 -47
-28 -88 -50 -92 -50 -4 0 -19 -8 -33 -19 -24 -17 -105 -60 -257 -140 -27 -14
-53 -30 -57 -36 -4 -5 -8 -7 -8 -2 0 4 -17 -3 -37 -16 -33 -21 -67 -37 -83
-39 -3 -1 -21 -11 -40 -23 -30 -19 -346 -177 -360 -180 -3 -1 -39 -18 -80 -37
-220 -104 -282 -132 -292 -130 -5 1 -8 -2 -8 -8 0 -5 -6 -10 -14 -10 -8 0 -48
-16 -89 -35 -41 -19 -80 -35 -86 -35 -6 0 -11 -5 -11 -11 0 -5 -4 -8 -8 -5 -5
3 -26 -3 -48 -13 -70 -33 -112 -51 -118 -51 -3 0 -31 -12 -63 -26 -32 -14 -67
-30 -78 -34 -43 -17 -90 -35 -95 -36 -3 0 -16 -5 -30 -12 -36 -16 -211 -84
-224 -87 -6 -1 -18 -5 -26 -8 -35 -14 -156 -59 -170 -62 -8 -3 -63 -22 -122
-43 -60 -22 -108 -37 -108 -34 0 2 -6 0 -13 -6 -7 -6 -24 -13 -37 -16 -14 -3
-59 -17 -100 -32 -41 -14 -79 -27 -85 -28 -5 -2 -17 -5 -25 -8 -8 -4 -69 -23
-135 -43 -66 -20 -132 -41 -147 -47 -15 -5 -31 -7 -37 -4 -5 3 -11 2 -13 -4
-1 -5 -12 -11 -23 -13 -21 -4 -99 -25 -125 -35 -15 -5 -26 -8 -52 -15 -7 -2
-33 -9 -58 -16 -25 -7 -53 -15 -62 -17 -25 -6 -37 -9 -186 -49 -73 -19 -138
-33 -143 -30 -5 4 -9 2 -9 -2 0 -7 -33 -17 -180 -50 -8 -2 -24 -5 -35 -8 -11
-2 -40 -9 -65 -16 -25 -6 -74 -18 -110 -25 -36 -8 -75 -16 -87 -19 -13 -3 -33
-7 -45 -9 -13 -3 -45 -9 -73 -15 -101 -21 -105 -22 -180 -37 -58 -11 -90 -16
-107 -17 -10 -1 -18 -5 -18 -10 0 -4 -3 -6 -8 -3 -4 2 -30 0 -57 -5 -28 -5
-61 -11 -75 -14 -14 -2 -68 -11 -120 -20 -52 -9 -108 -18 -125 -21 -36 -6 -64
-11 -125 -19 -25 -4 -56 -8 -70 -11 -14 -2 -47 -7 -75 -10 -27 -3 -56 -10 -62
-16 -9 -7 -13 -7 -13 1 0 7 -3 10 -8 7 -4 -2 -28 -7 -52 -10 -41 -6 -75 -11
-150 -21 -14 -2 -54 -7 -90 -10 -36 -4 -73 -9 -83 -11 -9 -1 -50 -6 -90 -9
-39 -3 -88 -8 -107 -10 -19 -3 -64 -6 -100 -9 -36 -2 -85 -7 -110 -10 -25 -3
-81 -8 -125 -11 -44 -3 -107 -8 -140 -11 -33 -2 -112 -7 -175 -10 -63 -3 -146
-7 -185 -9 -38 -3 -161 -6 -271 -9 -111 -2 -207 -6 -212 -10 -6 -3 -13 -3 -15
1 -3 5 -64 6 -137 3 -72 -3 -142 -2 -156 2 -13 3 -24 2 -24 -3 0 -6 -4 -8 -10
-4 -5 3 -125 8 -267 11 -142 3 -280 7 -308 9 -27 2 -104 6 -170 9 -66 4 -145
8 -175 11 -94 7 -233 17 -281 20 -25 1 -50 4 -55 7 -5 3 -28 4 -51 4 -24 -1
-43 1 -43 4 0 3 -17 5 -38 6 -75 2 -152 9 -152 14 0 3 -24 6 -53 7 -53 3 -104
8 -167 16 -19 3 -60 8 -90 12 -30 3 -62 8 -70 10 -8 2 -40 7 -70 10 -30 3 -66
8 -80 10 -73 11 -118 18 -140 21 -14 1 -40 5 -57 8 -18 4 -48 8 -65 11 -47 6
-110 17 -133 22 -11 2 -33 6 -50 8 -16 2 -30 4 -30 5 0 1 -13 3 -30 5 -16 1
-30 3 -30 4 0 2 -7 4 -15 6 -33 6 -115 21 -167 29 -16 3 -53 10 -83 16 -30 7
-64 13 -75 15 -11 2 -31 6 -45 10 -14 3 -40 8 -59 11 -19 3 -45 10 -59 15 -14
5 -27 7 -30 4 -3 -2 -11 0 -19 6 -7 6 -13 9 -13 6 0 -2 -28 2 -62 9 -35 8 -74
17 -88 20 -14 3 -43 10 -65 16 -22 5 -48 12 -58 14 -10 2 -26 5 -35 8 -9 3
-28 8 -42 10 -26 6 -90 21 -125 29 -11 3 -47 12 -80 21 -33 10 -73 19 -90 22
-16 3 -36 11 -42 16 -7 6 -13 8 -13 5 0 -3 -15 -1 -32 4 -18 6 -42 12 -53 14
-27 6 -164 45 -195 56 -21 7 -104 30 -120 34 -3 0 -38 11 -77 23 -40 12 -75
22 -78 22 -3 0 -21 6 -40 14 -20 9 -38 15 -40 15 -7 -1 -203 60 -230 71 -11 5
-83 30 -160 56 -77 26 -151 52 -165 57 -14 6 -30 11 -35 12 -19 4 -205 74
-335 126 -69 27 -128 49 -131 49 -4 0 -28 10 -55 22 -27 12 -51 23 -54 23 -7
2 -61 24 -85 34 -11 5 -36 16 -57 25 -20 9 -38 16 -41 16 -3 0 -36 14 -74 32
-37 17 -72 32 -78 33 -5 2 -37 15 -70 30 -33 15 -73 33 -90 40 -16 8 -75 35
-130 60 -55 26 -104 48 -110 49 -5 2 -48 21 -94 44 -46 23 -90 42 -97 42 -7 0
-14 3 -16 8 -2 4 -88 50 -193 102 -104 52 -216 109 -248 127 -31 17 -57 29
-57 26 0 -3 -6 -1 -12 5 -7 5 -34 22 -60 36 -27 14 -68 37 -93 51 -25 14 -65
36 -90 50 -25 14 -64 36 -87 49 -40 21 -64 35 -150 85 -78 44 -315 185 -338
200 -14 9 -37 23 -52 31 -16 7 -28 17 -28 22 0 4 -5 8 -10 8 -10 0 -122 68
-147 90 -7 5 -15 10 -17 10 -3 0 -38 22 -78 48 -40 27 -107 71 -148 97 -41 27
-76 52 -78 57 -2 4 -8 8 -13 8 -7 0 -95 56 -109 70 -3 3 -25 19 -50 35 -24 17
-78 54 -120 83 -41 30 -84 60 -95 68 -49 34 -190 139 -195 144 -3 3 -13 10
-22 15 -9 6 -68 49 -130 97 -156 119 -158 121 -179 140 -11 10 -22 18 -25 18
-3 0 -11 6 -18 12 -7 7 -31 27 -52 43 -21 17 -65 52 -99 80 -33 27 -64 53 -70
57 -5 4 -22 18 -37 30 -14 13 -35 30 -45 38 -79 64 -203 169 -226 192 -15 16
-31 28 -35 28 -5 0 -18 10 -29 22 -11 13 -49 48 -83 78 -59 51 -105 92 -184
163 -139 126 -320 301 -536 518 -258 259 -369 375 -550 579 -30 34 -62 69 -71
78 -19 20 -83 94 -154 176 -27 33 -55 64 -60 70 -6 6 -30 36 -55 66 -25 30
-47 57 -50 60 -3 3 -35 41 -70 85 -36 44 -67 82 -70 85 -15 14 -130 161 -130
165 0 3 -10 16 -22 29 -13 13 -30 33 -38 46 -8 12 -20 28 -26 34 -5 6 -67 88
-137 181 -70 94 -131 175 -135 180 -4 6 -35 48 -67 95 -33 47 -62 87 -65 90
-3 3 -34 48 -70 100 -35 52 -69 98 -74 102 -7 5 -7 8 -1 8 7 0 7 3 0 8 -12 8
-60 72 -66 87 -2 6 -52 83 -112 173 -59 89 -107 164 -107 167 0 2 -17 30 -39
62 -57 86 -121 194 -121 203 0 5 -4 10 -8 12 -8 3 -36 49 -85 138 -16 30 -36
62 -43 70 -7 8 -24 38 -38 65 -15 28 -31 57 -36 65 -42 66 -100 174 -100 186
0 8 -5 14 -11 14 -5 0 -8 4 -5 9 4 5 2 11 -3 13 -5 1 -30 44 -56 93 -26 50
-66 124 -88 165 -47 88 -230 456 -275 550 -105 224 -134 289 -136 300 -1 3 -6
12 -11 20 -5 8 -10 20 -11 25 -1 6 -18 45 -38 88 -20 42 -36 79 -36 82 0 3 -9
24 -19 48 -11 23 -43 98 -71 167 -28 69 -55 135 -60 148 -28 64 -52 130 -51
136 0 3 -7 21 -17 38 -11 18 -22 47 -27 63 -10 37 -9 34 -24 70 -6 17 -20 53
-30 80 -11 28 -22 59 -27 70 -4 11 -6 23 -6 28 1 4 -2 7 -6 7 -4 0 -9 10 -9
22 -1 13 -10 41 -19 63 -9 22 -20 49 -25 60 -8 22 -73 217 -74 225 -1 3 -9 30
-20 60 -11 30 -20 57 -20 60 -1 3 -4 12 -8 20 -7 19 -28 87 -31 103 -2 7 -6
19 -9 27 -8 20 -73 236 -98 325 -11 39 -22 79 -25 90 -3 11 -7 29 -7 40 -1 11
-5 22 -9 25 -4 3 -9 15 -11 25 -2 11 -7 27 -10 35 -3 8 -11 43 -18 77 -7 35
-17 63 -22 63 -4 0 -6 3 -4 8 3 4 -4 41 -15 82 -11 41 -21 82 -23 90 -1 8 -4
22 -7 30 -15 45 -131 564 -143 640 -3 19 -10 52 -16 73 -5 20 -7 42 -4 47 3 6
1 10 -6 10 -7 0 -10 2 -7 5 3 3 1 27 -4 53 -15 74 -16 82 -33 177 -18 103 -32
183 -41 239 -3 21 -8 48 -10 60 -2 11 -7 41 -10 66 -3 24 -8 56 -10 70 -2 14
-6 41 -8 60 -5 40 -14 106 -20 135 -2 11 -7 49 -11 85 -3 36 -8 76 -10 90 -4
25 -11 74 -20 148 -2 20 -7 69 -11 107 -3 39 -8 86 -10 105 -5 51 -12 126 -18
195 -3 33 -8 92 -11 130 -33 348 -63 1286 -43 1327 4 9 4 19 0 22 -4 2 -7 33
-6 68 2 35 6 158 9 273 9 302 15 441 30 625 2 30 7 96 11 145 10 139 13 170
14 170 1 0 3 18 5 40 3 52 14 170 20 215 2 19 7 60 10 90 5 54 9 81 20 166 3
23 7 59 10 80 2 21 6 53 9 70 3 18 8 52 11 75 7 55 14 109 19 134 2 11 7 49
12 85 4 36 8 67 9 70 1 5 14 79 21 120 2 14 6 34 8 45 2 11 7 40 12 65 4 25 8
47 9 50 0 3 4 27 9 53 4 27 10 59 12 70 3 12 7 36 9 52 3 17 7 39 9 50 3 11
17 79 31 150 14 72 30 146 35 165 5 19 11 53 14 74 3 22 9 42 13 45 4 3 8 17
8 31 0 14 10 63 22 110 20 73 27 102 37 155 1 6 5 16 9 23 5 6 6 12 4 12 -4 0
25 119 69 285 3 11 7 27 9 35 2 8 4 15 5 15 1 0 3 9 5 20 3 11 21 76 40 145
20 69 38 130 39 135 11 43 32 114 57 189 16 49 26 92 24 96 -3 5 -2 10 3 12 6
2 42 102 47 128 1 8 55 173 62 190 4 8 7 17 8 20 12 47 146 422 167 470 6 14
12 30 14 35 2 12 110 290 123 320 11 25 18 47 19 59 0 5 5 12 12 16 6 4 13 13
14 21 4 18 8 30 79 194 106 247 124 289 161 365 20 41 37 76 37 77 -3 18 296
611 434 863 32 58 73 134 93 170 19 36 39 67 43 68 5 2 9 12 9 23 0 10 4 19 9
19 5 0 11 8 14 18 6 17 37 73 47 82 3 3 11 16 18 30 7 14 23 43 37 65 14 22
30 52 37 68 7 15 16 27 20 27 4 0 8 5 8 10 0 6 18 37 39 70 22 32 42 68 46 79
3 12 10 21 14 21 5 0 14 14 21 30 7 17 16 30 21 30 5 0 8 3 7 8 -1 4 15 34 37
67 149 231 189 291 199 297 6 4 7 8 2 8 -5 0 -2 8 6 18 26 29 108 152 108 161
0 5 4 11 8 13 8 3 32 36 147 203 27 39 57 78 67 88 10 10 18 24 18 32 0 7 4
15 9 17 12 4 81 96 81 108 0 6 5 10 10 10 6 0 10 7 10 16 0 8 5 12 10 9 6 -3
10 -2 10 3 0 5 32 51 70 101 39 51 70 96 70 101 0 6 4 10 8 10 4 0 24 21 44
48 55 72 71 93 91 113 9 11 17 22 17 25 0 3 6 11 13 18 6 7 28 32 47 56 19 24
41 49 48 56 6 7 12 15 12 19 0 3 10 16 23 28 12 12 34 38 49 57 15 19 37 47
50 61 13 15 41 49 63 75 22 27 57 66 77 87 20 21 37 40 37 43 1 5 34 44 76 89
17 18 53 59 82 91 55 64 73 83 226 249 130 140 603 612 731 730 54 50 120 110
146 135 41 39 118 107 194 173 12 10 35 31 51 46 17 15 62 54 100 86 39 33 81
69 95 81 24 22 182 152 264 218 21 17 49 40 62 51 12 11 35 29 50 40 23 17 77
59 164 128 9 7 33 25 55 42 51 38 52 38 105 81 25 20 55 41 68 47 12 6 22 14
22 18 0 4 20 20 45 36 25 15 45 31 45 36 0 4 5 7 10 7 6 0 16 5 23 10 36 32
178 130 187 130 5 0 10 5 10 10 0 6 10 15 23 20 12 6 40 24 62 40 51 39 347
236 360 240 6 2 21 14 35 27 14 13 29 23 33 23 5 0 23 11 41 25 18 14 36 25
39 25 3 0 38 21 79 48 40 26 85 54 101 61 15 8 27 18 27 23 0 4 6 8 14 8 8 0
21 6 28 13 7 7 28 20 46 28 17 7 32 17 32 20 0 4 8 9 18 13 9 3 31 15 47 26
17 10 44 27 60 36 17 9 63 36 102 60 40 24 75 44 78 44 2 0 26 13 52 29 87 52
252 142 259 141 4 -1 10 2 13 7 3 4 33 22 66 38 33 17 62 32 65 35 3 3 68 37
145 75 77 39 142 73 143 78 2 4 12 7 23 7 10 0 19 5 19 10 0 6 5 10 11 10 6 0
75 31 153 69 77 38 164 79 191 91 28 12 82 37 120 55 39 17 88 40 110 49 22
10 58 26 80 36 107 49 156 70 160 70 2 0 29 11 59 25 30 14 57 25 59 25 3 0
22 8 43 17 22 9 41 17 44 18 8 3 42 16 89 36 24 11 50 19 57 19 8 0 14 5 14
10 0 6 6 10 14 10 12 0 212 73 301 110 11 5 43 16 70 25 28 9 62 23 78 32 15
8 27 11 27 8 0 -3 9 -1 21 5 11 6 28 13 37 16 9 2 132 42 272 90 140 47 264
87 274 90 11 2 54 15 95 28 64 21 110 35 176 52 8 2 79 23 165 49 8 2 33 9 55
15 22 6 49 13 60 16 11 3 27 7 35 9 8 2 17 4 20 5 3 1 10 3 15 4 19 4 70 18
85 23 8 3 24 8 35 10 11 2 38 8 60 14 22 6 47 12 55 14 12 3 155 37 255 61 11
3 34 8 50 11 45 8 60 11 63 13 2 3 2 3 57 15 22 4 47 10 55 12 8 1 30 5 48 8
18 2 36 6 40 9 4 2 23 7 42 10 19 3 46 8 60 11 23 6 35 8 100 19 14 3 25 5 25
6 0 1 11 3 25 6 55 9 76 13 101 18 14 3 41 8 60 10 19 3 34 5 34 6 0 1 12 3
27 5 16 2 38 7 50 11 13 4 39 8 58 10 19 1 53 6 75 10 22 4 52 8 68 8 15 1 27
4 27 7 0 3 6 6 13 6 17 1 142 17 207 27 19 3 53 8 75 11 22 3 49 7 60 9 29 5
141 19 250 31 28 3 68 7 90 10 59 7 132 15 200 20 82 7 125 14 138 22 6 4 7 1
2 -7 -5 -8 -4 -11 2 -7 5 3 41 9 79 12 38 3 87 8 109 10 22 2 92 7 155 10 63
4 131 9 150 11 75 7 375 17 577 18 117 0 213 3 213 6 0 3 17 4 37 3 84 -3 169
-4 178 -3 6 1 14 2 19 1 5 -1 115 -4 245 -7 292 -6 496 -15 676 -29 33 -2 98
-7 145 -11 47 -3 101 -8 120 -10 19 -2 62 -6 95 -9 33 -3 89 -8 125 -11 36 -4
81 -8 100 -10 37 -3 102 -10 160 -18 19 -3 60 -7 90 -10 99 -11 187 -23 230
-31 14 -3 49 -7 77 -9 29 -3 56 -7 60 -9 11 -6 113 -20 141 -18 12 0 22 -3 22
-7 0 -4 12 -7 28 -8 25 -1 101 -11 147 -20 11 -2 34 -6 50 -9 17 -3 55 -10 85
-17 30 -6 64 -12 75 -13 11 -1 20 -3 20 -4 0 -1 16 -4 35 -7 31 -3 73 -11 160
-29 47 -9 175 -35 200 -41 14 -3 36 -7 50 -10 14 -2 32 -7 40 -10 8 -3 26 -8
40 -10 27 -5 129 -26 145 -30 6 -2 20 -5 33 -8 13 -3 31 -7 40 -10 9 -3 28 -8
42 -11 38 -8 138 -33 205 -50 33 -9 67 -17 75 -19 8 -2 51 -14 95 -26 44 -12
91 -24 105 -27 14 -2 32 -7 40 -10 8 -3 20 -7 25 -8 6 -2 36 -10 67 -19 31
-10 70 -19 85 -22 15 -3 32 -9 38 -15 5 -5 17 -9 26 -9 9 0 61 -14 115 -31
177 -55 588 -189 609 -198 11 -5 49 -19 85 -31 36 -12 74 -26 85 -30 62 -25
135 -52 146 -54 8 -2 28 -9 44 -16 42 -18 121 -48 180 -69 28 -10 95 -37 150
-61 55 -23 107 -43 115 -45 8 -2 34 -13 57 -24 23 -12 49 -21 58 -21 8 0 15
-4 15 -10 0 -5 5 -10 11 -10 14 0 214 -86 389 -167 152 -70 179 -83 405 -194
127 -62 233 -117 237 -123 4 -6 8 -7 8 -2 0 5 6 4 13 -1 6 -6 71 -41 142 -78
72 -38 144 -76 160 -85 17 -9 57 -32 90 -50 33 -18 74 -40 90 -50 17 -10 50
-29 75 -42 87 -49 195 -112 200 -117 4 -5 21 -15 95 -55 10 -6 25 -17 33 -23
7 -7 20 -13 28 -13 8 0 14 -4 14 -10 0 -5 5 -10 11 -10 6 0 30 -13 54 -30 24
-16 48 -30 54 -30 6 0 11 -4 11 -10 0 -5 5 -10 10 -10 6 0 32 -14 58 -31 26
-17 151 -99 277 -181 127 -83 232 -154 233 -159 2 -5 8 -9 13 -9 9 0 66 -37
79 -50 3 -3 34 -25 70 -49 36 -24 67 -47 70 -50 11 -13 70 -51 79 -51 5 0 11
-4 13 -8 2 -4 50 -42 108 -85 58 -43 112 -83 120 -90 9 -6 48 -37 88 -66 39
-30 72 -59 72 -64 0 -4 4 -6 8 -3 5 3 23 -8 40 -23 17 -16 46 -39 64 -52 18
-13 35 -26 38 -29 3 -3 28 -23 55 -45 28 -21 52 -42 55 -45 3 -3 21 -17 40
-31 19 -15 46 -37 60 -49 14 -12 40 -34 59 -48 18 -15 41 -34 51 -42 10 -8 39
-33 66 -55 26 -22 61 -52 76 -67 15 -15 28 -25 28 -23 0 2 12 -7 28 -22 15
-14 49 -44 75 -67 27 -22 63 -54 81 -71 18 -16 68 -61 111 -100 190 -171 288
-264 522 -496 218 -215 390 -393 508 -524 39 -43 88 -97 110 -120 22 -24 51
-56 65 -72 14 -16 54 -62 90 -103 36 -41 73 -84 82 -95 10 -11 31 -34 47 -52
16 -17 35 -40 42 -51 12 -17 87 -106 114 -136 6 -6 26 -31 45 -56 19 -25 43
-54 53 -65 10 -11 37 -45 60 -75 23 -30 44 -57 47 -60 3 -3 21 -25 40 -50 19
-25 39 -50 45 -57 20 -22 116 -150 224 -298 61 -82 114 -154 119 -160 4 -5 38
-54 76 -108 37 -53 74 -104 83 -112 8 -8 12 -15 8 -15 -4 0 0 -6 8 -14 11 -12
272 -14 1730 -14 l1717 0 -23 42 c-12 22 -26 44 -32 48 -5 4 -6 8 -1 8 5 0 4
6 -1 13 -9 10 -28 44 -77 132 -10 17 -150 261 -176 305 -5 8 -82 135 -172 283
-90 147 -167 276 -173 287 -5 11 -13 20 -17 20 -5 0 -8 7 -8 15 0 8 -3 15 -8
15 -4 0 -18 20 -32 45 -14 25 -29 45 -34 45 -5 0 -6 3 -3 7 4 3 1 13 -6 22 -8
9 -79 113 -158 231 -79 118 -147 217 -151 218 -5 2 -8 10 -8 18 0 8 -4 14 -8
14 -5 0 -18 18 -31 40 -12 22 -26 40 -32 40 -5 0 -9 4 -9 10 0 11 -101 153
-112 158 -5 2 -8 10 -8 18 0 8 -4 14 -8 14 -4 0 -16 15 -27 33 -10 17 -29 43
-42 57 -13 14 -23 28 -23 32 0 3 -6 13 -13 20 -7 7 -59 75 -115 150 -56 75
-108 143 -115 150 -6 7 -41 51 -77 98 -72 95 -73 96 -99 128 -11 13 -34 42
-53 65 -18 23 -45 55 -60 70 -15 15 -28 31 -29 35 0 4 -18 27 -39 52 -21 25
-79 95 -130 155 -51 61 -100 117 -109 127 -9 9 -34 38 -56 64 -56 67 -168 194
-330 372 -208 230 -588 619 -841 862 -119 114 -336 317 -370 347 -35 30 -166
147 -188 168 -30 27 -156 137 -185 161 -13 10 -36 30 -51 44 -23 21 -82 71
-153 130 -33 27 -61 51 -92 78 -17 15 -48 40 -70 57 -22 16 -44 34 -50 40 -5
7 -30 27 -55 46 -25 18 -47 36 -50 39 -3 3 -23 19 -45 36 -22 16 -44 34 -50
40 -5 6 -43 35 -82 65 -40 29 -73 57 -73 61 0 5 -7 8 -15 8 -8 0 -15 3 -15 8
0 4 -17 18 -38 32 -20 14 -39 27 -42 30 -3 3 -23 18 -45 35 -22 16 -45 34 -52
40 -36 30 -41 33 -47 28 -3 -4 -6 -2 -6 4 0 6 -17 22 -37 36 -21 14 -47 32
-58 41 -60 47 -116 86 -124 86 -5 0 -11 3 -13 8 -4 9 -121 95 -186 137 -9 6
-22 15 -29 20 -7 6 -18 15 -25 20 -7 6 -114 78 -238 160 -124 83 -226 153
-228 158 -2 4 -8 7 -14 7 -6 0 -31 15 -57 33 -25 18 -68 46 -96 62 -27 16 -52
32 -55 35 -5 7 -176 112 -228 140 -15 8 -29 17 -32 20 -6 6 -159 99 -212 128
-20 12 -55 32 -77 46 -22 15 -43 26 -46 26 -3 0 -31 16 -61 35 -30 19 -60 36
-67 38 -7 1 -14 5 -17 8 -3 4 -23 16 -45 28 -22 12 -58 32 -80 45 -22 12 -74
41 -115 63 -41 22 -95 52 -120 65 -39 22 -227 121 -330 173 -19 10 -42 22 -50
26 -56 29 -221 109 -225 109 -3 -1 -13 6 -21 15 -9 8 -19 13 -24 10 -4 -3 -13
2 -20 10 -7 8 -17 15 -22 15 -6 0 -62 25 -126 56 -65 31 -142 68 -172 81 -30
14 -84 38 -120 55 -99 45 -97 44 -227 102 -67 30 -124 51 -127 48 -3 -3 -6 0
-6 6 0 7 -8 12 -18 12 -10 0 -22 4 -28 8 -5 5 -40 21 -79 37 -38 15 -83 34
-100 41 -119 51 -175 72 -175 67 0 -3 -9 2 -21 13 -12 10 -23 17 -25 15 -5 -3
-39 9 -99 34 -16 7 -41 16 -55 20 -14 4 -43 16 -65 25 -48 22 -261 101 -278
104 -7 1 -21 7 -32 13 -23 12 -76 27 -87 25 -5 -1 -8 2 -8 7 0 5 -15 13 -32
17 -41 10 -40 9 -58 17 -24 10 -365 125 -470 158 -52 17 -144 46 -205 65 -60
19 -120 37 -132 40 -12 2 -35 9 -50 15 -16 7 -37 13 -48 15 -11 2 -74 19 -140
39 -66 20 -131 39 -145 41 -14 3 -34 8 -45 11 -11 4 -24 8 -30 9 -5 2 -37 10
-70 20 -33 9 -67 18 -75 20 -8 1 -123 30 -255 64 -132 33 -251 62 -265 65 -14
2 -45 9 -70 15 -25 6 -56 12 -70 15 -14 3 -36 8 -50 12 -28 7 -45 11 -75 17
-17 2 -80 16 -107 22 -5 1 -9 2 -10 3 -2 2 -14 4 -28 6 -14 2 -36 6 -50 9 -49
10 -65 13 -105 21 -22 5 -42 9 -45 10 -3 0 -27 5 -55 10 -27 4 -54 9 -60 11
-45 11 -340 63 -395 69 -14 2 -25 4 -25 5 0 3 -100 19 -160 26 -22 3 -51 7
-65 10 -14 3 -41 7 -60 9 -19 3 -78 11 -130 19 -52 9 -122 18 -154 22 -33 3
-69 8 -80 10 -12 3 -41 7 -66 9 -49 4 -130 14 -170 20 -14 2 -46 5 -72 6 -27
2 -48 5 -48 8 0 3 -19 6 -43 7 -38 1 -114 7 -222 20 -60 6 -151 14 -235 19
-41 3 -93 7 -115 10 -42 5 -240 17 -312 18 -24 1 -43 5 -43 10 0 5 -6 4 -13
-2 -8 -6 -17 -8 -20 -4 -4 3 -51 7 -104 9 -54 1 -165 6 -248 9 -143 7 -1103
14 -1108 9z"/>
<path d="M23226 32722 c-2 -1 -44 -4 -94 -7 -50 -2 -109 -9 -130 -15 -22 -5
-52 -12 -68 -14 -40 -6 -132 -39 -185 -66 -77 -40 -123 -73 -181 -132 -51 -52
-89 -103 -212 -283 -23 -33 -44 -61 -48 -63 -5 -2 -8 -10 -8 -17 0 -7 -4 -15
-9 -17 -4 -1 -35 -42 -67 -89 -120 -176 -288 -414 -301 -427 -7 -7 -13 -19
-13 -27 0 -7 -4 -15 -8 -17 -5 -1 -40 -48 -78 -103 -38 -55 -72 -104 -77 -110
-5 -5 -24 -32 -43 -60 -19 -27 -58 -84 -86 -125 -29 -41 -76 -109 -105 -150
-29 -41 -59 -84 -66 -94 -6 -10 -21 -31 -33 -45 -11 -14 -23 -34 -27 -43 -3
-10 -11 -18 -17 -18 -5 0 -10 -5 -10 -10 0 -6 -18 -35 -40 -65 -22 -30 -40
-57 -40 -60 0 -3 -7 -13 -16 -22 -8 -10 -50 -67 -92 -128 -41 -60 -80 -113
-86 -117 -6 -4 -7 -8 -3 -8 8 0 -2 -14 -53 -76 -5 -7 -6 -15 -3 -18 4 -3 2 -6
-4 -6 -8 0 -91 -113 -138 -188 -5 -9 -16 -22 -22 -30 -7 -7 -13 -17 -13 -20 0
-4 -11 -20 -25 -35 -14 -15 -22 -27 -18 -27 4 0 4 -4 -2 -8 -5 -4 -19 -20 -31
-37 -67 -98 -118 -170 -126 -179 -5 -6 -17 -23 -26 -37 -35 -55 -97 -144 -103
-149 -4 -3 -15 -19 -25 -36 l-19 -31 -63 41 c-82 55 -102 69 -116 81 -20 18
-459 310 -488 324 -15 7 -28 17 -28 22 0 5 -5 9 -11 9 -6 0 -30 14 -54 30 -24
17 -48 30 -54 30 -6 0 -11 5 -11 10 0 6 -4 10 -10 10 -8 0 -121 68 -145 88 -5
4 -17 11 -25 15 -8 4 -33 18 -55 32 -22 14 -52 31 -67 37 -16 7 -28 16 -28 20
0 4 -7 8 -15 8 -8 0 -15 5 -15 11 0 5 -4 8 -9 5 -5 -3 -14 1 -21 9 -7 8 -19
15 -26 15 -8 0 -14 5 -14 12 0 6 -3 8 -7 5 -3 -4 -13 -1 -22 6 -9 8 -36 25
-61 38 -25 13 -47 26 -50 29 -3 3 -25 16 -50 29 -143 74 -235 126 -238 133 -2
4 -9 8 -15 8 -7 0 -23 6 -37 13 -154 82 -240 125 -240 120 0 -3 -8 1 -17 9
-22 18 -95 53 -105 50 -5 -1 -8 3 -8 8 0 6 -5 10 -11 10 -6 0 -48 17 -93 39
-134 63 -423 186 -556 236 -69 26 -143 54 -164 63 -22 9 -44 17 -50 17 -6 1
-69 20 -141 42 -154 50 -275 84 -275 77 0 -3 -8 0 -17 5 -10 5 -31 12 -48 15
-16 3 -52 11 -80 17 -27 6 -59 12 -70 14 -11 1 -22 3 -25 5 -3 1 -20 2 -37 2
-18 0 -33 3 -33 7 0 3 -15 7 -32 7 -18 1 -58 5 -88 9 -59 9 -336 10 -410 2
-25 -2 -72 -10 -105 -17 -33 -8 -62 -14 -65 -15 -25 -5 -97 -34 -153 -61 -110
-53 -200 -133 -275 -244 -20 -30 -50 -73 -67 -96 -56 -76 -95 -134 -94 -140 0
-4 -3 -10 -8 -13 -5 -3 -25 -28 -44 -55 -19 -27 -46 -66 -61 -88 -16 -21 -28
-43 -28 -49 0 -6 -4 -7 -10 -4 -5 3 -10 1 -10 -6 0 -11 -78 -125 -103 -151 -7
-7 -15 -17 -17 -23 -3 -12 -30 -54 -47 -75 -7 -8 -48 -67 -92 -130 -44 -63
-86 -123 -92 -132 -23 -31 -134 -190 -149 -213 -14 -20 -44 -63 -87 -125 -10
-14 -21 -26 -25 -28 -5 -2 -8 -8 -8 -13 0 -9 -37 -66 -50 -79 -3 -3 -31 -41
-61 -85 -31 -44 -78 -111 -104 -150 -27 -38 -52 -71 -57 -73 -4 -2 -8 -8 -8
-13 0 -7 -55 -90 -83 -124 -19 -23 -153 -218 -162 -236 -5 -10 -13 -19 -17
-19 -5 0 -8 -6 -8 -14 0 -8 -7 -16 -15 -20 -8 -3 -15 -12 -15 -20 0 -8 -3 -16
-8 -18 -7 -3 -45 -57 -111 -157 -13 -20 -27 -38 -30 -41 -15 -12 -71 -99 -71
-110 0 -6 -4 -8 -10 -5 -5 3 -10 1 -10 -5 0 -7 -8 -22 -17 -35 -10 -12 -24
-31 -30 -41 -7 -11 -37 -53 -66 -94 -29 -41 -78 -111 -108 -155 -31 -44 -93
-134 -140 -200 -46 -66 -102 -147 -124 -180 -22 -33 -46 -66 -54 -75 -8 -8
-27 -36 -43 -62 -16 -26 -34 -48 -39 -48 -6 0 -7 -4 -4 -10 3 -5 1 -10 -4 -10
-6 0 -11 -6 -11 -14 0 -8 -4 -16 -8 -18 -4 -1 -39 -48 -77 -103 -38 -55 -84
-120 -102 -145 -18 -25 -36 -52 -40 -60 -4 -8 -9 -17 -13 -20 -14 -12 -100
-140 -100 -149 0 -6 -9 -16 -20 -23 -11 -7 -20 -16 -20 -21 0 -7 -37 -64 -50
-77 -3 -3 -19 -25 -35 -50 -16 -25 -33 -47 -36 -50 -3 -3 -25 -34 -49 -70 -24
-36 -46 -67 -49 -70 -3 -3 -10 -12 -16 -21 -9 -16 -91 -136 -139 -204 -12 -16
-23 -32 -26 -35 -13 -12 -77 -107 -83 -122 -3 -10 -11 -18 -17 -18 -5 0 -10
-4 -10 -10 0 -5 -30 -52 -67 -104 -85 -119 -235 -332 -248 -354 -5 -9 -16 -22
-22 -30 -7 -7 -13 -17 -13 -21 0 -4 -8 -16 -17 -27 -30 -34 -63 -83 -63 -94 0
-5 -5 -10 -10 -10 -6 0 -14 -8 -17 -17 -4 -10 -11 -22 -15 -28 -35 -42 -78
-106 -78 -114 0 -5 -4 -11 -8 -13 -4 -1 -38 -47 -75 -100 -37 -53 -72 -100
-77 -103 -6 -4 -8 -10 -5 -15 3 -4 -2 -10 -10 -14 -8 -3 -15 -10 -15 -16 0
-10 -46 -77 -80 -117 -5 -7 -10 -16 -10 -22 0 -5 -4 -11 -9 -13 -4 -1 -43 -55
-86 -118 -43 -63 -81 -117 -85 -120 -4 -3 -10 -12 -13 -20 -4 -8 -21 -33 -37
-55 -17 -22 -38 -51 -47 -65 -43 -64 -178 -256 -183 -260 -3 -3 -34 -48 -69
-100 -36 -52 -71 -101 -77 -108 -7 -6 -16 -21 -19 -32 -3 -11 -11 -20 -16 -20
-5 0 -9 -7 -9 -15 0 -8 -4 -15 -8 -15 -4 0 -16 -15 -27 -32 -10 -18 -24 -38
-29 -45 -30 -34 -36 -43 -36 -51 0 -5 -10 -20 -22 -34 -13 -13 -45 -57 -72
-98 -27 -40 -53 -78 -58 -84 -5 -6 -40 -56 -78 -111 -38 -55 -76 -109 -85
-120 -8 -11 -29 -42 -47 -70 -18 -27 -35 -52 -38 -55 -10 -8 -175 -246 -197
-283 -6 -11 -21 -31 -33 -46 -12 -14 -66 -91 -121 -171 -55 -80 -105 -152
-112 -160 -7 -8 -30 -42 -52 -75 -22 -33 -48 -68 -57 -79 -10 -11 -18 -26 -18
-33 0 -7 -3 -13 -7 -13 -5 0 -19 -17 -33 -38 -14 -20 -73 -106 -132 -190 -60
-84 -108 -156 -108 -161 0 -5 -3 -11 -8 -13 -10 -4 -126 -169 -135 -190 -3
-10 -11 -18 -16 -18 -5 0 -13 -9 -16 -20 -3 -11 -12 -26 -19 -33 -7 -7 -25
-30 -39 -52 -15 -22 -37 -54 -49 -71 -13 -18 -45 -65 -73 -105 -27 -41 -58
-83 -67 -93 -10 -11 -20 -28 -24 -38 -3 -10 -10 -18 -15 -18 -5 0 -9 -6 -9
-13 0 -8 -9 -22 -20 -32 -11 -10 -20 -24 -20 -32 0 -7 -4 -13 -10 -13 -5 0
-16 -13 -25 -29 -8 -16 -20 -35 -27 -43 -7 -8 -17 -21 -23 -30 -23 -37 -120
-174 -131 -186 -7 -6 -16 -21 -19 -32 -3 -11 -10 -20 -14 -20 -4 0 -16 -16
-27 -35 -10 -19 -22 -35 -26 -35 -5 0 -8 -7 -8 -15 0 -8 -3 -15 -7 -15 -5 0
-17 -15 -28 -32 -24 -38 -43 -66 -137 -200 -13 -18 -26 -34 -30 -36 -5 -2 -8
-9 -8 -15 0 -7 -11 -24 -25 -39 -14 -15 -25 -30 -25 -33 0 -3 -5 -11 -10 -18
-23 -27 -100 -137 -100 -142 0 -3 -4 -11 -10 -18 -46 -57 -60 -76 -60 -85 0
-6 -3 -12 -7 -14 -9 -3 -27 -29 -112 -153 -30 -44 -57 -82 -60 -85 -4 -3 -10
-12 -16 -22 -11 -18 -87 -127 -138 -198 -18 -25 -68 -97 -112 -160 -43 -63
-83 -116 -87 -118 -4 -2 -8 -10 -8 -18 0 -8 -4 -14 -10 -14 -5 0 -10 -5 -10
-10 0 -6 -5 -16 -11 -23 -6 -7 -46 -64 -90 -127 -44 -62 -87 -122 -96 -132 -9
-10 -12 -18 -7 -18 5 0 4 -4 -1 -8 -13 -9 -80 -101 -155 -212 -30 -45 -61 -88
-68 -95 -6 -8 -12 -16 -12 -19 0 -3 -9 -17 -21 -30 -12 -13 -20 -27 -19 -31 1
-4 -2 -11 -7 -14 -5 -3 -20 -22 -33 -41 -13 -19 -27 -37 -30 -40 -3 -3 -17
-23 -32 -45 -14 -22 -58 -85 -97 -140 -86 -123 -184 -265 -225 -325 -16 -25
-33 -47 -36 -50 -3 -3 -32 -43 -63 -88 l-57 -84 20 -121 c12 -66 23 -123 24
-126 2 -3 7 -28 11 -56 10 -71 19 -120 25 -135 1 -3 2 -8 2 -11 0 -3 4 -23 9
-45 13 -54 20 -85 23 -109 2 -11 6 -27 8 -35 10 -29 28 -115 30 -142 1 -16 5
-28 9 -28 3 0 6 -6 6 -12 1 -22 12 -69 39 -173 14 -55 27 -107 29 -115 20 -88
48 -192 84 -313 11 -37 20 -68 20 -70 -1 -7 15 -64 20 -72 3 -5 7 -19 8 -29 2
-11 11 -40 19 -65 9 -25 18 -56 19 -69 2 -13 8 -29 15 -36 6 -8 10 -18 9 -22
-1 -5 0 -12 1 -16 1 -5 3 -11 5 -15 1 -5 4 -15 7 -23 3 -8 20 -60 37 -115 18
-55 35 -107 38 -115 3 -8 7 -19 8 -25 6 -25 106 -309 140 -395 20 -52 37 -101
37 -107 1 -7 4 -13 8 -13 4 0 7 -6 7 -13 0 -8 14 -49 33 -92 18 -44 33 -84 34
-90 1 -5 12 -32 24 -59 12 -27 22 -51 22 -53 0 -3 6 -19 14 -36 44 -98 126
-299 126 -307 0 -6 5 -10 12 -10 6 0 9 -3 6 -6 -6 -5 8 -37 103 -242 22 -46
39 -88 39 -93 0 -5 4 -9 10 -9 5 0 9 -3 8 -7 -1 -5 13 -39 30 -77 18 -38 32
-73 32 -77 0 -5 5 -9 10 -9 6 0 10 -5 10 -11 0 -10 59 -130 113 -231 14 -27
23 -48 20 -48 -4 0 1 -8 9 -17 8 -10 29 -46 47 -81 33 -67 92 -177 121 -227
10 -16 29 -50 42 -75 32 -57 52 -93 118 -205 29 -49 58 -100 64 -112 6 -13 14
-23 19 -23 4 0 7 -5 7 -11 0 -6 24 -48 53 -95 28 -46 57 -92 62 -102 29 -52
150 -237 157 -240 4 -2 8 -8 8 -12 0 -27 439 -654 612 -875 55 -70 77 -98 98
-126 14 -18 30 -37 35 -43 6 -6 29 -36 52 -66 23 -30 50 -64 60 -75 10 -11 30
-36 45 -55 15 -19 39 -48 53 -65 15 -16 36 -43 48 -58 12 -15 31 -38 42 -51
11 -12 43 -49 70 -81 28 -33 59 -69 70 -81 11 -12 45 -50 75 -85 30 -34 69
-77 85 -95 17 -18 64 -70 105 -115 201 -222 480 -501 835 -834 21 -20 138
-124 269 -239 39 -34 91 -80 116 -103 26 -24 50 -43 54 -43 3 0 21 -14 39 -31
17 -17 86 -75 152 -128 66 -53 125 -100 132 -106 6 -5 26 -21 44 -35 18 -14
41 -33 51 -42 10 -10 18 -15 18 -10 0 4 6 0 13 -8 7 -8 77 -64 157 -123 80
-60 153 -115 163 -123 9 -8 20 -14 23 -14 4 0 80 -56 94 -70 3 -3 12 -9 22
-15 9 -5 46 -31 83 -58 36 -26 70 -47 75 -47 4 0 10 -3 12 -8 5 -11 107 -82
118 -82 6 0 10 -4 10 -10 0 -5 7 -10 15 -10 8 0 15 -3 15 -8 0 -4 17 -16 38
-27 20 -11 45 -27 55 -36 10 -9 33 -25 52 -35 19 -10 35 -22 35 -26 0 -5 5 -8
10 -8 9 0 100 -56 182 -112 15 -10 31 -18 37 -18 5 0 11 -3 13 -8 3 -6 138
-91 163 -101 5 -2 14 -8 20 -13 19 -16 178 -108 187 -108 4 0 8 -4 8 -9 0 -5
8 -11 18 -14 9 -4 37 -18 62 -33 25 -15 70 -40 100 -57 30 -17 67 -39 83 -49
15 -11 27 -16 27 -12 0 3 6 1 14 -5 17 -14 126 -73 266 -143 58 -29 108 -57
111 -61 3 -5 9 -8 13 -8 3 1 30 -11 59 -26 28 -15 54 -28 57 -29 3 -1 15 -5
28 -9 12 -4 22 -11 22 -16 0 -5 5 -9 12 -9 6 0 48 -18 92 -39 88 -43 224 -107
296 -139 25 -11 65 -29 90 -40 25 -11 74 -33 110 -47 36 -15 83 -35 105 -45
22 -10 92 -39 155 -64 63 -26 124 -50 135 -55 11 -5 56 -23 100 -39 44 -17 89
-33 100 -38 11 -4 22 -8 25 -9 3 -1 12 -5 20 -8 8 -3 60 -23 115 -42 55 -20
107 -39 115 -42 8 -4 18 -7 23 -8 4 -2 8 -3 10 -5 1 -1 9 -3 17 -5 16 -4 244
-81 270 -92 8 -3 20 -7 25 -8 6 -2 55 -17 110 -35 55 -18 107 -33 115 -35 8
-2 15 -4 15 -5 0 -1 7 -3 15 -5 8 -2 56 -15 105 -30 50 -15 97 -28 105 -30 8
-2 26 -8 40 -13 14 -5 28 -10 33 -11 10 -1 60 -12 72 -16 6 -1 13 -3 17 -4 4
-1 22 -7 40 -12 62 -19 73 -21 96 -23 12 0 22 -4 22 -8 0 -5 3 -7 8 -6 4 1 27
-4 52 -12 25 -7 52 -14 60 -16 23 -3 101 -22 145 -34 22 -6 54 -13 70 -17 48
-9 60 -11 60 -13 0 -2 23 -8 60 -15 28 -5 121 -25 210 -45 55 -13 106 -23 130
-26 11 -1 20 -3 20 -4 0 -2 31 -9 65 -14 14 -2 63 -11 110 -20 189 -35 271
-49 360 -62 19 -2 46 -7 60 -9 14 -3 48 -8 75 -11 28 -3 54 -10 59 -14 5 -5
14 -6 22 -3 7 2 58 -3 113 -11 55 -9 123 -18 153 -21 29 -2 73 -7 98 -10 25
-3 70 -8 100 -10 30 -3 80 -8 110 -11 30 -3 69 -7 85 -9 17 -1 30 -3 30 -4 0
-1 27 -4 60 -6 33 -2 96 -6 140 -10 44 -3 109 -8 145 -10 36 -2 108 -7 160
-11 167 -11 260 -14 468 -18 112 -2 205 -6 208 -9 3 -3 11 -4 17 -1 7 2 152 6
322 8 396 5 546 11 790 31 33 3 96 7 140 10 44 3 91 7 105 10 14 2 66 7 115
11 152 12 160 12 160 14 0 1 16 3 35 5 47 4 138 14 175 20 17 2 55 7 85 10 30
3 96 12 145 20 50 8 113 17 140 21 28 3 59 8 70 10 47 9 82 14 115 18 33 4
233 40 275 49 11 3 40 8 65 12 51 8 74 13 110 21 14 3 34 7 45 8 24 3 69 12
150 31 33 8 72 17 88 20 42 8 114 24 132 29 6 2 28 6 50 11 22 4 65 14 95 22
63 17 126 32 155 38 11 2 20 4 20 5 0 2 33 10 60 15 11 2 20 4 20 5 0 1 7 3
15 5 8 2 51 14 95 25 l80 21 55 80 c30 44 61 86 68 94 6 7 12 18 12 23 0 4 11
19 25 32 14 13 25 29 25 37 0 7 5 13 10 13 6 0 10 5 10 11 0 6 6 17 13 24 23
26 33 40 67 93 18 28 37 52 42 52 4 0 8 5 8 12 0 6 11 25 24 42 13 17 24 35
24 39 1 4 8 14 16 22 8 8 24 30 36 50 12 19 25 35 29 35 4 0 12 10 18 23 11
24 170 254 190 275 6 6 15 21 18 32 3 11 10 20 14 20 4 0 16 16 27 35 10 19
21 35 25 35 4 0 12 14 19 30 7 17 16 30 21 30 5 0 18 18 29 39 10 22 23 41 27
43 5 1 30 36 57 77 27 41 52 79 57 85 14 17 91 126 124 176 17 25 35 50 40 56
6 6 31 42 55 80 45 69 63 94 88 120 7 8 10 14 5 14 -4 0 -3 4 3 8 5 4 35 43
66 87 30 45 72 105 93 135 22 30 66 93 98 140 33 47 64 87 68 88 5 2 9 10 9
17 0 8 6 20 13 27 14 15 30 37 94 133 26 39 50 72 53 75 3 3 31 41 60 85 30
44 57 82 60 85 3 3 19 25 35 50 16 25 32 47 35 50 3 3 19 25 35 50 17 25 35
50 40 56 11 14 195 277 210 302 6 10 12 19 15 22 3 3 14 18 24 35 11 16 23 34
28 40 5 5 36 48 68 95 32 47 63 90 67 95 5 6 19 27 32 48 13 21 28 43 35 50 6
6 36 48 66 92 84 125 94 140 103 143 4 2 7 10 7 18 0 8 5 14 10 14 6 0 13 8
17 17 3 10 19 34 35 54 15 20 28 42 28 48 0 6 4 11 8 11 4 0 15 12 24 28 9 15
24 36 32 47 9 11 55 76 103 145 90 130 139 200 182 261 14 20 32 45 39 55 21
31 131 188 139 199 5 6 28 39 53 75 24 36 48 67 52 68 4 2 8 8 8 13 0 5 23 40
50 78 28 38 50 73 50 78 0 5 9 15 20 23 11 8 20 18 20 23 0 7 31 55 55 84 6 6
25 33 43 60 112 162 292 420 300 428 5 6 17 24 28 40 10 17 22 32 25 35 4 3
15 19 25 36 11 17 56 84 102 148 45 64 82 119 82 121 0 3 8 13 18 24 9 10 49
64 87 121 39 56 78 112 88 123 9 11 17 26 17 33 0 7 3 14 8 16 11 5 62 75 62
86 0 6 7 12 15 16 8 3 15 12 15 20 0 8 3 16 8 18 12 5 62 76 62 87 0 6 3 11 8
11 4 0 21 23 37 50 17 27 33 50 38 50 4 0 7 6 7 14 0 8 4 16 8 18 5 2 35 41
67 88 32 47 71 101 87 121 15 20 28 40 28 43 0 3 16 27 35 53 45 61 43 59 85
118 19 28 38 52 42 53 4 2 8 9 8 16 0 6 13 27 28 46 16 19 37 50 47 68 11 17
23 32 27 32 4 0 8 4 8 10 0 8 33 56 83 120 7 8 18 28 26 43 8 15 18 27 23 27
4 0 8 5 8 11 0 6 10 24 23 39 51 64 59 76 68 98 5 12 13 22 18 22 5 0 14 14
21 30 7 17 16 30 21 30 5 0 9 5 9 10 0 6 11 23 24 37 14 15 23 30 20 35 -3 4
-1 8 3 8 5 0 19 18 33 40 14 22 28 40 32 40 5 0 8 7 8 15 0 8 5 15 10 15 6 0
10 7 10 15 0 8 3 15 8 15 4 0 20 21 37 48 16 26 32 49 35 52 4 3 30 39 58 81
28 42 58 84 67 93 9 9 13 16 9 16 -4 0 2 10 13 23 11 12 45 58 75 102 110 161
123 180 141 199 9 11 17 23 17 26 0 4 11 20 25 36 14 16 25 33 25 38 0 4 11
22 25 40 14 17 29 36 34 42 4 5 13 20 20 31 6 12 17 27 24 35 7 7 28 37 47 66
18 28 36 52 39 52 3 0 12 13 19 29 7 16 22 39 33 52 46 52 125 194 134 239 2
12 6 29 9 38 18 59 24 243 11 302 -3 14 -8 39 -10 55 -3 17 -9 46 -15 65 -6
19 -13 47 -16 62 -12 63 -147 378 -166 386 -5 2 -8 9 -8 15 0 12 -138 245
-157 265 -7 7 -13 17 -13 22 0 5 -6 15 -13 22 -11 11 -81 109 -112 156 -5 8
-16 22 -23 31 -7 9 -52 66 -99 126 -48 61 -89 112 -93 115 -3 3 -34 40 -69 83
-35 42 -68 77 -72 77 -5 0 -9 6 -9 13 0 7 -9 18 -20 25 -11 7 -20 16 -20 20 0
25 -556 583 -781 784 -14 13 -46 41 -70 63 -24 22 -113 100 -199 173 -85 73
-172 149 -193 168 -21 19 -42 34 -47 34 -4 0 -10 4 -12 8 -1 4 -41 39 -88 76
-47 38 -90 75 -96 82 -6 8 -14 14 -17 14 -4 0 -55 38 -114 85 -59 47 -112 88
-118 93 -5 4 -28 21 -50 37 -50 38 -74 57 -90 73 -8 6 -18 12 -24 12 -6 0 -11
4 -11 8 0 4 -15 16 -32 27 -18 10 -44 30 -57 44 -14 14 -26 24 -27 21 -1 -3
-14 5 -28 18 -15 12 -29 22 -32 22 -4 0 -15 10 -25 22 -11 11 -19 17 -19 12 0
-5 -4 -4 -8 1 -4 6 -18 18 -32 27 -14 9 -47 33 -75 53 -27 20 -68 48 -89 63
-22 15 -49 34 -61 42 -11 8 -51 35 -88 59 -37 25 -67 48 -67 53 0 4 -5 8 -11
8 -9 0 -97 55 -109 69 -8 9 -42 30 -73 44 -15 7 -24 16 -20 20 3 4 2 7 -4 7
-9 0 -333 200 -368 227 -5 5 -66 41 -135 82 -69 41 -133 81 -142 89 -10 8 -18
12 -18 8 0 -4 -20 7 -44 24 -25 16 -48 30 -53 30 -4 0 -19 9 -32 19 l-24 18
44 64 c24 35 49 67 54 71 6 4 7 8 3 8 -5 0 -1 8 8 18 20 22 154 212 154 218 0
3 4 10 10 17 46 57 60 76 60 85 0 6 3 12 8 14 7 3 17 16 112 154 33 49 69 98
79 110 10 12 20 25 22 30 13 28 73 114 80 114 5 0 9 5 9 10 0 10 36 67 50 80
3 3 37 50 74 105 38 55 72 102 75 105 3 3 12 17 20 33 8 15 18 27 23 27 4 0 8
7 8 15 0 9 7 18 15 21 8 4 15 10 15 16 0 5 29 50 65 100 36 50 73 103 82 119
10 16 21 29 25 29 4 0 8 6 8 14 0 8 4 16 8 18 5 2 31 37 58 78 27 41 54 80 59
85 6 6 28 37 50 70 22 33 44 65 50 72 5 7 16 19 23 27 6 8 12 19 12 23 0 4 14
24 30 43 16 19 30 41 30 48 0 6 3 12 8 12 4 0 15 12 24 28 9 15 31 46 47 70
68 93 93 129 128 182 19 30 38 57 42 60 3 3 18 23 33 45 15 22 45 65 67 95 22
30 45 65 51 78 5 12 14 22 19 22 5 0 11 8 15 18 8 24 28 54 49 73 9 9 17 20
17 24 0 4 14 24 30 45 17 21 30 41 30 45 0 3 6 13 13 20 29 33 37 45 37 54 0
5 3 11 8 13 4 2 20 23 37 48 16 25 32 47 35 50 3 3 25 34 50 70 24 36 48 67
52 68 4 2 8 10 8 18 0 8 5 14 10 14 6 0 10 4 10 10 0 7 117 178 150 217 5 6
17 24 27 40 10 15 70 102 133 191 63 90 120 171 125 180 6 9 12 19 15 22 3 3
21 28 40 55 19 28 38 52 42 53 4 2 8 9 8 16 0 7 9 21 20 31 11 10 20 24 20 32
0 7 3 13 8 13 4 0 20 21 37 48 32 51 33 52 71 100 14 17 23 32 19 32 -3 0 4
10 15 23 12 12 29 34 38 50 9 15 20 27 24 27 4 0 8 4 8 10 0 14 73 120 82 120
4 0 8 6 8 13 0 7 8 22 18 33 9 10 30 39 46 63 16 25 33 50 38 55 5 6 39 54 75
106 37 52 69 97 72 100 3 3 12 17 20 33 8 15 18 27 23 27 4 0 8 6 8 13 0 6 10
24 23 39 12 15 47 63 77 108 30 45 62 90 70 100 8 10 51 71 95 135 44 64 96
139 115 165 19 27 55 78 80 114 25 36 49 65 53 66 5 0 6 4 2 9 -3 5 6 21 20
35 14 14 25 28 25 32 0 3 14 23 30 44 17 21 30 43 30 49 0 6 4 11 8 11 4 0 16
15 27 33 10 17 22 34 25 37 20 14 101 161 105 190 0 3 4 11 8 18 5 6 6 12 2
12 -3 0 -1 9 4 19 11 20 24 129 24 196 0 47 -9 118 -24 195 -14 70 -15 72 -21
90 -3 8 -11 33 -17 55 -7 22 -16 49 -21 60 -4 11 -18 44 -30 74 -34 83 -82
183 -103 214 -10 15 -16 27 -13 27 3 0 -10 25 -29 55 -19 30 -35 59 -35 65 0
5 -4 10 -10 10 -5 0 -10 5 -10 10 0 6 -30 56 -67 111 -38 55 -72 108 -78 117
-5 9 -15 21 -21 27 -5 5 -22 28 -37 50 -14 22 -38 52 -52 68 -14 15 -23 27
-20 27 4 0 0 7 -7 15 -7 8 -18 20 -23 27 -6 7 -37 47 -70 88 -33 41 -69 84
-80 96 -11 11 -35 39 -53 61 -18 23 -45 54 -60 71 -15 16 -61 66 -102 113
-101 112 -511 522 -634 634 -55 50 -116 106 -137 125 -20 19 -56 51 -80 71
-24 21 -60 52 -80 70 -20 19 -58 52 -84 74 -27 22 -53 45 -59 50 -12 11 -121
102 -182 152 -22 17 -48 40 -59 50 -11 10 -44 36 -72 58 -29 21 -53 43 -53 47
0 4 -4 8 -10 8 -10 0 -24 10 -85 63 -18 15 -38 27 -44 27 -6 0 -11 4 -11 10 0
5 -27 28 -60 52 -33 23 -60 46 -60 50 0 4 -6 8 -12 8 -7 0 -30 16 -52 35 -21
19 -41 35 -45 35 -4 0 -16 8 -27 18 -10 9 -53 42 -94 72 -41 30 -76 58 -78 62
-2 5 -8 8 -13 8 -11 0 -89 58 -101 75 -5 7 -8 7 -8 0 0 -6 -3 -5 -8 1 -13 20
-365 264 -380 264 -6 0 -12 4 -14 8 -4 12 -245 172 -258 172 -5 0 -10 4 -10 9
0 5 -15 16 -34 25 -18 8 -39 22 -46 31 -7 8 -16 15 -21 15 -5 0 -46 24 -92 53
-145 93 -234 147 -246 147 -6 0 -11 5 -11 10 0 6 -7 10 -15 10 -8 0 -15 5 -15
10 0 6 -4 10 -9 10 -5 0 -58 29 -119 65 -60 36 -115 65 -121 65 -6 0 -11 4
-11 8 0 4 -15 15 -32 24 -18 8 -95 49 -171 91 -76 42 -147 79 -158 82 -10 4
-19 10 -19 15 0 4 -10 11 -22 15 -13 4 -25 8 -28 9 -3 1 -21 10 -40 21 -87 47
-236 119 -242 117 -5 -1 -8 3 -8 9 0 5 -4 7 -10 4 -5 -3 -10 -1 -10 6 0 7 -3
9 -6 6 -4 -4 -20 3 -35 14 -16 11 -29 18 -29 15 0 -4 -21 5 -47 18 -27 13 -68
33 -93 44 -25 11 -65 29 -90 40 -90 40 -265 114 -275 116 -5 1 -27 10 -49 19
-21 9 -42 17 -47 17 -5 0 -33 11 -64 24 -30 14 -55 22 -55 19 0 -3 -7 1 -17 8
-9 8 -18 13 -19 12 -2 -1 -9 -1 -16 1 -25 8 -173 58 -188 63 -8 3 -23 7 -32 9
-9 2 -56 15 -105 30 -48 14 -97 27 -108 30 -11 2 -47 10 -80 18 -33 9 -73 18
-90 21 -16 2 -41 7 -55 10 -13 2 -42 7 -65 10 -22 3 -47 8 -55 10 -26 7 -112
16 -200 20 -47 3 -85 5 -85 6 0 2 -77 4 -79 1z"/>
</g>
</svg>
