<svg id="visual" viewBox="0 0 1000 208" width="1000" height="208" xmlns="http://www.w3.org/2000/svg" xmlns:xlink="http://www.w3.org/1999/xlink" version="1.1"><rect x="0" y="0" width="1000" height="208" fill="#673009"></rect><path d="M0 31L9.8 34C19.7 37 39.3 43 59 47.8C78.7 52.7 98.3 56.3 117.8 51.7C137.3 47 156.7 34 176.2 35.7C195.7 37.3 215.3 53.7 235 56.8C254.7 60 274.3 50 294 47.8C313.7 45.7 333.3 51.3 353 48.3C372.7 45.3 392.3 33.7 412 29.8C431.7 26 451.3 30 470.8 31.7C490.3 33.3 509.7 32.7 529.2 29.7C548.7 26.7 568.3 21.3 588 26.2C607.7 31 627.3 46 647 51.7C666.7 57.3 686.3 53.7 706 54.7C725.7 55.7 745.3 61.3 765 57.5C784.7 53.7 804.3 40.3 823.8 44.3C843.3 48.3 862.7 69.7 882.2 79.8C901.7 90 921.3 89 941 79.7C960.7 70.3 980.3 52.7 990.2 43.8L1000 35L1000 209L990.2 209C980.3 209 960.7 209 941 209C921.3 209 901.7 209 882.2 209C862.7 209 843.3 209 823.8 209C804.3 209 784.7 209 765 209C745.3 209 725.7 209 706 209C686.3 209 666.7 209 647 209C627.3 209 607.7 209 588 209C568.3 209 548.7 209 529.2 209C509.7 209 490.3 209 470.8 209C451.3 209 431.7 209 412 209C392.3 209 372.7 209 353 209C333.3 209 313.7 209 294 209C274.3 209 254.7 209 235 209C215.3 209 195.7 209 176.2 209C156.7 209 137.3 209 117.8 209C98.3 209 78.7 209 59 209C39.3 209 19.7 209 9.8 209L0 209Z" fill="#673009"></path><path d="M0 110L9.8 100C19.7 90 39.3 70 59 64.7C78.7 59.3 98.3 68.7 117.8 67.7C137.3 66.7 156.7 55.3 176.2 60.5C195.7 65.7 215.3 87.3 235 88.2C254.7 89 274.3 69 294 67.8C313.7 66.7 333.3 84.3 353 85.8C372.7 87.3 392.3 72.7 412 71.7C431.7 70.7 451.3 83.3 470.8 81.2C490.3 79 509.7 62 529.2 53.5C548.7 45 568.3 45 588 53.8C607.7 62.7 627.3 80.3 647 80.8C666.7 81.3 686.3 64.7 706 58C725.7 51.3 745.3 54.7 765 54.8C784.7 55 804.3 52 823.8 50.7C843.3 49.3 862.7 49.7 882.2 58.7C901.7 67.7 921.3 85.3 941 90.8C960.7 96.3 980.3 89.7 990.2 86.3L1000 83L1000 209L990.2 209C980.3 209 960.7 209 941 209C921.3 209 901.7 209 882.2 209C862.7 209 843.3 209 823.8 209C804.3 209 784.7 209 765 209C745.3 209 725.7 209 706 209C686.3 209 666.7 209 647 209C627.3 209 607.7 209 588 209C568.3 209 548.7 209 529.2 209C509.7 209 490.3 209 470.8 209C451.3 209 431.7 209 412 209C392.3 209 372.7 209 353 209C333.3 209 313.7 209 294 209C274.3 209 254.7 209 235 209C215.3 209 195.7 209 176.2 209C156.7 209 137.3 209 117.8 209C98.3 209 78.7 209 59 209C39.3 209 19.7 209 9.8 209L0 209Z" fill="#602c09"></path><path d="M0 104L9.8 98.8C19.7 93.7 39.3 83.3 59 81.3C78.7 79.3 98.3 85.7 117.8 95.2C137.3 104.7 156.7 117.3 176.2 118.2C195.7 119 215.3 108 235 102.5C254.7 97 274.3 97 294 102.5C313.7 108 333.3 119 353 119.5C372.7 120 392.3 110 412 108C431.7 106 451.3 112 470.8 111.2C490.3 110.3 509.7 102.7 529.2 103.5C548.7 104.3 568.3 113.7 588 110.7C607.7 107.7 627.3 92.3 647 87.8C666.7 83.3 686.3 89.7 706 94.8C725.7 100 745.3 104 765 106C784.7 108 804.3 108 823.8 108.5C843.3 109 862.7 110 882.2 110C901.7 110 921.3 109 941 104.5C960.7 100 980.3 92 990.2 88L1000 84L1000 209L990.2 209C980.3 209 960.7 209 941 209C921.3 209 901.7 209 882.2 209C862.7 209 843.3 209 823.8 209C804.3 209 784.7 209 765 209C745.3 209 725.7 209 706 209C686.3 209 666.7 209 647 209C627.3 209 607.7 209 588 209C568.3 209 548.7 209 529.2 209C509.7 209 490.3 209 470.8 209C451.3 209 431.7 209 412 209C392.3 209 372.7 209 353 209C333.3 209 313.7 209 294 209C274.3 209 254.7 209 235 209C215.3 209 195.7 209 176.2 209C156.7 209 137.3 209 117.8 209C98.3 209 78.7 209 59 209C39.3 209 19.7 209 9.8 209L0 209Z" fill="#592908"></path><path d="M0 118L9.8 116.2C19.7 114.3 39.3 110.7 59 107.5C78.7 104.3 98.3 101.7 117.8 102.2C137.3 102.7 156.7 106.3 176.2 111.8C195.7 117.3 215.3 124.7 235 127.5C254.7 130.3 274.3 128.7 294 122.8C313.7 117 333.3 107 353 100.8C372.7 94.7 392.3 92.3 412 94C431.7 95.7 451.3 101.3 470.8 106.2C490.3 111 509.7 115 529.2 121.2C548.7 127.3 568.3 135.7 588 131C607.7 126.3 627.3 108.7 647 101.7C666.7 94.7 686.3 98.3 706 107.2C725.7 116 745.3 130 765 132.5C784.7 135 804.3 126 823.8 117C843.3 108 862.7 99 882.2 99.2C901.7 99.3 921.3 108.7 941 111.3C960.7 114 980.3 110 990.2 108L1000 106L1000 209L990.2 209C980.3 209 960.7 209 941 209C921.3 209 901.7 209 882.2 209C862.7 209 843.3 209 823.8 209C804.3 209 784.7 209 765 209C745.3 209 725.7 209 706 209C686.3 209 666.7 209 647 209C627.3 209 607.7 209 588 209C568.3 209 548.7 209 529.2 209C509.7 209 490.3 209 470.8 209C451.3 209 431.7 209 412 209C392.3 209 372.7 209 353 209C333.3 209 313.7 209 294 209C274.3 209 254.7 209 235 209C215.3 209 195.7 209 176.2 209C156.7 209 137.3 209 117.8 209C98.3 209 78.7 209 59 209C39.3 209 19.7 209 9.8 209L0 209Z" fill="#522507"></path><path d="M0 141L9.8 141.8C19.7 142.7 39.3 144.3 59 148.2C78.7 152 98.3 158 117.8 158.8C137.3 159.7 156.7 155.3 176.2 154.2C195.7 153 215.3 155 235 151.2C254.7 147.3 274.3 137.7 294 135.2C313.7 132.7 333.3 137.3 353 137.5C372.7 137.7 392.3 133.3 412 133.8C431.7 134.3 451.3 139.7 470.8 144.3C490.3 149 509.7 153 529.2 151.7C548.7 150.3 568.3 143.7 588 138.8C607.7 134 627.3 131 647 129.8C666.7 128.7 686.3 129.3 706 132.2C725.7 135 745.3 140 765 138.5C784.7 137 804.3 129 823.8 130.2C843.3 131.3 862.7 141.7 882.2 148C901.7 154.3 921.3 156.7 941 154.2C960.7 151.7 980.3 144.3 990.2 140.7L1000 137L1000 209L990.2 209C980.3 209 960.7 209 941 209C921.3 209 901.7 209 882.2 209C862.7 209 843.3 209 823.8 209C804.3 209 784.7 209 765 209C745.3 209 725.7 209 706 209C686.3 209 666.7 209 647 209C627.3 209 607.7 209 588 209C568.3 209 548.7 209 529.2 209C509.7 209 490.3 209 470.8 209C451.3 209 431.7 209 412 209C392.3 209 372.7 209 353 209C333.3 209 313.7 209 294 209C274.3 209 254.7 209 235 209C215.3 209 195.7 209 176.2 209C156.7 209 137.3 209 117.8 209C98.3 209 78.7 209 59 209C39.3 209 19.7 209 9.8 209L0 209Z" fill="#4b2206"></path><path d="M0 148L9.8 150.3C19.7 152.7 39.3 157.3 59 159.5C78.7 161.7 98.3 161.3 117.8 157.5C137.3 153.7 156.7 146.3 176.2 144.8C195.7 143.3 215.3 147.7 235 150.5C254.7 153.3 274.3 154.7 294 157.3C313.7 160 333.3 164 353 164.7C372.7 165.3 392.3 162.7 412 159.5C431.7 156.3 451.3 152.7 470.8 150.3C490.3 148 509.7 147 529.2 146.3C548.7 145.7 568.3 145.3 588 150C607.7 154.7 627.3 164.3 647 166.3C666.7 168.3 686.3 162.7 706 163.5C725.7 164.3 745.3 171.7 765 171.2C784.7 170.7 804.3 162.3 823.8 159.2C843.3 156 862.7 158 882.2 158C901.7 158 921.3 156 941 153.3C960.7 150.7 980.3 147.3 990.2 145.7L1000 144L1000 209L990.2 209C980.3 209 960.7 209 941 209C921.3 209 901.7 209 882.2 209C862.7 209 843.3 209 823.8 209C804.3 209 784.7 209 765 209C745.3 209 725.7 209 706 209C686.3 209 666.7 209 647 209C627.3 209 607.7 209 588 209C568.3 209 548.7 209 529.2 209C509.7 209 490.3 209 470.8 209C451.3 209 431.7 209 412 209C392.3 209 372.7 209 353 209C333.3 209 313.7 209 294 209C274.3 209 254.7 209 235 209C215.3 209 195.7 209 176.2 209C156.7 209 137.3 209 117.8 209C98.3 209 78.7 209 59 209C39.3 209 19.7 209 9.8 209L0 209Z" fill="#441e05"></path><path d="M0 183L9.8 180.5C19.7 178 39.3 173 59 172.2C78.7 171.3 98.3 174.7 117.8 178.3C137.3 182 156.7 186 176.2 189.5C195.7 193 215.3 196 235 193C254.7 190 274.3 181 294 179C313.7 177 333.3 182 353 180.8C372.7 179.7 392.3 172.3 412 169.2C431.7 166 451.3 167 470.8 168.3C490.3 169.7 509.7 171.3 529.2 171.3C548.7 171.3 568.3 169.7 588 170.3C607.7 171 627.3 174 647 177.7C666.7 181.3 686.3 185.7 706 186.2C725.7 186.7 745.3 183.3 765 182.5C784.7 181.7 804.3 183.3 823.8 185C843.3 186.7 862.7 188.3 882.2 186.2C901.7 184 921.3 178 941 175C960.7 172 980.3 172 990.2 172L1000 172L1000 209L990.2 209C980.3 209 960.7 209 941 209C921.3 209 901.7 209 882.2 209C862.7 209 843.3 209 823.8 209C804.3 209 784.7 209 765 209C745.3 209 725.7 209 706 209C686.3 209 666.7 209 647 209C627.3 209 607.7 209 588 209C568.3 209 548.7 209 529.2 209C509.7 209 490.3 209 470.8 209C451.3 209 431.7 209 412 209C392.3 209 372.7 209 353 209C333.3 209 313.7 209 294 209C274.3 209 254.7 209 235 209C215.3 209 195.7 209 176.2 209C156.7 209 137.3 209 117.8 209C98.3 209 78.7 209 59 209C39.3 209 19.7 209 9.8 209L0 209Z" fill="#3d1b03"></path></svg>