<svg id="visual" viewBox="0 0 1000 208" width="1000" height="208" xmlns="http://www.w3.org/2000/svg" xmlns:xlink="http://www.w3.org/1999/xlink" version="1.1"><rect x="0" y="0" width="1000" height="208" fill="#3d1b03"></rect><path d="M0 68L9.8 65C19.7 62 39.3 56 59 56C78.7 56 98.3 62 117.8 62.8C137.3 63.7 156.7 59.3 176.2 56.5C195.7 53.7 215.3 52.3 235 57.5C254.7 62.7 274.3 74.3 294 73.5C313.7 72.7 333.3 59.3 353 55C372.7 50.7 392.3 55.3 412 51.8C431.7 48.3 451.3 36.7 470.8 33.7C490.3 30.7 509.7 36.3 529.2 43C548.7 49.7 568.3 57.3 588 59.8C607.7 62.3 627.3 59.7 647 58C666.7 56.3 686.3 55.7 706 52.3C725.7 49 745.3 43 765 40.2C784.7 37.3 804.3 37.7 823.8 38.7C843.3 39.7 862.7 41.3 882.2 48.7C901.7 56 921.3 69 941 77.2C960.7 85.3 980.3 88.7 990.2 90.3L1000 92L1000 209L990.2 209C980.3 209 960.7 209 941 209C921.3 209 901.7 209 882.2 209C862.7 209 843.3 209 823.8 209C804.3 209 784.7 209 765 209C745.3 209 725.7 209 706 209C686.3 209 666.7 209 647 209C627.3 209 607.7 209 588 209C568.3 209 548.7 209 529.2 209C509.7 209 490.3 209 470.8 209C451.3 209 431.7 209 412 209C392.3 209 372.7 209 353 209C333.3 209 313.7 209 294 209C274.3 209 254.7 209 235 209C215.3 209 195.7 209 176.2 209C156.7 209 137.3 209 117.8 209C98.3 209 78.7 209 59 209C39.3 209 19.7 209 9.8 209L0 209Z" fill="#3d1b03"></path><path d="M0 58L9.8 62C19.7 66 39.3 74 59 82.5C78.7 91 98.3 100 117.8 96.5C137.3 93 156.7 77 176.2 68.7C195.7 60.3 215.3 59.7 235 57.2C254.7 54.7 274.3 50.3 294 57.3C313.7 64.3 333.3 82.7 353 92.8C372.7 103 392.3 105 412 101.3C431.7 97.7 451.3 88.3 470.8 81.3C490.3 74.3 509.7 69.7 529.2 73.3C548.7 77 568.3 89 588 89.2C607.7 89.3 627.3 77.7 647 71.8C666.7 66 686.3 66 706 62.3C725.7 58.7 745.3 51.3 765 56.3C784.7 61.3 804.3 78.7 823.8 84C843.3 89.3 862.7 82.7 882.2 75.8C901.7 69 921.3 62 941 56.5C960.7 51 980.3 47 990.2 45L1000 43L1000 209L990.2 209C980.3 209 960.7 209 941 209C921.3 209 901.7 209 882.2 209C862.7 209 843.3 209 823.8 209C804.3 209 784.7 209 765 209C745.3 209 725.7 209 706 209C686.3 209 666.7 209 647 209C627.3 209 607.7 209 588 209C568.3 209 548.7 209 529.2 209C509.7 209 490.3 209 470.8 209C451.3 209 431.7 209 412 209C392.3 209 372.7 209 353 209C333.3 209 313.7 209 294 209C274.3 209 254.7 209 235 209C215.3 209 195.7 209 176.2 209C156.7 209 137.3 209 117.8 209C98.3 209 78.7 209 59 209C39.3 209 19.7 209 9.8 209L0 209Z" fill="#4a2208"></path><path d="M0 129L9.8 124.5C19.7 120 39.3 111 59 105.8C78.7 100.7 98.3 99.3 117.8 93.3C137.3 87.3 156.7 76.7 176.2 79.3C195.7 82 215.3 98 235 100.3C254.7 102.7 274.3 91.3 294 84.8C313.7 78.3 333.3 76.7 353 78C372.7 79.3 392.3 83.7 412 91.7C431.7 99.7 451.3 111.3 470.8 114.8C490.3 118.3 509.7 113.7 529.2 106.8C548.7 100 568.3 91 588 90C607.7 89 627.3 96 647 99.7C666.7 103.3 686.3 103.7 706 103.3C725.7 103 745.3 102 765 98.3C784.7 94.7 804.3 88.3 823.8 91.8C843.3 95.3 862.7 108.7 882.2 111.2C901.7 113.7 921.3 105.3 941 100.3C960.7 95.3 980.3 93.7 990.2 92.8L1000 92L1000 209L990.2 209C980.3 209 960.7 209 941 209C921.3 209 901.7 209 882.2 209C862.7 209 843.3 209 823.8 209C804.3 209 784.7 209 765 209C745.3 209 725.7 209 706 209C686.3 209 666.7 209 647 209C627.3 209 607.7 209 588 209C568.3 209 548.7 209 529.2 209C509.7 209 490.3 209 470.8 209C451.3 209 431.7 209 412 209C392.3 209 372.7 209 353 209C333.3 209 313.7 209 294 209C274.3 209 254.7 209 235 209C215.3 209 195.7 209 176.2 209C156.7 209 137.3 209 117.8 209C98.3 209 78.7 209 59 209C39.3 209 19.7 209 9.8 209L0 209Z" fill="#58290c"></path><path d="M0 139L9.8 137.7C19.7 136.3 39.3 133.7 59 127.2C78.7 120.7 98.3 110.3 117.8 108.3C137.3 106.3 156.7 112.7 176.2 115.2C195.7 117.7 215.3 116.3 235 115.3C254.7 114.3 274.3 113.7 294 112.3C313.7 111 333.3 109 353 111C372.7 113 392.3 119 412 125.5C431.7 132 451.3 139 470.8 135C490.3 131 509.7 116 529.2 109.8C548.7 103.7 568.3 106.3 588 110.2C607.7 114 627.3 119 647 118.7C666.7 118.3 686.3 112.7 706 116.5C725.7 120.3 745.3 133.7 765 132.8C784.7 132 804.3 117 823.8 117.2C843.3 117.3 862.7 132.7 882.2 135.5C901.7 138.3 921.3 128.7 941 123.2C960.7 117.7 980.3 116.3 990.2 115.7L1000 115L1000 209L990.2 209C980.3 209 960.7 209 941 209C921.3 209 901.7 209 882.2 209C862.7 209 843.3 209 823.8 209C804.3 209 784.7 209 765 209C745.3 209 725.7 209 706 209C686.3 209 666.7 209 647 209C627.3 209 607.7 209 588 209C568.3 209 548.7 209 529.2 209C509.7 209 490.3 209 470.8 209C451.3 209 431.7 209 412 209C392.3 209 372.7 209 353 209C333.3 209 313.7 209 294 209C274.3 209 254.7 209 235 209C215.3 209 195.7 209 176.2 209C156.7 209 137.3 209 117.8 209C98.3 209 78.7 209 59 209C39.3 209 19.7 209 9.8 209L0 209Z" fill="#66310e"></path><path d="M0 158L9.8 157C19.7 156 39.3 154 59 153.2C78.7 152.3 98.3 152.7 117.8 153.2C137.3 153.7 156.7 154.3 176.2 148.7C195.7 143 215.3 131 235 131.2C254.7 131.3 274.3 143.7 294 150.2C313.7 156.7 333.3 157.3 353 153.3C372.7 149.3 392.3 140.7 412 137C431.7 133.3 451.3 134.7 470.8 137.8C490.3 141 509.7 146 529.2 149.2C548.7 152.3 568.3 153.7 588 149.5C607.7 145.3 627.3 135.7 647 133.2C666.7 130.7 686.3 135.3 706 133.3C725.7 131.3 745.3 122.7 765 124.7C784.7 126.7 804.3 139.3 823.8 142.2C843.3 145 862.7 138 882.2 133.5C901.7 129 921.3 127 941 126.2C960.7 125.3 980.3 125.7 990.2 125.8L1000 126L1000 209L990.2 209C980.3 209 960.7 209 941 209C921.3 209 901.7 209 882.2 209C862.7 209 843.3 209 823.8 209C804.3 209 784.7 209 765 209C745.3 209 725.7 209 706 209C686.3 209 666.7 209 647 209C627.3 209 607.7 209 588 209C568.3 209 548.7 209 529.2 209C509.7 209 490.3 209 470.8 209C451.3 209 431.7 209 412 209C392.3 209 372.7 209 353 209C333.3 209 313.7 209 294 209C274.3 209 254.7 209 235 209C215.3 209 195.7 209 176.2 209C156.7 209 137.3 209 117.8 209C98.3 209 78.7 209 59 209C39.3 209 19.7 209 9.8 209L0 209Z" fill="#743810"></path><path d="M0 175L9.8 172.3C19.7 169.7 39.3 164.3 59 160.2C78.7 156 98.3 153 117.8 153.8C137.3 154.7 156.7 159.3 176.2 157.8C195.7 156.3 215.3 148.7 235 149.8C254.7 151 274.3 161 294 165.8C313.7 170.7 333.3 170.3 353 169C372.7 167.7 392.3 165.3 412 164.8C431.7 164.3 451.3 165.7 470.8 161.7C490.3 157.7 509.7 148.3 529.2 147.8C548.7 147.3 568.3 155.7 588 155.7C607.7 155.7 627.3 147.3 647 146.5C666.7 145.7 686.3 152.3 706 153.2C725.7 154 745.3 149 765 146.7C784.7 144.3 804.3 144.7 823.8 148.7C843.3 152.7 862.7 160.3 882.2 165.8C901.7 171.3 921.3 174.7 941 172.3C960.7 170 980.3 162 990.2 158L1000 154L1000 209L990.2 209C980.3 209 960.7 209 941 209C921.3 209 901.7 209 882.2 209C862.7 209 843.3 209 823.8 209C804.3 209 784.7 209 765 209C745.3 209 725.7 209 706 209C686.3 209 666.7 209 647 209C627.3 209 607.7 209 588 209C568.3 209 548.7 209 529.2 209C509.7 209 490.3 209 470.8 209C451.3 209 431.7 209 412 209C392.3 209 372.7 209 353 209C333.3 209 313.7 209 294 209C274.3 209 254.7 209 235 209C215.3 209 195.7 209 176.2 209C156.7 209 137.3 209 117.8 209C98.3 209 78.7 209 59 209C39.3 209 19.7 209 9.8 209L0 209Z" fill="#824012"></path><path d="M0 171L9.8 170.8C19.7 170.7 39.3 170.3 59 173.3C78.7 176.3 98.3 182.7 117.8 182.7C137.3 182.7 156.7 176.3 176.2 177.3C195.7 178.3 215.3 186.7 235 186.3C254.7 186 274.3 177 294 172.3C313.7 167.7 333.3 167.3 353 169.5C372.7 171.7 392.3 176.3 412 178.5C431.7 180.7 451.3 180.3 470.8 177.8C490.3 175.3 509.7 170.7 529.2 169.8C548.7 169 568.3 172 588 176.3C607.7 180.7 627.3 186.3 647 187.3C666.7 188.3 686.3 184.7 706 184.8C725.7 185 745.3 189 765 187.3C784.7 185.7 804.3 178.3 823.8 174C843.3 169.7 862.7 168.3 882.2 171.3C901.7 174.3 921.3 181.7 941 181.3C960.7 181 980.3 173 990.2 169L1000 165L1000 209L990.2 209C980.3 209 960.7 209 941 209C921.3 209 901.7 209 882.2 209C862.7 209 843.3 209 823.8 209C804.3 209 784.7 209 765 209C745.3 209 725.7 209 706 209C686.3 209 666.7 209 647 209C627.3 209 607.7 209 588 209C568.3 209 548.7 209 529.2 209C509.7 209 490.3 209 470.8 209C451.3 209 431.7 209 412 209C392.3 209 372.7 209 353 209C333.3 209 313.7 209 294 209C274.3 209 254.7 209 235 209C215.3 209 195.7 209 176.2 209C156.7 209 137.3 209 117.8 209C98.3 209 78.7 209 59 209C39.3 209 19.7 209 9.8 209L0 209Z" fill="#914814"></path></svg>