<svg id="visual" viewBox="0 0 1000 208" width="1000" height="208" xmlns="http://www.w3.org/2000/svg" xmlns:xlink="http://www.w3.org/1999/xlink" version="1.1"><rect x="0" y="0" width="1000" height="208" fill="#914814"></rect><path d="M0 27L9.8 27.8C19.7 28.7 39.3 30.3 59 34C78.7 37.7 98.3 43.3 117.8 47.7C137.3 52 156.7 55 176.2 55.7C195.7 56.3 215.3 54.7 235 52.3C254.7 50 274.3 47 294 44.2C313.7 41.3 333.3 38.7 353 39.5C372.7 40.3 392.3 44.7 412 45.2C431.7 45.7 451.3 42.3 470.8 46.2C490.3 50 509.7 61 529.2 58.2C548.7 55.3 568.3 38.7 588 31.2C607.7 23.7 627.3 25.3 647 32.3C666.7 39.3 686.3 51.7 706 59C725.7 66.3 745.3 68.7 765 69C784.7 69.3 804.3 67.7 823.8 59.3C843.3 51 862.7 36 882.2 30C901.7 24 921.3 27 941 27.2C960.7 27.3 980.3 24.7 990.2 23.3L1000 22L1000 209L990.2 209C980.3 209 960.7 209 941 209C921.3 209 901.7 209 882.2 209C862.7 209 843.3 209 823.8 209C804.3 209 784.7 209 765 209C745.3 209 725.7 209 706 209C686.3 209 666.7 209 647 209C627.3 209 607.7 209 588 209C568.3 209 548.7 209 529.2 209C509.7 209 490.3 209 470.8 209C451.3 209 431.7 209 412 209C392.3 209 372.7 209 353 209C333.3 209 313.7 209 294 209C274.3 209 254.7 209 235 209C215.3 209 195.7 209 176.2 209C156.7 209 137.3 209 117.8 209C98.3 209 78.7 209 59 209C39.3 209 19.7 209 9.8 209L0 209Z" fill="#914814"></path><path d="M0 63L9.8 60.5C19.7 58 39.3 53 59 55C78.7 57 98.3 66 117.8 74.8C137.3 83.7 156.7 92.3 176.2 94.3C195.7 96.3 215.3 91.7 235 89.5C254.7 87.3 274.3 87.7 294 84.3C313.7 81 333.3 74 353 77.3C372.7 80.7 392.3 94.3 412 93.5C431.7 92.7 451.3 77.3 470.8 75.5C490.3 73.7 509.7 85.3 529.2 81.8C548.7 78.3 568.3 59.7 588 58.3C607.7 57 627.3 73 647 76.7C666.7 80.3 686.3 71.7 706 66.7C725.7 61.7 745.3 60.3 765 56.8C784.7 53.3 804.3 47.7 823.8 49.7C843.3 51.7 862.7 61.3 882.2 65.8C901.7 70.3 921.3 69.7 941 71.2C960.7 72.7 980.3 76.3 990.2 78.2L1000 80L1000 209L990.2 209C980.3 209 960.7 209 941 209C921.3 209 901.7 209 882.2 209C862.7 209 843.3 209 823.8 209C804.3 209 784.7 209 765 209C745.3 209 725.7 209 706 209C686.3 209 666.7 209 647 209C627.3 209 607.7 209 588 209C568.3 209 548.7 209 529.2 209C509.7 209 490.3 209 470.8 209C451.3 209 431.7 209 412 209C392.3 209 372.7 209 353 209C333.3 209 313.7 209 294 209C274.3 209 254.7 209 235 209C215.3 209 195.7 209 176.2 209C156.7 209 137.3 209 117.8 209C98.3 209 78.7 209 59 209C39.3 209 19.7 209 9.8 209L0 209Z" fill="#8a4412"></path><path d="M0 130L9.8 125.7C19.7 121.3 39.3 112.7 59 106C78.7 99.3 98.3 94.7 117.8 91.2C137.3 87.7 156.7 85.3 176.2 83.5C195.7 81.7 215.3 80.3 235 79.8C254.7 79.3 274.3 79.7 294 86C313.7 92.3 333.3 104.7 353 102.5C372.7 100.3 392.3 83.7 412 78C431.7 72.3 451.3 77.7 470.8 87.2C490.3 96.7 509.7 110.3 529.2 112.5C548.7 114.7 568.3 105.3 588 100.3C607.7 95.3 627.3 94.7 647 93C666.7 91.3 686.3 88.7 706 85.7C725.7 82.7 745.3 79.3 765 84C784.7 88.7 804.3 101.3 823.8 110.2C843.3 119 862.7 124 882.2 123.5C901.7 123 921.3 117 941 110.8C960.7 104.7 980.3 98.3 990.2 95.2L1000 92L1000 209L990.2 209C980.3 209 960.7 209 941 209C921.3 209 901.7 209 882.2 209C862.7 209 843.3 209 823.8 209C804.3 209 784.7 209 765 209C745.3 209 725.7 209 706 209C686.3 209 666.7 209 647 209C627.3 209 607.7 209 588 209C568.3 209 548.7 209 529.2 209C509.7 209 490.3 209 470.8 209C451.3 209 431.7 209 412 209C392.3 209 372.7 209 353 209C333.3 209 313.7 209 294 209C274.3 209 254.7 209 235 209C215.3 209 195.7 209 176.2 209C156.7 209 137.3 209 117.8 209C98.3 209 78.7 209 59 209C39.3 209 19.7 209 9.8 209L0 209Z" fill="#834010"></path><path d="M0 147L9.8 140C19.7 133 39.3 119 59 113.8C78.7 108.7 98.3 112.3 117.8 111.2C137.3 110 156.7 104 176.2 104.7C195.7 105.3 215.3 112.7 235 111.5C254.7 110.3 274.3 100.7 294 102.7C313.7 104.7 333.3 118.3 353 125.2C372.7 132 392.3 132 412 132.5C431.7 133 451.3 134 470.8 136C490.3 138 509.7 141 529.2 138.5C548.7 136 568.3 128 588 122.7C607.7 117.3 627.3 114.7 647 117.7C666.7 120.7 686.3 129.3 706 129.2C725.7 129 745.3 120 765 113C784.7 106 804.3 101 823.8 100.7C843.3 100.3 862.7 104.7 882.2 106C901.7 107.3 921.3 105.7 941 108C960.7 110.3 980.3 116.7 990.2 119.8L1000 123L1000 209L990.2 209C980.3 209 960.7 209 941 209C921.3 209 901.7 209 882.2 209C862.7 209 843.3 209 823.8 209C804.3 209 784.7 209 765 209C745.3 209 725.7 209 706 209C686.3 209 666.7 209 647 209C627.3 209 607.7 209 588 209C568.3 209 548.7 209 529.2 209C509.7 209 490.3 209 470.8 209C451.3 209 431.7 209 412 209C392.3 209 372.7 209 353 209C333.3 209 313.7 209 294 209C274.3 209 254.7 209 235 209C215.3 209 195.7 209 176.2 209C156.7 209 137.3 209 117.8 209C98.3 209 78.7 209 59 209C39.3 209 19.7 209 9.8 209L0 209Z" fill="#7c3c0e"></path><path d="M0 124L9.8 127.8C19.7 131.7 39.3 139.3 59 138.7C78.7 138 98.3 129 117.8 123.8C137.3 118.7 156.7 117.3 176.2 123.5C195.7 129.7 215.3 143.3 235 145C254.7 146.7 274.3 136.3 294 130.7C313.7 125 333.3 124 353 128C372.7 132 392.3 141 412 141.5C431.7 142 451.3 134 470.8 131.8C490.3 129.7 509.7 133.3 529.2 133.7C548.7 134 568.3 131 588 131.2C607.7 131.3 627.3 134.7 647 139C666.7 143.3 686.3 148.7 706 150.2C725.7 151.7 745.3 149.3 765 151C784.7 152.7 804.3 158.3 823.8 157C843.3 155.7 862.7 147.3 882.2 145.5C901.7 143.7 921.3 148.3 941 147.8C960.7 147.3 980.3 141.7 990.2 138.8L1000 136L1000 209L990.2 209C980.3 209 960.7 209 941 209C921.3 209 901.7 209 882.2 209C862.7 209 843.3 209 823.8 209C804.3 209 784.7 209 765 209C745.3 209 725.7 209 706 209C686.3 209 666.7 209 647 209C627.3 209 607.7 209 588 209C568.3 209 548.7 209 529.2 209C509.7 209 490.3 209 470.8 209C451.3 209 431.7 209 412 209C392.3 209 372.7 209 353 209C333.3 209 313.7 209 294 209C274.3 209 254.7 209 235 209C215.3 209 195.7 209 176.2 209C156.7 209 137.3 209 117.8 209C98.3 209 78.7 209 59 209C39.3 209 19.7 209 9.8 209L0 209Z" fill="#75380c"></path><path d="M0 161L9.8 161.7C19.7 162.3 39.3 163.7 59 160.8C78.7 158 98.3 151 117.8 149.5C137.3 148 156.7 152 176.2 157.2C195.7 162.3 215.3 168.7 235 172.7C254.7 176.7 274.3 178.3 294 176.5C313.7 174.7 333.3 169.3 353 164.7C372.7 160 392.3 156 412 155.8C431.7 155.7 451.3 159.3 470.8 160.7C490.3 162 509.7 161 529.2 157.3C548.7 153.7 568.3 147.3 588 147.3C607.7 147.3 627.3 153.7 647 160.2C666.7 166.7 686.3 173.3 706 171.7C725.7 170 745.3 160 765 159C784.7 158 804.3 166 823.8 168.3C843.3 170.7 862.7 167.3 882.2 167.8C901.7 168.3 921.3 172.7 941 174.7C960.7 176.7 980.3 176.3 990.2 176.2L1000 176L1000 209L990.2 209C980.3 209 960.7 209 941 209C921.3 209 901.7 209 882.2 209C862.7 209 843.3 209 823.8 209C804.3 209 784.7 209 765 209C745.3 209 725.7 209 706 209C686.3 209 666.7 209 647 209C627.3 209 607.7 209 588 209C568.3 209 548.7 209 529.2 209C509.7 209 490.3 209 470.8 209C451.3 209 431.7 209 412 209C392.3 209 372.7 209 353 209C333.3 209 313.7 209 294 209C274.3 209 254.7 209 235 209C215.3 209 195.7 209 176.2 209C156.7 209 137.3 209 117.8 209C98.3 209 78.7 209 59 209C39.3 209 19.7 209 9.8 209L0 209Z" fill="#6e340b"></path><path d="M0 183L9.8 185C19.7 187 39.3 191 59 189.8C78.7 188.7 98.3 182.3 117.8 179.5C137.3 176.7 156.7 177.3 176.2 176.5C195.7 175.7 215.3 173.3 235 176.2C254.7 179 274.3 187 294 190.2C313.7 193.3 333.3 191.7 353 189.8C372.7 188 392.3 186 412 187.2C431.7 188.3 451.3 192.7 470.8 191.7C490.3 190.7 509.7 184.3 529.2 181.7C548.7 179 568.3 180 588 180.2C607.7 180.3 627.3 179.7 647 181.3C666.7 183 686.3 187 706 186.7C725.7 186.3 745.3 181.7 765 182.3C784.7 183 804.3 189 823.8 190.2C843.3 191.3 862.7 187.7 882.2 183.2C901.7 178.7 921.3 173.3 941 172.7C960.7 172 980.3 176 990.2 178L1000 180L1000 209L990.2 209C980.3 209 960.7 209 941 209C921.3 209 901.7 209 882.2 209C862.7 209 843.3 209 823.8 209C804.3 209 784.7 209 765 209C745.3 209 725.7 209 706 209C686.3 209 666.7 209 647 209C627.3 209 607.7 209 588 209C568.3 209 548.7 209 529.2 209C509.7 209 490.3 209 470.8 209C451.3 209 431.7 209 412 209C392.3 209 372.7 209 353 209C333.3 209 313.7 209 294 209C274.3 209 254.7 209 235 209C215.3 209 195.7 209 176.2 209C156.7 209 137.3 209 117.8 209C98.3 209 78.7 209 59 209C39.3 209 19.7 209 9.8 209L0 209Z" fill="#673009"></path></svg>