<svg id="visual" viewBox="0 0 1000 208" width="1000" height="208" xmlns="http://www.w3.org/2000/svg" xmlns:xlink="http://www.w3.org/1999/xlink" version="1.1"><rect x="0" y="0" width="1000" height="208" fill="#3d1b03"></rect><path d="M0 24L9.8 29.8C19.7 35.7 39.3 47.3 59 53.7C78.7 60 98.3 61 117.8 64.8C137.3 68.7 156.7 75.3 176.2 71.8C195.7 68.3 215.3 54.7 235 54.5C254.7 54.3 274.3 67.7 294 71.3C313.7 75 333.3 69 353 61.7C372.7 54.3 392.3 45.7 412 46.7C431.7 47.7 451.3 58.3 470.8 63.3C490.3 68.3 509.7 67.7 529.2 70.8C548.7 74 568.3 81 588 84.5C607.7 88 627.3 88 647 86.3C666.7 84.7 686.3 81.3 706 80.7C725.7 80 745.3 82 765 78.3C784.7 74.7 804.3 65.3 823.8 54.8C843.3 44.3 862.7 32.7 882.2 34.7C901.7 36.7 921.3 52.3 941 64.3C960.7 76.3 980.3 84.7 990.2 88.8L1000 93L1000 209L990.2 209C980.3 209 960.7 209 941 209C921.3 209 901.7 209 882.2 209C862.7 209 843.3 209 823.8 209C804.3 209 784.7 209 765 209C745.3 209 725.7 209 706 209C686.3 209 666.7 209 647 209C627.3 209 607.7 209 588 209C568.3 209 548.7 209 529.2 209C509.7 209 490.3 209 470.8 209C451.3 209 431.7 209 412 209C392.3 209 372.7 209 353 209C333.3 209 313.7 209 294 209C274.3 209 254.7 209 235 209C215.3 209 195.7 209 176.2 209C156.7 209 137.3 209 117.8 209C98.3 209 78.7 209 59 209C39.3 209 19.7 209 9.8 209L0 209Z" fill="#3d1b03"></path><path d="M0 104L9.8 102.5C19.7 101 39.3 98 59 88.3C78.7 78.7 98.3 62.3 117.8 61.2C137.3 60 156.7 74 176.2 79.5C195.7 85 215.3 82 235 83.3C254.7 84.7 274.3 90.3 294 91.7C313.7 93 333.3 90 353 82C372.7 74 392.3 61 412 57.5C431.7 54 451.3 60 470.8 69.3C490.3 78.7 509.7 91.3 529.2 95.3C548.7 99.3 568.3 94.7 588 94.5C607.7 94.3 627.3 98.7 647 96.5C666.7 94.3 686.3 85.7 706 86.8C725.7 88 745.3 99 765 100C784.7 101 804.3 92 823.8 82C843.3 72 862.7 61 882.2 64.2C901.7 67.3 921.3 84.7 941 91C960.7 97.3 980.3 92.7 990.2 90.3L1000 88L1000 209L990.2 209C980.3 209 960.7 209 941 209C921.3 209 901.7 209 882.2 209C862.7 209 843.3 209 823.8 209C804.3 209 784.7 209 765 209C745.3 209 725.7 209 706 209C686.3 209 666.7 209 647 209C627.3 209 607.7 209 588 209C568.3 209 548.7 209 529.2 209C509.7 209 490.3 209 470.8 209C451.3 209 431.7 209 412 209C392.3 209 372.7 209 353 209C333.3 209 313.7 209 294 209C274.3 209 254.7 209 235 209C215.3 209 195.7 209 176.2 209C156.7 209 137.3 209 117.8 209C98.3 209 78.7 209 59 209C39.3 209 19.7 209 9.8 209L0 209Z" fill="#441e05"></path><path d="M0 105L9.8 104C19.7 103 39.3 101 59 104.5C78.7 108 98.3 117 117.8 120C137.3 123 156.7 120 176.2 119.5C195.7 119 215.3 121 235 121.7C254.7 122.3 274.3 121.7 294 114.2C313.7 106.7 333.3 92.3 353 83.5C372.7 74.7 392.3 71.3 412 71.8C431.7 72.3 451.3 76.7 470.8 81.3C490.3 86 509.7 91 529.2 93.3C548.7 95.7 568.3 95.3 588 98.2C607.7 101 627.3 107 647 102.3C666.7 97.7 686.3 82.3 706 76.2C725.7 70 745.3 73 765 73.5C784.7 74 804.3 72 823.8 76C843.3 80 862.7 90 882.2 89.2C901.7 88.3 921.3 76.7 941 74.2C960.7 71.7 980.3 78.3 990.2 81.7L1000 85L1000 209L990.2 209C980.3 209 960.7 209 941 209C921.3 209 901.7 209 882.2 209C862.7 209 843.3 209 823.8 209C804.3 209 784.7 209 765 209C745.3 209 725.7 209 706 209C686.3 209 666.7 209 647 209C627.3 209 607.7 209 588 209C568.3 209 548.7 209 529.2 209C509.7 209 490.3 209 470.8 209C451.3 209 431.7 209 412 209C392.3 209 372.7 209 353 209C333.3 209 313.7 209 294 209C274.3 209 254.7 209 235 209C215.3 209 195.7 209 176.2 209C156.7 209 137.3 209 117.8 209C98.3 209 78.7 209 59 209C39.3 209 19.7 209 9.8 209L0 209Z" fill="#4b2206"></path><path d="M0 140L9.8 138.8C19.7 137.7 39.3 135.3 59 134.5C78.7 133.7 98.3 134.3 117.8 133C137.3 131.7 156.7 128.3 176.2 122.8C195.7 117.3 215.3 109.7 235 104.7C254.7 99.7 274.3 97.3 294 97C313.7 96.7 333.3 98.3 353 97.5C372.7 96.7 392.3 93.3 412 93C431.7 92.7 451.3 95.3 470.8 102.2C490.3 109 509.7 120 529.2 125C548.7 130 568.3 129 588 124.8C607.7 120.7 627.3 113.3 647 115.2C666.7 117 686.3 128 706 127.3C725.7 126.7 745.3 114.3 765 107.2C784.7 100 804.3 98 823.8 98.3C843.3 98.7 862.7 101.3 882.2 100.3C901.7 99.3 921.3 94.7 941 95.3C960.7 96 980.3 102 990.2 105L1000 108L1000 209L990.2 209C980.3 209 960.7 209 941 209C921.3 209 901.7 209 882.2 209C862.7 209 843.3 209 823.8 209C804.3 209 784.7 209 765 209C745.3 209 725.7 209 706 209C686.3 209 666.7 209 647 209C627.3 209 607.7 209 588 209C568.3 209 548.7 209 529.2 209C509.7 209 490.3 209 470.8 209C451.3 209 431.7 209 412 209C392.3 209 372.7 209 353 209C333.3 209 313.7 209 294 209C274.3 209 254.7 209 235 209C215.3 209 195.7 209 176.2 209C156.7 209 137.3 209 117.8 209C98.3 209 78.7 209 59 209C39.3 209 19.7 209 9.8 209L0 209Z" fill="#522507"></path><path d="M0 146L9.8 143.8C19.7 141.7 39.3 137.3 59 133.7C78.7 130 98.3 127 117.8 130.2C137.3 133.3 156.7 142.7 176.2 145.3C195.7 148 215.3 144 235 138C254.7 132 274.3 124 294 121C313.7 118 333.3 120 353 127.8C372.7 135.7 392.3 149.3 412 155C431.7 160.7 451.3 158.3 470.8 157C490.3 155.7 509.7 155.3 529.2 153C548.7 150.7 568.3 146.3 588 146.5C607.7 146.7 627.3 151.3 647 149C666.7 146.7 686.3 137.3 706 137.8C725.7 138.3 745.3 148.7 765 152C784.7 155.3 804.3 151.7 823.8 147.5C843.3 143.3 862.7 138.7 882.2 134.8C901.7 131 921.3 128 941 132C960.7 136 980.3 147 990.2 152.5L1000 158L1000 209L990.2 209C980.3 209 960.7 209 941 209C921.3 209 901.7 209 882.2 209C862.7 209 843.3 209 823.8 209C804.3 209 784.7 209 765 209C745.3 209 725.7 209 706 209C686.3 209 666.7 209 647 209C627.3 209 607.7 209 588 209C568.3 209 548.7 209 529.2 209C509.7 209 490.3 209 470.8 209C451.3 209 431.7 209 412 209C392.3 209 372.7 209 353 209C333.3 209 313.7 209 294 209C274.3 209 254.7 209 235 209C215.3 209 195.7 209 176.2 209C156.7 209 137.3 209 117.8 209C98.3 209 78.7 209 59 209C39.3 209 19.7 209 9.8 209L0 209Z" fill="#592908"></path><path d="M0 153L9.8 154.2C19.7 155.3 39.3 157.7 59 159.7C78.7 161.7 98.3 163.3 117.8 165.2C137.3 167 156.7 169 176.2 170.7C195.7 172.3 215.3 173.7 235 170.2C254.7 166.7 274.3 158.3 294 155.5C313.7 152.7 333.3 155.3 353 153.7C372.7 152 392.3 146 412 144C431.7 142 451.3 144 470.8 150.5C490.3 157 509.7 168 529.2 170.2C548.7 172.3 568.3 165.7 588 162.3C607.7 159 627.3 159 647 157.3C666.7 155.7 686.3 152.3 706 151C725.7 149.7 745.3 150.3 765 154C784.7 157.7 804.3 164.3 823.8 167.8C843.3 171.3 862.7 171.7 882.2 168.5C901.7 165.3 921.3 158.7 941 157.5C960.7 156.3 980.3 160.7 990.2 162.8L1000 165L1000 209L990.2 209C980.3 209 960.7 209 941 209C921.3 209 901.7 209 882.2 209C862.7 209 843.3 209 823.8 209C804.3 209 784.7 209 765 209C745.3 209 725.7 209 706 209C686.3 209 666.7 209 647 209C627.3 209 607.7 209 588 209C568.3 209 548.7 209 529.2 209C509.7 209 490.3 209 470.8 209C451.3 209 431.7 209 412 209C392.3 209 372.7 209 353 209C333.3 209 313.7 209 294 209C274.3 209 254.7 209 235 209C215.3 209 195.7 209 176.2 209C156.7 209 137.3 209 117.8 209C98.3 209 78.7 209 59 209C39.3 209 19.7 209 9.8 209L0 209Z" fill="#602c09"></path><path d="M0 169L9.8 168.7C19.7 168.3 39.3 167.7 59 169.2C78.7 170.7 98.3 174.3 117.8 175.5C137.3 176.7 156.7 175.3 176.2 178.2C195.7 181 215.3 188 235 187C254.7 186 274.3 177 294 172C313.7 167 333.3 166 353 165.7C372.7 165.3 392.3 165.7 412 171.2C431.7 176.7 451.3 187.3 470.8 189.2C490.3 191 509.7 184 529.2 180C548.7 176 568.3 175 588 174.5C607.7 174 627.3 174 647 172.3C666.7 170.7 686.3 167.3 706 170.7C725.7 174 745.3 184 765 184.8C784.7 185.7 804.3 177.3 823.8 178.2C843.3 179 862.7 189 882.2 190.2C901.7 191.3 921.3 183.7 941 178.8C960.7 174 980.3 172 990.2 171L1000 170L1000 209L990.2 209C980.3 209 960.7 209 941 209C921.3 209 901.7 209 882.2 209C862.7 209 843.3 209 823.8 209C804.3 209 784.7 209 765 209C745.3 209 725.7 209 706 209C686.3 209 666.7 209 647 209C627.3 209 607.7 209 588 209C568.3 209 548.7 209 529.2 209C509.7 209 490.3 209 470.8 209C451.3 209 431.7 209 412 209C392.3 209 372.7 209 353 209C333.3 209 313.7 209 294 209C274.3 209 254.7 209 235 209C215.3 209 195.7 209 176.2 209C156.7 209 137.3 209 117.8 209C98.3 209 78.7 209 59 209C39.3 209 19.7 209 9.8 209L0 209Z" fill="#673009"></path></svg>