<svg id="visual" viewBox="0 0 1000 208" width="1000" height="208" xmlns="http://www.w3.org/2000/svg" xmlns:xlink="http://www.w3.org/1999/xlink" version="1.1"><rect x="0" y="0" width="1000" height="208" fill="#673009"></rect><path d="M0 84L9.8 76.3C19.7 68.7 39.3 53.3 59 54.3C78.7 55.3 98.3 72.7 117.8 70C137.3 67.3 156.7 44.7 176.2 35C195.7 25.3 215.3 28.7 235 37C254.7 45.3 274.3 58.7 294 57C313.7 55.3 333.3 38.7 353 31C372.7 23.3 392.3 24.7 412 26.5C431.7 28.3 451.3 30.7 470.8 39.5C490.3 48.3 509.7 63.7 529.2 71C548.7 78.3 568.3 77.7 588 72C607.7 66.3 627.3 55.7 647 49.7C666.7 43.7 686.3 42.3 706 46.2C725.7 50 745.3 59 765 65.5C784.7 72 804.3 76 823.8 76.5C843.3 77 862.7 74 882.2 64.3C901.7 54.7 921.3 38.3 941 37.7C960.7 37 980.3 52 990.2 59.5L1000 67L1000 209L990.2 209C980.3 209 960.7 209 941 209C921.3 209 901.7 209 882.2 209C862.7 209 843.3 209 823.8 209C804.3 209 784.7 209 765 209C745.3 209 725.7 209 706 209C686.3 209 666.7 209 647 209C627.3 209 607.7 209 588 209C568.3 209 548.7 209 529.2 209C509.7 209 490.3 209 470.8 209C451.3 209 431.7 209 412 209C392.3 209 372.7 209 353 209C333.3 209 313.7 209 294 209C274.3 209 254.7 209 235 209C215.3 209 195.7 209 176.2 209C156.7 209 137.3 209 117.8 209C98.3 209 78.7 209 59 209C39.3 209 19.7 209 9.8 209L0 209Z" fill="#673009"></path><path d="M0 52L9.8 59.5C19.7 67 39.3 82 59 88.7C78.7 95.3 98.3 93.7 117.8 95.2C137.3 96.7 156.7 101.3 176.2 103.7C195.7 106 215.3 106 235 100.3C254.7 94.7 274.3 83.3 294 72.8C313.7 62.3 333.3 52.7 353 52.5C372.7 52.3 392.3 61.7 412 69.7C431.7 77.7 451.3 84.3 470.8 83.2C490.3 82 509.7 73 529.2 67.3C548.7 61.7 568.3 59.3 588 55.5C607.7 51.7 627.3 46.3 647 52.8C666.7 59.3 686.3 77.7 706 84.8C725.7 92 745.3 88 765 79.2C784.7 70.3 804.3 56.7 823.8 53.3C843.3 50 862.7 57 882.2 58.7C901.7 60.3 921.3 56.7 941 60.3C960.7 64 980.3 75 990.2 80.5L1000 86L1000 209L990.2 209C980.3 209 960.7 209 941 209C921.3 209 901.7 209 882.2 209C862.7 209 843.3 209 823.8 209C804.3 209 784.7 209 765 209C745.3 209 725.7 209 706 209C686.3 209 666.7 209 647 209C627.3 209 607.7 209 588 209C568.3 209 548.7 209 529.2 209C509.7 209 490.3 209 470.8 209C451.3 209 431.7 209 412 209C392.3 209 372.7 209 353 209C333.3 209 313.7 209 294 209C274.3 209 254.7 209 235 209C215.3 209 195.7 209 176.2 209C156.7 209 137.3 209 117.8 209C98.3 209 78.7 209 59 209C39.3 209 19.7 209 9.8 209L0 209Z" fill="#6e340b"></path><path d="M0 85L9.8 82.7C19.7 80.3 39.3 75.7 59 81.3C78.7 87 98.3 103 117.8 112.7C137.3 122.3 156.7 125.7 176.2 124.3C195.7 123 215.3 117 235 115.5C254.7 114 274.3 117 294 116.5C313.7 116 333.3 112 353 103.5C372.7 95 392.3 82 412 76.5C431.7 71 451.3 73 470.8 73.3C490.3 73.7 509.7 72.3 529.2 80C548.7 87.7 568.3 104.3 588 104.2C607.7 104 627.3 87 647 82.5C666.7 78 686.3 86 706 91.5C725.7 97 745.3 100 765 102.8C784.7 105.7 804.3 108.3 823.8 109.3C843.3 110.3 862.7 109.7 882.2 102.5C901.7 95.3 921.3 81.7 941 82.2C960.7 82.7 980.3 97.3 990.2 104.7L1000 112L1000 209L990.2 209C980.3 209 960.7 209 941 209C921.3 209 901.7 209 882.2 209C862.7 209 843.3 209 823.8 209C804.3 209 784.7 209 765 209C745.3 209 725.7 209 706 209C686.3 209 666.7 209 647 209C627.3 209 607.7 209 588 209C568.3 209 548.7 209 529.2 209C509.7 209 490.3 209 470.8 209C451.3 209 431.7 209 412 209C392.3 209 372.7 209 353 209C333.3 209 313.7 209 294 209C274.3 209 254.7 209 235 209C215.3 209 195.7 209 176.2 209C156.7 209 137.3 209 117.8 209C98.3 209 78.7 209 59 209C39.3 209 19.7 209 9.8 209L0 209Z" fill="#75380c"></path><path d="M0 128L9.8 123C19.7 118 39.3 108 59 102.3C78.7 96.7 98.3 95.3 117.8 100.8C137.3 106.3 156.7 118.7 176.2 119.3C195.7 120 215.3 109 235 107.2C254.7 105.3 274.3 112.7 294 113.2C313.7 113.7 333.3 107.3 353 103.5C372.7 99.7 392.3 98.3 412 97C431.7 95.7 451.3 94.3 470.8 98.2C490.3 102 509.7 111 529.2 117.8C548.7 124.7 568.3 129.3 588 131.7C607.7 134 627.3 134 647 133.7C666.7 133.3 686.3 132.7 706 129C725.7 125.3 745.3 118.7 765 118C784.7 117.3 804.3 122.7 823.8 127.8C843.3 133 862.7 138 882.2 132.8C901.7 127.7 921.3 112.3 941 106.3C960.7 100.3 980.3 103.7 990.2 105.3L1000 107L1000 209L990.2 209C980.3 209 960.7 209 941 209C921.3 209 901.7 209 882.2 209C862.7 209 843.3 209 823.8 209C804.3 209 784.7 209 765 209C745.3 209 725.7 209 706 209C686.3 209 666.7 209 647 209C627.3 209 607.7 209 588 209C568.3 209 548.7 209 529.2 209C509.7 209 490.3 209 470.8 209C451.3 209 431.7 209 412 209C392.3 209 372.7 209 353 209C333.3 209 313.7 209 294 209C274.3 209 254.7 209 235 209C215.3 209 195.7 209 176.2 209C156.7 209 137.3 209 117.8 209C98.3 209 78.7 209 59 209C39.3 209 19.7 209 9.8 209L0 209Z" fill="#7c3c0e"></path><path d="M0 133L9.8 131C19.7 129 39.3 125 59 124.8C78.7 124.7 98.3 128.3 117.8 127.3C137.3 126.3 156.7 120.7 176.2 117.7C195.7 114.7 215.3 114.3 235 119.8C254.7 125.3 274.3 136.7 294 139C313.7 141.3 333.3 134.7 353 133.5C372.7 132.3 392.3 136.7 412 141C431.7 145.3 451.3 149.7 470.8 148C490.3 146.3 509.7 138.7 529.2 132.2C548.7 125.7 568.3 120.3 588 120C607.7 119.7 627.3 124.3 647 130.5C666.7 136.7 686.3 144.3 706 146C725.7 147.7 745.3 143.3 765 139.3C784.7 135.3 804.3 131.7 823.8 129.3C843.3 127 862.7 126 882.2 125.8C901.7 125.7 921.3 126.3 941 127.8C960.7 129.3 980.3 131.7 990.2 132.8L1000 134L1000 209L990.2 209C980.3 209 960.7 209 941 209C921.3 209 901.7 209 882.2 209C862.7 209 843.3 209 823.8 209C804.3 209 784.7 209 765 209C745.3 209 725.7 209 706 209C686.3 209 666.7 209 647 209C627.3 209 607.7 209 588 209C568.3 209 548.7 209 529.2 209C509.7 209 490.3 209 470.8 209C451.3 209 431.7 209 412 209C392.3 209 372.7 209 353 209C333.3 209 313.7 209 294 209C274.3 209 254.7 209 235 209C215.3 209 195.7 209 176.2 209C156.7 209 137.3 209 117.8 209C98.3 209 78.7 209 59 209C39.3 209 19.7 209 9.8 209L0 209Z" fill="#834010"></path><path d="M0 143L9.8 143C19.7 143 39.3 143 59 144.3C78.7 145.7 98.3 148.3 117.8 149.2C137.3 150 156.7 149 176.2 147.5C195.7 146 215.3 144 235 146.5C254.7 149 274.3 156 294 158.7C313.7 161.3 333.3 159.7 353 158.7C372.7 157.7 392.3 157.3 412 154.5C431.7 151.7 451.3 146.3 470.8 150C490.3 153.7 509.7 166.3 529.2 167.2C548.7 168 568.3 157 588 157.5C607.7 158 627.3 170 647 170.2C666.7 170.3 686.3 158.7 706 152.2C725.7 145.7 745.3 144.3 765 147.5C784.7 150.7 804.3 158.3 823.8 158.5C843.3 158.7 862.7 151.3 882.2 149.3C901.7 147.3 921.3 150.7 941 152.5C960.7 154.3 980.3 154.7 990.2 154.8L1000 155L1000 209L990.2 209C980.3 209 960.7 209 941 209C921.3 209 901.7 209 882.2 209C862.7 209 843.3 209 823.8 209C804.3 209 784.7 209 765 209C745.3 209 725.7 209 706 209C686.3 209 666.7 209 647 209C627.3 209 607.7 209 588 209C568.3 209 548.7 209 529.2 209C509.7 209 490.3 209 470.8 209C451.3 209 431.7 209 412 209C392.3 209 372.7 209 353 209C333.3 209 313.7 209 294 209C274.3 209 254.7 209 235 209C215.3 209 195.7 209 176.2 209C156.7 209 137.3 209 117.8 209C98.3 209 78.7 209 59 209C39.3 209 19.7 209 9.8 209L0 209Z" fill="#8a4412"></path><path d="M0 191L9.8 187.7C19.7 184.3 39.3 177.7 59 176.2C78.7 174.7 98.3 178.3 117.8 180.7C137.3 183 156.7 184 176.2 181.8C195.7 179.7 215.3 174.3 235 173.5C254.7 172.7 274.3 176.3 294 175.8C313.7 175.3 333.3 170.7 353 172.5C372.7 174.3 392.3 182.7 412 183.2C431.7 183.7 451.3 176.3 470.8 172.3C490.3 168.3 509.7 167.7 529.2 172.3C548.7 177 568.3 187 588 189.8C607.7 192.7 627.3 188.3 647 185.5C666.7 182.7 686.3 181.3 706 182.3C725.7 183.3 745.3 186.7 765 185.7C784.7 184.7 804.3 179.3 823.8 177C843.3 174.7 862.7 175.3 882.2 175.3C901.7 175.3 921.3 174.7 941 178.5C960.7 182.3 980.3 190.7 990.2 194.8L1000 199L1000 209L990.2 209C980.3 209 960.7 209 941 209C921.3 209 901.7 209 882.2 209C862.7 209 843.3 209 823.8 209C804.3 209 784.7 209 765 209C745.3 209 725.7 209 706 209C686.3 209 666.7 209 647 209C627.3 209 607.7 209 588 209C568.3 209 548.7 209 529.2 209C509.7 209 490.3 209 470.8 209C451.3 209 431.7 209 412 209C392.3 209 372.7 209 353 209C333.3 209 313.7 209 294 209C274.3 209 254.7 209 235 209C215.3 209 195.7 209 176.2 209C156.7 209 137.3 209 117.8 209C98.3 209 78.7 209 59 209C39.3 209 19.7 209 9.8 209L0 209Z" fill="#914814"></path></svg>