<?xml version="1.0" encoding="UTF-8"?><svg id="Cinnamon" xmlns="http://www.w3.org/2000/svg" viewBox="0 0 620.95 621.09"><defs><style>.cls-1{fill:#52290b;}.cls-1,.cls-2{stroke:#000;stroke-miterlimit:10;stroke-width:11px;}.cls-2{fill:#914814;}</style></defs><polygon id="The_Baguette_of_Cinnamon" class="cls-2" points="21.36 513.43 486.58 42.55 570.89 127.89 105.67 598.76 21.36 513.43"/><path id="Far_End" class="cls-2" d="m564.47,134.37c38.56-37.4,52.99-56.83,50.76-72.63-2.06-14.6-18.2-25.68-30.93-25.68-2.81,0-5.73-.38-5.73-2.98,0-3.03-2.9-17.46-14.35-24.01-31.85-18.2-83.17,39.1-83.17,39.1"/><rect id="Political_Correctness_Enforcer" x="479.35" y="49.23" width="5.95" height="2.45" transform="translate(176.95 -326.27) rotate(45)"/><path id="Top_End_Curve" class="cls-1" d="m12.5,521.82c14.94-15.12,32.55-19.4,38.09-19.4,36.67,0,38.61,25.29,24.22,39.85-2.17,2.19-1.01,1.18,1.31-.73,9.84-8.08,40.61-10.12,40.61,27.13,0,7.91.62,18.32-19.15,38.33"/><path id="Bottom_End_Curve" class="cls-1" d="m12.5,521.82c-14.36,14.36-5.34,48.32,15.33,67.5,22.94,21.29,50.79,36.65,69.76,17.68"/><path id="Curl_Right" class="cls-1" d="m74.44,542.88c-7.41,7.11-14.86,14.26-21.11,22.41-2.54,3.31-4.93,6.93-5.53,11.05-1.06,7.34,4.22,14.62,11.08,17.41,6.86,2.79,14.8,1.73,21.61-1.18,3.02-1.29,5.94-2.96,8.15-5.39s3.66-5.69,3.38-8.96c-.45-5.33-5.11-9.25-9.74-11.91-1.92-1.1-4.03-2.13-6.23-1.99-2.9.18-5.29,2.32-7.21,4.51-1.35,1.54-2.61,3.21-3.23,5.16s-.5,4.23.74,5.86c1.24,1.62,5.91,1.14,7.59-.02,0,0,4.08-2.2.18-.12"/><path id="Curl_Left" class="cls-1" d="m74.83,542.5c-7.11,6.93-14.26,13.89-22.41,19.74-3.31,2.37-6.93,4.61-11.05,5.17-7.34.99-14.62-3.94-17.41-10.36-2.79-6.42-1.73-13.84,1.18-20.21,1.29-2.82,2.96-5.55,5.39-7.62,2.43-2.07,5.69-3.42,8.96-3.16,5.33.42,9.25,4.78,11.91,9.11,1.1,1.8,2.13,3.76,1.99,5.83-.18,2.72-2.32,4.95-4.51,6.74-1.54,1.26-3.21,2.44-5.16,3.02-1.95.58-4.23.47-5.86-.69-1.62-1.16-1.14-5.52.02-7.1,0,0,2.2-3.81.12-.17"/><rect id="Center_Line" class="cls-1" x="328.82" y="-66.26" width="0" height="709" transform="translate(300.13 -148.09) rotate(45)"/></svg>