<?xml version="1.0" encoding="utf-8"?>
<!-- Generator: Adobe Illustrator 27.2.0, SVG Export Plug-In . SVG Version: 6.00 Build 0)  -->
<svg version="1.1" id="Cinnamon" xmlns="http://www.w3.org/2000/svg" xmlns:xlink="http://www.w3.org/1999/xlink" x="0px" y="0px"
	 viewBox="0 0 1024 1024" style="enable-background:new 0 0 1024 1024;" xml:space="preserve">
<style type="text/css">
	.st0{fill:#914814;stroke:#000000;stroke-width:11;stroke-miterlimit:10;}
	.st1{fill:#52290B;stroke:#000000;stroke-width:11;stroke-miterlimit:10;}
</style>
<polygon id="The_Baguette_of_Cinnamon" class="st0" points="234.64,690.91 699.86,220.03 784.17,305.37 318.95,776.25 "/>
<path id="Far_End" class="st0" d="M777.75,311.85c38.56-37.4,52.99-56.83,50.76-72.63c-2.06-14.6-18.2-25.68-30.93-25.68
	c-2.81,0-5.73-0.38-5.73-2.98c0-3.03-2.9-17.46-14.35-24.01c-31.85-18.2-83.17,39.1-83.17,39.1"/>
<rect id="Political_Correctness_Enforcer" x="692.63" y="226.72" transform="matrix(0.7071 0.7071 -0.7071 0.7071 364.9155 -425.1014)" width="5.95" height="2.45"/>
<path id="Top_End_Curve" class="st1" d="M225.78,699.3c14.94-15.12,32.55-19.4,38.09-19.4c36.67,0,38.61,25.29,24.22,39.85
	c-2.17,2.19-1.01,1.18,1.31-0.73c9.84-8.08,40.61-10.12,40.61,27.13c0,7.91,0.62,18.32-19.15,38.33"/>
<path id="Bottom_End_Curve" class="st1" d="M225.78,699.3c-14.36,14.36-5.34,48.32,15.33,67.5c22.94,21.29,50.79,36.65,69.76,17.68"
	/>
<path id="Curl_Right" class="st1" d="M287.72,720.36c-7.41,7.11-14.86,14.26-21.11,22.41c-2.54,3.31-4.93,6.93-5.53,11.05
	c-1.06,7.34,4.22,14.62,11.08,17.41c6.86,2.79,14.8,1.73,21.61-1.18c3.02-1.29,5.94-2.96,8.15-5.39c2.21-2.43,3.66-5.69,3.38-8.96
	c-0.45-5.33-5.11-9.25-9.74-11.91c-1.92-1.1-4.03-2.13-6.23-1.99c-2.9,0.18-5.29,2.32-7.21,4.51c-1.35,1.54-2.61,3.21-3.23,5.16
	c-0.62,1.95-0.5,4.23,0.74,5.86c1.24,1.62,5.91,1.14,7.59-0.02c0,0,4.08-2.2,0.18-0.12"/>
<path id="Curl_Left" class="st1" d="M288.11,719.98c-7.11,6.93-14.26,13.89-22.41,19.74c-3.31,2.37-6.93,4.61-11.05,5.17
	c-7.34,0.99-14.62-3.94-17.41-10.36c-2.79-6.42-1.73-13.84,1.18-20.21c1.29-2.82,2.96-5.55,5.39-7.62c2.43-2.07,5.69-3.42,8.96-3.16
	c5.33,0.42,9.25,4.78,11.91,9.11c1.1,1.8,2.13,3.76,1.99,5.83c-0.18,2.72-2.32,4.95-4.51,6.74c-1.54,1.26-3.21,2.44-5.16,3.02
	c-1.95,0.58-4.23,0.47-5.86-0.69c-1.62-1.16-1.14-5.52,0.02-7.1c0,0,2.2-3.81,0.12-0.17"/>
<rect id="Center_Line" x="542.1" y="111.23" transform="matrix(0.7071 0.7071 -0.7071 0.7071 488.0953 -246.9145)" class="st1" width="0.01" height="709"/>
</svg>
