<?xml version="1.0" encoding="UTF-8"?>
<svg id="Layer_1_copy_4" data-name="Layer 1 copy 4" xmlns="http://www.w3.org/2000/svg" xmlns:xlink="http://www.w3.org/1999/xlink" viewBox="0 0 1890.29 2396.66">
  <defs>
    <style>
      .cls-1 {
        fill: #914921;
      }

      .cls-2 {
        fill: #512b13;
      }

      .cls-3 {
        clip-path: url(#clippath);
      }

      .cls-4 {
        fill: none;
      }
    </style>
    <clipPath id="clippath">
      <circle class="cls-4" cx="1059.42" cy="944.52" r="720.62"/>
    </clipPath>
  </defs>
  <path class="cls-1" d="m1714.15,1394.14c-143.4,208.17-383.4,344.9-654.73,344.9-438.1,0-794.52-356.42-794.52-794.52S621.32,150,1059.42,150c271.34,0,511.33,136.73,654.73,344.9h176.15c-43.31-80.01-97.91-153.16-163-218.25-86.72-86.72-187.72-154.81-300.2-202.39C1310.59,24.98,1186.89,0,1059.42,0s-251.18,24.98-367.67,74.26c-112.48,47.58-213.48,115.67-300.2,202.39s-154.81,187.72-202.39,300.2c-49.27,116.49-74.26,240.2-74.26,367.67s24.98,251.18,74.26,367.67c47.58,112.48,115.67,213.48,202.39,300.2s187.72,154.81,300.2,202.39c116.49,49.27,240.2,74.26,367.67,74.26s251.18-24.98,367.67-74.26c112.48-47.58,213.48-115.67,300.2-202.39,65.1-65.1,119.7-138.24,163-218.25h-176.15Z"/>
  <g class="cls-3">
    <path class="cls-2" d="m1168.02,337.63c54.34-77.7,448.22,191.99,388.74,277.04-100.79,144.1-725.83,1054.43-786.56,1141.27q-79.55,113.73-252.74-7.41c-121.75-85.15-218.39-179.86-136.63-296.75,82.61-118.11,787.21-1114.15,787.21-1114.15Z"/>
    <path class="cls-1" d="m1319.91,674.21c36.8-52.62,43.36-81.32,6.52-120.98-53.87-58.01-139.29-154.57-117.1-186.29,36.53-52.23,340.73,171.04,307.99,217.85-29.32,41.93-159.48-57.51-211.37-112.07-129.64-136.3,71.79-16.47,36.52-1.69-18.98,7.95,129.93,118.24,146.27,94.87,16.59-23.72-230.86-211.28-252.6-180.21-27.87,39.85,246.64,298.81,305.96,214,44.91-64.21-306.89-320.58-356.64-249.44-22.16,31.69,20.05,93.26,105.94,205.89,23.73,31.12,22.31,48.62-5.93,89.01l-763.8,1092.32c-3.29,4.7-9.81,6.07-14.51,2.78-55.66-38.93-225.9-146.37-126.47-288.53L1162.66,333.41c61.24-87.55,461.76,200.49,403.83,283.32-6.67,9.53-631.57,903.07-802.39,1147.29q-72.78,104.05-208.06,9.83"/>
    <path class="cls-2" d="m1180.87,890.84c54.34-77.7,448.22,191.99,388.74,277.04-100.79,144.1-725.83,1054.43-786.56,1141.27q-79.55,113.73-252.74-7.41c-121.75-85.15-218.39-179.86-136.63-296.75,82.61-118.11,787.21-1114.15,787.21-1114.15Z"/>
    <path class="cls-1" d="m1332.77,1227.42c36.8-52.62,43.36-81.32,6.52-120.98-53.87-58.01-139.29-154.57-117.1-186.29,36.53-52.23,340.73,171.04,307.99,217.85-29.32,41.93-159.48-57.51-211.37-112.07-129.64-136.3,71.79-16.47,36.52-1.69-18.98,7.95,129.93,118.24,146.27,94.87,16.59-23.72-230.86-211.28-252.6-180.21-27.87,39.85,246.64,298.81,305.96,214,44.91-64.21-306.89-320.58-356.64-249.44-22.16,31.69,20.05,93.26,105.94,205.89,23.73,31.12,22.31,48.62-5.93,89.01l-763.8,1092.32c-3.29,4.7-9.81,6.07-14.51,2.78-55.66-38.93-225.9-146.37-126.47-288.53l781.96-1118.29c61.24-87.55,461.76,200.49,403.83,283.32-6.67,9.53-631.57,903.07-802.39,1147.29q-72.78,104.05-208.06,9.83"/>
    <path class="cls-2" d="m817.88,408.06c54.34-77.7,448.22,191.99,388.74,277.04-100.79,144.1-725.83,1054.43-786.56,1141.27q-79.55,113.73-252.74-7.41c-121.75-85.15-218.39-179.86-136.63-296.75,82.61-118.11,787.21-1114.15,787.21-1114.15Z"/>
    <path class="cls-1" d="m969.78,744.64c36.8-52.62,43.36-81.32,6.52-120.98-53.87-58.01-139.29-154.57-117.1-186.29,36.53-52.23,340.73,171.04,307.99,217.85-29.32,41.93-159.48-57.51-211.37-112.07-129.64-136.3,71.79-16.47,36.52-1.69-18.98,7.95,129.93,118.24,146.27,94.87,16.59-23.72-230.86-211.28-252.6-180.21-27.87,39.85,246.64,298.81,305.96,214,44.91-64.21-306.89-320.58-356.64-249.44-22.16,31.69,20.05,93.26,105.94,205.89,23.73,31.12,22.31,48.62-5.93,89.01L171.54,1807.89c-3.29,4.7-9.81,6.07-14.51,2.78-55.66-38.93-225.9-146.37-126.47-288.53L812.52,403.84c61.24-87.55,461.76,200.49,403.83,283.32-6.67,9.53-631.57,903.07-802.39,1147.29q-72.78,104.05-208.06,9.83"/>
  </g>
</svg>