<?xml version="1.0" encoding="UTF-8"?>
<svg id="uuid-67fe4a4a-13ce-48f5-9313-5b45867e0ba6" data-name="Layer 1 copy 4" xmlns="http://www.w3.org/2000/svg" xmlns:xlink="http://www.w3.org/1999/xlink" viewBox="0 0 1890.295 2396.662">
  <defs>
    <style>
      .uuid-c710a37b-a40b-467c-ad79-33c9fe7f5cdc {
        fill: none;
      }

      .uuid-62af845f-ac20-4e4c-a276-fb0dc30fb89f {
        fill: #914814;
      }

      .uuid-af0a12b4-322b-46eb-805f-2d5406833981 {
        fill: #52290b;
      }

      .uuid-8b5ba516-dd76-4169-88fd-a2de74744041 {
        clip-path: url(#uuid-15b492f1-a5b4-44ae-bec8-dead24492e29);
      }
    </style>
    <clipPath id="uuid-15b492f1-a5b4-44ae-bec8-dead24492e29">
      <circle class="uuid-c710a37b-a40b-467c-ad79-33c9fe7f5cdc" cx="1059.416" cy="944.52" r="720.617"/>
    </clipPath>
  </defs>
  <path class="uuid-62af845f-ac20-4e4c-a276-fb0dc30fb89f" d="m1714.149,1394.144c-143.401,208.168-383.396,344.896-654.733,344.896-438.1,0-794.52-356.42-794.52-794.52S621.316,150,1059.416,150c271.337,0,511.333,136.727,654.733,344.896h176.145c-43.306-80.009-97.906-153.156-163.003-218.253-86.719-86.719-187.722-154.812-300.203-202.388C1310.595,24.983,1186.893,0,1059.416,0s-251.18,24.983-367.673,74.256c-112.482,47.576-213.485,115.669-300.204,202.388s-154.812,187.722-202.388,300.204c-49.272,116.493-74.256,240.197-74.256,367.673s24.983,251.179,74.256,367.673c47.576,112.481,115.669,213.484,202.388,300.203s187.722,154.812,300.204,202.388c116.494,49.272,240.197,74.256,367.673,74.256s251.179-24.983,367.673-74.256c112.481-47.576,213.484-115.669,300.203-202.388,65.097-65.097,119.697-138.244,163.003-218.252h-176.145Z"/>
  <g class="uuid-8b5ba516-dd76-4169-88fd-a2de74744041">
    <path class="uuid-af0a12b4-322b-46eb-805f-2d5406833981" d="m1168.017,337.629c54.345-77.699,448.224,191.986,388.736,277.038-100.79,144.103-725.826,1054.431-786.563,1141.269q-79.547,113.73-252.745-7.41c-121.746-85.153-218.388-179.862-136.634-296.747,82.607-118.106,787.207-1114.15,787.207-1114.15Z"/>
    <path class="uuid-62af845f-ac20-4e4c-a276-fb0dc30fb89f" d="m1319.913,674.207c36.802-52.617,43.355-81.321,6.523-120.981-53.874-58.011-139.294-154.568-117.105-186.294,36.534-52.234,340.732,171.041,307.991,217.852-29.325,41.927-159.476-57.515-211.37-112.074-129.643-136.302,71.792-16.467,36.523-1.691-18.981,7.952,129.925,118.236,146.266,94.873,16.591-23.721-230.861-211.281-252.596-180.205-27.874,39.853,246.638,298.812,305.959,213.998,44.909-64.208-306.887-320.577-356.639-249.444-22.162,31.686,20.05,93.261,105.941,205.89,23.731,31.118,22.313,48.624-5.932,89.007l-763.799,1092.317c-3.29,4.704-9.809,6.066-14.513,2.776-55.661-38.931-225.899-146.369-126.467-288.53L1162.659,333.412c61.238-87.553,461.762,200.491,403.826,283.324-6.668,9.534-631.568,903.065-802.389,1147.294q-72.778,104.054-208.055,9.834"/>
    <path class="uuid-af0a12b4-322b-46eb-805f-2d5406833981" d="m1180.873,890.843c54.345-77.699,448.224,191.986,388.736,277.038-100.79,144.103-725.826,1054.431-786.563,1141.269q-79.547,113.73-252.745-7.41c-121.746-85.153-218.388-179.862-136.634-296.747,82.607-118.106,787.207-1114.15,787.207-1114.15Z"/>
    <path class="uuid-62af845f-ac20-4e4c-a276-fb0dc30fb89f" d="m1332.768,1227.421c36.802-52.617,43.355-81.321,6.523-120.981-53.874-58.011-139.294-154.568-117.105-186.294,36.534-52.234,340.732,171.041,307.991,217.852-29.325,41.927-159.476-57.515-211.37-112.074-129.643-136.302,71.792-16.467,36.523-1.691-18.981,7.952,129.925,118.236,146.266,94.873,16.591-23.721-230.861-211.281-252.596-180.205-27.874,39.853,246.638,298.812,305.959,213.998,44.909-64.208-306.887-320.577-356.639-249.444-22.162,31.686,20.05,93.261,105.941,205.89,23.731,31.118,22.313,48.624-5.932,89.007l-763.799,1092.317c-3.29,4.704-9.809,6.066-14.513,2.776-55.661-38.931-225.899-146.369-126.467-288.53l781.963-1118.286c61.238-87.553,461.762,200.491,403.826,283.324-6.668,9.534-631.568,903.065-802.389,1147.294q-72.778,104.054-208.055,9.834"/>
    <path class="uuid-af0a12b4-322b-46eb-805f-2d5406833981" d="m817.883,408.06c54.345-77.699,448.224,191.986,388.736,277.038-100.79,144.103-725.826,1054.431-786.563,1141.269q-79.547,113.73-252.745-7.41c-121.746-85.153-218.388-179.862-136.634-296.747,82.607-118.106,787.207-1114.15,787.207-1114.15Z"/>
    <path class="uuid-62af845f-ac20-4e4c-a276-fb0dc30fb89f" d="m969.778,744.638c36.802-52.617,43.355-81.321,6.523-120.981-53.874-58.011-139.294-154.568-117.105-186.294,36.534-52.234,340.732,171.041,307.991,217.852-29.325,41.927-159.476-57.515-211.37-112.074-129.643-136.302,71.792-16.467,36.523-1.691-18.981,7.952,129.925,118.236,146.266,94.873,16.591-23.721-230.861-211.281-252.596-180.205-27.874,39.853,246.638,298.812,305.959,213.998,44.909-64.208-306.887-320.577-356.639-249.444-22.162,31.686,20.05,93.261,105.941,205.89,23.731,31.118,22.313,48.624-5.932,89.007L171.542,1807.885c-3.29,4.704-9.809,6.066-14.513,2.776-55.661-38.931-225.899-146.369-126.467-288.53L812.525,403.844c61.238-87.553,461.762,200.491,403.826,283.324-6.668,9.534-631.568,903.065-802.389,1147.294q-72.778,104.054-208.055,9.834"/>
  </g>
</svg>